<svg width="80" height="81" viewBox="0 0 80 81" fill="none" xmlns="http://www.w3.org/2000/svg">
<g clip-path="url(#clip0_743_3262)">
<path d="M27.1625 39.2509L25.4167 36.4717C20.9354 37.0259 16.3896 36.68 11.8562 36.7196C8.0854 36.755 5.08957 33.7217 4.98124 29.9488C4.91874 27.6779 4.95624 25.4175 5.79999 23.255C6.88687 20.3819 8.96855 17.9942 11.6667 16.5258C10.2083 14.5717 9.6354 12.4238 10.1729 10.0529C10.5527 8.33076 11.5437 6.80459 12.9625 5.7571C14.3617 4.69178 16.0928 4.15609 17.8492 4.24494C19.6055 4.33379 21.2738 5.04143 22.5583 6.24252C24.9 8.39668 26.1604 12.5842 23.2792 16.5217C25.282 17.6197 26.9549 19.233 28.125 21.1946L33.0042 17.1133C31.3375 14.8529 30.7125 12.1779 31.5458 9.26127C32.0823 7.36462 33.2604 5.71298 34.8792 4.58835C36.5088 3.43156 38.4867 2.87022 40.4811 2.99842C42.4755 3.12663 44.3652 3.93659 45.8333 5.29252C49.1521 8.2946 49.4833 12.4321 46.875 17.1404L51.7396 21.1988C52.9039 19.2398 54.5751 17.6312 56.5771 16.5425C53.5187 12.3008 55.1542 7.95502 57.6687 5.91752C59.0353 4.81376 60.7451 4.22304 62.5015 4.24777C64.258 4.27251 65.9504 4.91114 67.2854 6.05293C69.7854 8.20918 71.15 12.5113 68.3271 16.3592C69.5104 17.4196 70.7896 18.3717 71.8312 19.5383C73.8437 21.7946 74.8125 24.5259 74.8479 27.5446C74.8646 28.9154 74.8708 30.3321 74.5562 31.6488C73.8333 34.6758 71.15 36.705 68.0521 36.73C64.284 36.7592 60.5139 36.7592 56.7416 36.73C55.9729 36.73 55.2062 36.5363 54.45 36.4342C53.8896 37.3279 53.3187 38.2425 52.7146 39.2113C52.9729 39.2217 53.2437 39.2446 53.5125 39.2446H75.5958C77.0166 39.2446 77.4333 39.6259 77.3479 41.0592C77.2819 42.3038 77.133 43.5427 76.9021 44.7675C76.5833 46.38 75.6 47.5258 74.0708 48.1529C70.0812 49.7925 68.9312 53.255 68.4562 57.08C68.3562 57.8738 68.6646 58.7883 69.0062 59.5571C69.8396 61.48 69.5812 63.2071 68.3458 64.8342C67.0006 66.6273 65.384 68.1997 63.5542 69.4946C61.9917 70.5904 60.3187 70.88 58.5542 70.0175C56.7292 69.1258 54.8771 69.1654 53.0354 69.8738C51.8529 70.33 50.6999 70.8595 49.5833 71.4592C48.5168 71.9951 47.6966 72.9197 47.2917 74.0425C46.4062 76.6821 44.5021 77.855 41.8625 77.9029C40.0493 77.9451 38.2353 77.863 36.4333 77.6571C34.975 77.4863 33.6854 76.7217 33.1833 75.2821C31.9625 71.7821 29.0979 70.4904 25.9083 69.5925C24.45 69.1758 22.9604 69.2217 21.5729 69.9154C19.5125 70.9446 17.5875 70.6363 15.9146 69.1946C14.3973 67.8923 12.9717 66.4869 11.6479 64.9884C10.2458 63.4009 9.9229 61.5404 10.8729 59.5446C11.2235 58.8132 11.4205 58.0176 11.4517 57.2071C11.4828 56.3966 11.3475 55.5883 11.0542 54.8321C10.6107 53.6127 10.0931 52.4216 9.50415 51.2654C8.85781 49.9383 7.71845 48.9163 6.32915 48.4175C3.84374 47.5279 2.83957 45.6238 2.6354 43.1488C2.57499 42.3967 2.51249 41.6425 2.49582 40.8884C2.46874 39.6675 2.89999 39.2509 4.12499 39.2509H27.1625ZM5.01874 41.7863C5.05832 42.2029 5.10207 42.5508 5.12707 42.9092C5.23124 44.4592 5.80832 45.6029 7.41874 46.1633C9.03752 46.7307 10.3977 47.8623 11.25 49.3508C11.9907 50.601 12.6356 51.9054 13.1792 53.2529C14.1562 55.7154 14.2875 58.2175 13.1125 60.68C12.6958 61.5446 12.8083 62.3342 13.3646 63.0967C14.6067 64.8043 16.1222 66.2952 17.85 67.5092C18.6417 68.0696 19.4354 68.0925 20.35 67.73C21.3062 67.3529 22.3187 66.9946 23.3312 66.8967C28.1104 66.4696 33.2271 69.4779 35.2208 73.8196C35.5792 74.5988 36.1062 75.0696 36.9479 75.2196C38.8703 75.5646 40.8375 75.5787 42.7646 75.2613C43.219 75.2107 43.6486 75.028 44.0004 74.7359C44.3521 74.4437 44.6106 74.0549 44.7437 73.6175C45.6042 71.255 47.3062 69.6904 49.5104 68.6029C52.8937 66.9363 56.325 66.0363 59.9625 67.8571C60.6979 68.2259 61.3917 67.9321 62.0125 67.5029C63.7481 66.2995 65.2668 64.8103 66.5042 63.0988C67.0583 62.3384 67.1167 61.5717 66.7833 60.6779C66.4312 59.7363 66.0771 58.7509 65.9917 57.7613C65.5833 53.0884 68.6833 47.8925 72.9167 45.9175C73.4104 45.6863 74.0125 45.3175 74.1917 44.8759C74.5708 43.9196 74.7042 42.8654 74.9542 41.7842H57.3666C56.9396 46.33 55.1479 50.2258 51.8 53.3259C48.4521 56.4258 44.4083 58.0009 39.8208 57.98C36.042 57.9983 32.3667 56.7458 29.3854 54.4238C25.2396 51.2425 23.0104 46.9758 22.4917 41.7863H5.01874ZM39.9271 39.2509C42.2187 39.2509 44.5104 39.2779 46.7896 39.2509C48.1047 39.2491 49.3762 38.7791 50.3764 37.9252C51.3766 37.0712 52.04 35.889 52.2479 34.5904C52.4444 33.1994 52.487 31.7909 52.375 30.3904C52.0354 25.4384 49.7 21.7363 45.2812 19.4009C45.1111 19.293 44.9139 19.2358 44.7125 19.2358C44.5111 19.2358 44.3138 19.293 44.1437 19.4009C41.3479 20.8946 38.5187 20.8967 35.7271 19.4009C35.5558 19.2952 35.3585 19.2393 35.1573 19.2393C34.956 19.2393 34.7588 19.2952 34.5875 19.4009C31.9062 20.7327 29.7771 22.9629 28.5708 25.7029C27.4521 28.1467 27.4042 30.7384 27.45 33.3529C27.5083 36.7884 29.95 39.2488 33.3771 39.2634C35.5604 39.2509 37.7437 39.2509 39.9271 39.2509ZM25.0687 41.7925C25.5083 48.9488 31.8042 55.9029 40.6521 55.4738C49.7396 55.03 54.6104 47.4238 54.7583 41.7925H25.0687ZM17.4333 34.2509H18.2125C19.925 34.2509 21.6417 34.2779 23.3542 34.23C24.7812 34.1884 24.9896 33.9654 24.95 32.6175C24.8625 29.7009 25.2125 26.8613 26.5 24.1904C26.5853 23.9069 26.5569 23.6013 26.4208 23.3384C25.4587 21.2384 23.7799 19.5499 21.6854 18.5759C21.3477 18.4335 20.9685 18.4253 20.625 18.5529C19.6274 19.003 18.5451 19.2348 17.4507 19.2326C16.3563 19.2305 15.275 18.9945 14.2792 18.5404C13.9613 18.4143 13.6074 18.4143 13.2896 18.5404C11.0625 19.5821 9.46457 21.2488 8.41249 23.4779C7.48124 25.4508 7.43749 27.5467 7.47499 29.6634C7.5229 32.3404 9.38957 34.2217 12.0583 34.2363C13.8479 34.2508 15.6417 34.2509 17.4333 34.2509ZM62.3854 34.2509H67.9958C70.0792 34.2092 71.8521 32.8529 72.2208 30.7967C72.4073 29.6419 72.4514 28.4685 72.3521 27.3029C72.0833 23.3196 70.1833 20.3654 66.6083 18.5633C66.2695 18.4268 65.8909 18.4268 65.5521 18.5633C64.5537 19.0122 63.4708 19.2421 62.3762 19.2374C61.2816 19.2327 60.2007 18.9937 59.2062 18.5363C58.9137 18.411 58.5843 18.4021 58.2854 18.5113C56.1139 19.5017 54.3742 21.2444 53.3875 23.4175C53.2799 23.6414 53.2635 23.8984 53.3417 24.1342C54.6354 26.8008 55.0083 29.63 54.9146 32.5571C54.8729 33.9529 55.0562 34.1154 56.4646 34.2238C56.7229 34.2425 56.9833 34.2384 57.2437 34.2384L62.3854 34.2509ZM39.9 18.0008C41.1358 18.0099 42.3466 17.6523 43.3792 16.9734C44.4118 16.2944 45.22 15.3246 45.7016 14.1864C46.1832 13.0482 46.3165 11.7928 46.0847 10.5789C45.8529 9.36499 45.2665 8.24703 44.3995 7.36634C43.5325 6.48564 42.4238 5.88176 41.2137 5.63101C40.0035 5.38027 38.7462 5.49392 37.6006 5.9576C36.4551 6.42128 35.4727 7.21418 34.7777 8.23607C34.0826 9.25796 33.7062 10.463 33.6958 11.6988C33.6908 13.3533 34.3402 14.9426 35.5025 16.1201C36.6648 17.2976 38.2456 17.9677 39.9 17.9842V18.0008ZM22.4562 11.7509C22.4562 10.7627 22.1635 9.79679 21.6149 8.97496C21.0663 8.15312 20.2865 7.51226 19.374 7.13327C18.4614 6.75429 17.4571 6.65419 16.4877 6.8456C15.5183 7.03701 14.6273 7.51135 13.9273 8.20874C13.2273 8.90613 12.7496 9.79529 12.5546 10.764C12.3596 11.7326 12.4559 12.7374 12.8315 13.6513C13.207 14.5653 13.845 15.3474 14.6648 15.8991C15.4845 16.4508 16.4494 16.7471 17.4375 16.7508C18.0957 16.7533 18.7479 16.6258 19.3567 16.3756C19.9655 16.1255 20.5189 15.7576 20.9851 15.293C21.4514 14.8285 21.8214 14.2765 22.0738 13.6686C22.3263 13.0608 22.4562 12.409 22.4562 11.7509ZM62.5104 6.75085C61.5222 6.72649 60.549 6.99558 59.7136 7.52414C58.8783 8.0527 58.2184 8.817 57.8173 9.72046C57.4162 10.6239 57.2919 11.626 57.4601 12.6001C57.6283 13.5742 58.0814 14.4766 58.7623 15.1932C59.4431 15.9098 60.3211 16.4086 61.2853 16.6264C62.2495 16.8442 63.2567 16.7714 64.1795 16.4171C65.1023 16.0627 65.8994 15.4428 66.47 14.6356C67.0406 13.8285 67.3592 12.8703 67.3854 11.8821C67.4048 11.2237 67.294 10.568 67.0592 9.95257C66.8244 9.33716 66.4703 8.7742 66.0173 8.29604C65.5643 7.81787 65.0213 7.43392 64.4195 7.16625C63.8177 6.89857 63.1689 6.75245 62.5104 6.73627V6.75085Z" fill="#66491C" stroke="#66491C" stroke-width="0.5"/>
<path d="M45.5255 62.2472C44.765 62.2472 44.3838 61.9035 44.2234 61.3139C44.063 60.7243 44.2942 60.2368 44.8317 59.941C45.0665 59.8318 45.3114 59.7459 45.563 59.6847C52.3782 57.4833 56.8852 52.9694 59.0838 46.143C59.1347 45.9161 59.2044 45.6938 59.2921 45.4785C59.588 44.9118 60.0609 44.618 60.7025 44.7847C61.3442 44.9514 61.6921 45.4222 61.6317 46.1201C61.6074 46.3263 61.562 46.5295 61.4963 46.7264C59.056 54.5194 53.9449 59.643 46.163 62.0972C45.9171 62.166 45.6609 62.216 45.5255 62.2472Z" fill="#66491C" stroke="#66491C" stroke-width="0.5"/>
<path d="M34.1234 62.2341C33.6276 62.0736 32.8734 61.8716 32.1546 61.5882C25.1477 58.8466 20.5408 53.8702 18.3338 46.6591C18.1567 46.082 18.1046 45.5278 18.5984 45.0716C19.313 44.4111 20.2859 44.7549 20.6817 45.7591C21.2651 47.2549 21.7463 48.8153 22.5213 50.2091C25.0942 54.8362 28.9526 57.957 34.0005 59.5841C34.3267 59.6686 34.6469 59.7751 34.9588 59.9028C35.538 60.1862 35.813 60.6632 35.6421 61.3111C35.4713 61.9591 35.0609 62.2736 34.1234 62.2341Z" fill="#66491C" stroke="#66491C" stroke-width="0.5"/>
</g>
<defs>
<clipPath id="clip0_743_3262">
<rect width="80" height="80" fill="white" transform="translate(0 0.5)"/>
</clipPath>
</defs>
</svg>
