<svg width="84" height="85" viewBox="0 0 84 85" fill="none" xmlns="http://www.w3.org/2000/svg">
<g clip-path="url(#clip0_743_3246)">
<path d="M24.1455 67.2857H22.577C17.7208 67.2857 12.8623 67.3185 8.00389 67.2616C4.75983 67.2244 2.09764 64.2779 2.32952 61.0929C2.49329 58.7606 3.31136 56.5217 4.68983 54.6332C6.65858 51.9054 9.32295 50.2166 12.7836 49.4663C10.2133 47.8388 8.64483 45.6338 8.38014 42.6851C8.11545 39.7363 9.13264 37.2513 11.3748 35.3132C13.0632 33.8663 15.2498 33.1357 17.4688 33.277C19.6879 33.4184 21.764 34.4206 23.2551 36.0701C25.0948 38.1176 25.832 40.5304 25.3923 43.2713C24.9548 45.9707 23.4389 47.9482 21.0939 49.4488C25.9064 50.606 29.1308 53.4213 30.8326 57.7613L37.1873 55.3551C33.3395 53.2441 31.1389 49.8666 31.3117 45.1876C31.4233 42.1754 32.7292 39.6445 35.0305 37.691C39.7861 33.6332 46.7598 34.4798 50.4961 39.522C54.0705 44.3345 53.0708 51.9907 46.6483 55.366L53.0073 57.7548C53.7821 55.6524 55.085 53.785 56.7906 52.3322C58.4963 50.8794 60.5473 49.8901 62.7461 49.4598C59.7798 47.526 58.1786 44.912 58.3295 41.412C58.3694 40.2737 58.6439 39.1559 59.1358 38.1286C59.6278 37.1014 60.3267 36.1868 61.1886 35.4423C62.0405 34.6817 63.0355 34.0987 64.1154 33.7274C65.1953 33.3561 66.3384 33.2038 67.4779 33.2796C68.6173 33.3554 69.7303 33.6576 70.7515 34.1687C71.7727 34.6798 72.6818 35.3894 73.4255 36.256C76.3698 39.6641 76.5995 45.881 71.1155 49.4576C71.5376 49.5626 71.8898 49.6391 72.2355 49.7376C74.7315 50.4615 76.9509 51.9222 78.6031 53.9283C80.2552 55.9345 81.2632 58.3928 81.4951 60.9813C81.7795 64.2188 79.0889 67.2201 75.7573 67.2529C70.7261 67.3032 65.7145 67.2726 60.692 67.2748H59.6967C59.7995 67.8873 59.8892 68.4385 59.9833 68.9876C60.7905 73.671 57.6558 77.626 52.8892 77.6851C45.5757 77.7726 38.2621 77.7726 30.9486 77.6851C25.8714 77.6216 22.822 73.3779 23.9486 68.2023C24.0142 67.9485 24.0623 67.6816 24.1455 67.2857ZM39.1955 57.4419C38.828 57.4419 38.5873 57.4288 38.3489 57.4419C32.0511 57.8269 26.3176 63.3482 25.7051 69.6482C25.3617 73.1263 27.6039 75.7251 31.0623 75.7513C38.2927 75.7819 45.5232 75.7819 52.7536 75.7513C56.2973 75.736 58.6708 72.9273 58.0823 69.4207C57.192 64.1291 54.2433 60.4148 49.2886 58.3541C47.8224 57.7248 46.2399 57.4117 44.6445 57.4354C44.6555 57.6541 44.6555 57.8226 44.6708 57.9801C44.9114 60.4541 45.1673 62.9282 45.3817 65.4044C45.4195 65.8062 45.35 66.2108 45.1805 66.5769C44.4476 68.0119 43.6689 69.4207 42.8836 70.8273C42.3148 71.8444 41.477 71.8357 40.9148 70.8076C40.1514 69.4207 39.3836 68.0338 38.677 66.6207C38.4954 66.2301 38.4199 65.7985 38.4583 65.3694C38.6683 62.751 38.9373 60.1435 39.1955 57.4332V57.4419ZM41.9298 54.4757C43.6481 54.4757 45.3276 53.9657 46.7558 53.0104C48.184 52.0551 49.2965 50.6974 49.9524 49.1093C50.6083 47.5212 50.7782 45.7741 50.4404 44.0894C50.1026 42.4047 49.2725 40.8581 48.055 39.6456C46.8376 38.4331 45.2877 37.6092 43.6017 37.2782C41.9156 36.9473 40.1693 37.1242 38.5838 37.7865C36.9984 38.4489 35.6452 39.5668 34.6956 40.9989C33.7461 42.4309 33.2429 44.1125 33.2498 45.8307C33.2705 48.1223 34.193 50.3136 35.8176 51.93C37.4422 53.5464 39.6381 54.4578 41.9298 54.4669V54.4757ZM10.303 41.8713C10.3021 43.184 10.6909 44.4673 11.4201 45.5588C12.1493 46.6503 13.186 47.5008 14.399 48.0025C15.612 48.5043 16.9466 48.6346 18.2338 48.3772C19.5209 48.1197 20.7027 47.4859 21.6293 46.5562C22.556 45.6265 23.1858 44.4427 23.439 43.1547C23.6923 41.8667 23.5575 40.5325 23.0517 39.3212C22.546 38.1098 21.6921 37.0759 20.5982 36.3503C19.5043 35.6247 18.2197 35.2402 16.907 35.2454C15.1572 35.2631 13.4845 35.9676 12.2492 37.207C11.0138 38.4464 10.3149 40.1215 10.303 41.8713ZM66.9176 35.2454C65.602 35.2372 64.3136 35.6199 63.2158 36.345C62.118 37.0701 61.2603 38.1049 60.7515 39.3182C60.2427 40.5315 60.1058 41.8686 60.358 43.1598C60.6103 44.4511 61.2404 45.6383 62.1684 46.5709C63.0964 47.5035 64.2805 48.1395 65.5704 48.3982C66.8604 48.6568 68.1982 48.5265 69.414 48.0237C70.6298 47.521 71.6688 46.6684 72.3994 45.5742C73.1299 44.4801 73.519 43.1935 73.5173 41.8779C73.5202 40.1236 72.8269 38.4399 71.5895 37.1964C70.3522 35.9529 68.6719 35.2512 66.9176 35.2454ZM67.6461 65.2907C70.5445 65.2907 73.3226 65.376 76.0898 65.2623C78.1133 65.1791 79.7408 63.0966 79.5198 61.0929C79.1458 57.6979 77.5511 54.9963 74.7336 53.0735C73.2258 52.014 71.447 51.4069 69.6061 51.3235C69.6061 51.5313 69.5951 51.6648 69.6061 51.7938C69.8489 54.2001 70.1289 56.626 70.3148 59.0476C70.3556 59.6857 70.2368 60.324 69.9692 60.9048C69.2823 62.3507 68.4686 63.7419 67.6461 65.2907ZM16.1873 65.2994C15.3276 63.696 14.5073 62.226 13.7548 60.7188C13.5458 60.2837 13.4495 59.8031 13.4748 59.321C13.5601 57.9888 13.7417 56.661 13.873 55.331C14.0042 54.001 14.1201 52.6885 14.2492 51.2951C13.7964 51.3454 13.4442 51.3585 13.103 51.4285C8.29045 52.4216 4.91952 56.0879 4.31577 60.9748C4.05764 63.077 5.73983 65.2141 7.86608 65.2798C10.5786 65.3629 13.3042 65.2994 16.1873 65.2994ZM17.6683 65.3148C20.0111 65.3148 22.192 65.3301 24.373 65.2929C24.5167 65.2674 24.6529 65.2102 24.7717 65.1254C24.8905 65.0406 24.9889 64.9305 25.0598 64.8029C25.9429 62.8879 27.1955 61.1662 28.7458 59.7366C29.1833 59.3516 29.1833 59.0126 28.9995 58.5248C27.8292 55.412 25.7183 53.2004 22.6383 51.9929C21.7195 51.6341 20.7308 51.4569 19.672 51.1682C19.672 51.5554 19.6545 51.7435 19.672 51.9251C19.9148 54.2898 20.2014 56.6501 20.3808 59.017C20.4189 59.6828 20.2895 60.3477 20.0045 60.9507C19.3067 62.3944 18.493 63.7791 17.6595 65.3148H17.6683ZM64.2073 51.3366C60.1495 51.4045 55.5273 55.1145 54.7442 58.8791C54.7403 59.03 54.7685 59.18 54.827 59.3192C54.8854 59.4583 54.9728 59.5835 55.0833 59.6863C56.621 61.1287 57.8607 62.8589 58.732 64.7788C58.7868 64.9565 58.9028 65.1089 59.0594 65.2091C59.216 65.3092 59.4031 65.3505 59.5873 65.3257C61.578 65.3016 63.5708 65.3257 65.5614 65.3126C65.7521 65.2995 65.942 65.2761 66.1301 65.2426C65.2923 63.7113 64.4698 62.2544 63.7239 60.7713C63.5114 60.3094 63.4066 59.8053 63.4176 59.2969C63.4176 58.5641 63.562 57.8313 63.6364 57.1095C63.8158 55.202 64.0017 53.3054 64.1986 51.3366H64.2073ZM17.6376 51.2776H16.242C15.9642 54.0163 15.6886 56.6982 15.4239 59.3823C15.4075 59.5435 15.4354 59.7061 15.5048 59.8526C15.9533 60.7276 16.4214 61.5763 16.9289 62.5279C17.4123 61.6529 17.8542 60.8654 18.2698 60.0713C18.3928 59.8626 18.4571 59.6245 18.4558 59.3823C18.1955 56.6982 17.9111 54.0163 17.6289 51.2776H17.6376ZM66.2001 51.2448C65.9136 53.9901 65.6358 56.6479 65.3667 59.3057C65.3431 59.4934 65.3711 59.684 65.4476 59.8569C65.8983 60.7319 66.3729 61.5741 66.8455 62.4448C68.0026 60.8829 68.742 59.2751 68.1951 57.3282C68.1452 57.0597 68.1174 56.7875 68.112 56.5145C67.9341 54.7645 67.7562 53.0079 67.5783 51.2448H66.2001ZM41.8926 68.4101C43.4239 66.0695 43.4239 66.0694 43.2248 63.4576C43.1745 62.7773 43.1045 62.0969 43.0345 61.4166C42.8967 60.0932 42.7523 58.772 42.608 57.4332H41.1795C40.9761 59.5354 40.9345 61.6288 40.5233 63.6501C40.1536 65.5357 40.9805 66.8985 41.8926 68.4101Z" fill="#66491C" stroke="#66491C" stroke-width="0.5"/>
<path d="M54.4098 16.8441C54.2356 17.1318 54.0294 17.3989 53.7951 17.6403C52.118 19.1191 50.4249 20.5818 48.7157 22.0284C48.5489 22.1408 48.4238 22.3049 48.3598 22.4955C48.2957 22.6861 48.2963 22.8926 48.3613 23.0828C48.8798 25.1741 49.3566 27.2763 49.8466 29.3763C49.9823 29.9603 50.212 30.5837 49.5885 31.0234C48.9651 31.4631 48.4576 31.0344 47.9479 30.7259C46.106 29.6081 44.2576 28.5013 42.4376 27.3638C42.2914 27.2495 42.1112 27.1875 41.9257 27.1875C41.7402 27.1875 41.56 27.2495 41.4138 27.3638C39.5392 28.5297 37.6426 29.6606 35.757 30.8091C35.2801 31.0978 34.8032 31.4062 34.2498 31.0278C33.6482 30.6122 33.832 30.0216 33.961 29.4616C34.4554 27.3353 34.9432 25.2091 35.4682 23.0894C35.5349 22.9 35.5374 22.6939 35.4754 22.503C35.4133 22.312 35.2901 22.1468 35.1248 22.0328C33.4163 20.5869 31.7363 19.1081 30.0366 17.6578C29.6145 17.2969 29.2076 16.8528 29.5226 16.3453C29.6613 16.16 29.8354 16.0041 30.0348 15.8866C30.2342 15.7691 30.4549 15.6923 30.6841 15.6606C32.8716 15.4222 35.081 15.2472 37.2838 15.105C37.8307 15.07 38.102 14.8863 38.3032 14.3853C39.1323 12.3378 40.0051 10.3078 40.8516 8.26031C41.0595 7.76156 41.2891 7.28906 41.9213 7.28906C42.5535 7.28906 42.7963 7.755 42.9932 8.25594C43.842 10.2969 44.7126 12.3269 45.5416 14.3809C45.7429 14.8775 46.0054 15.07 46.5567 15.105C48.7595 15.245 50.9601 15.4484 53.1585 15.6366C53.782 15.6847 54.3595 15.8313 54.4098 16.8441ZM51.0257 17.4369C48.9607 17.2597 47.1451 17.0869 45.3382 16.9513C45.0656 16.9477 44.8011 16.8583 44.5824 16.6957C44.3636 16.5331 44.2017 16.3056 44.1198 16.0456C43.5029 14.5297 42.862 13.0225 42.2254 11.5153C42.1197 11.3065 42.0028 11.1035 41.8754 10.9072C41.1929 12.5391 40.4929 14.0222 39.9548 15.5622C39.5873 16.61 38.9463 16.9863 37.9007 17.0344C36.2776 17.1088 34.661 17.2838 32.841 17.4325C33.1866 17.7475 33.3923 17.9444 33.6066 18.1303C34.7616 19.13 35.9079 20.1406 37.0782 21.1228C37.601 21.5603 37.7717 22.0438 37.5682 22.7131C37.3648 23.3825 37.216 24.1438 37.052 24.8612C36.8135 25.9047 36.5816 26.9481 36.306 28.1644C37.9423 27.1734 39.4363 26.3269 40.8626 25.3819C41.6413 24.8678 42.2604 24.9028 43.0216 25.4016C44.4501 26.3356 45.9332 27.1844 47.5541 28.1644C47.1385 26.3969 46.8279 24.7934 46.3729 23.2294C46.0645 22.1641 46.2679 21.4444 47.1648 20.7575C48.4423 19.7688 49.6301 18.6444 51.0257 17.4369Z" fill="#66491C" stroke="#66491C" stroke-width="0.5"/>
</g>
<defs>
<clipPath id="clip0_743_3246">
<rect width="84" height="84" fill="white" transform="translate(0 0.5)"/>
</clipPath>
</defs>
</svg>
