<svg width="80" height="81" viewBox="0 0 80 81" fill="none" xmlns="http://www.w3.org/2000/svg">
<g clip-path="url(#clip0_743_3301)">
<path d="M22.6147 27.4602V26.5602C22.6147 21.9852 22.6147 17.4102 22.6147 12.8352C22.6147 8.92266 25.2668 6.25599 29.1606 6.25391C43.0981 6.25391 57.0349 6.25391 70.971 6.25391C74.871 6.25391 77.5293 8.91641 77.5293 12.8227C77.5293 25.9254 77.5293 39.0275 77.5293 52.1289C77.5293 55.981 74.8564 58.6539 71.0127 58.6602C67.4002 58.6602 63.7877 58.6602 60.0585 58.6602V59.5893C60.046 62.1227 58.5085 63.6456 55.9585 63.6518H51.3252C51.3252 64.5018 51.3022 65.3185 51.346 66.1393C51.346 66.2956 51.6127 66.4789 51.7939 66.5789C53.5668 67.5622 54.2585 69.5143 53.4793 71.381C52.746 73.1414 50.8543 74.0185 48.9668 73.4643C47.5439 73.0477 46.5356 71.7852 46.3627 70.1893C46.2848 69.4735 46.4255 68.7509 46.7661 68.1165C47.1067 67.4821 47.6313 66.9657 48.271 66.6352C48.7127 66.4102 48.8668 66.1664 48.8356 65.6872C48.7918 65.0435 48.8356 64.3956 48.8356 63.6435C47.2689 63.6435 45.7439 63.6622 44.2231 63.6331C43.679 63.6419 43.1366 63.5717 42.6127 63.4247C41.907 63.1851 41.2905 62.7373 40.8442 62.1405C40.398 61.5436 40.1429 60.8256 40.1127 60.081C40.0939 59.6414 40.1127 59.2018 40.1127 58.7122H35.3877C35.5668 58.9477 35.7064 59.1456 35.8585 59.3372C38.5897 62.7352 40.0252 66.6102 40.0814 70.9747C40.1106 73.2456 38.5002 74.8789 36.2272 74.881C26.3217 74.8893 16.4147 74.8893 6.50641 74.881C4.23558 74.881 2.64808 73.2477 2.646 70.9768C2.646 63.5643 7.31683 56.681 14.3127 53.8289C14.5752 53.7227 14.8356 53.6206 15.2127 53.4539C12.1335 51.7872 9.85016 49.4956 8.61058 46.2935C7.371 43.0914 7.4085 39.8935 8.48766 36.6789C10.4668 30.7664 15.0002 27.7914 22.6147 27.4602ZM27.7335 53.3935C29.1397 54.1789 30.5752 55.0018 32.0335 55.7831C32.4037 55.9982 32.8187 56.1245 33.246 56.1518C45.8252 56.1713 58.405 56.1761 70.9856 56.1664C73.4731 56.1664 75.0335 54.6143 75.0335 52.1352C75.0335 39.0102 75.0335 25.8852 75.0335 12.7602C75.0335 10.3143 73.4772 8.74766 71.0502 8.74557H29.0981C26.6752 8.74557 25.1147 10.3206 25.1127 12.7581C25.1127 17.5914 25.1127 22.4268 25.0981 27.2602C25.0981 27.8185 25.2606 28.0518 25.796 28.2393C30.9397 30.0581 34.0064 33.7227 34.8377 39.0727C35.646 44.2664 33.9772 48.656 29.821 51.9893C29.1397 52.5268 28.3731 52.9664 27.7335 53.3935ZM32.5397 41.3727C32.7585 35.1935 27.9439 30.1831 21.5856 29.9706C15.6252 29.7706 10.3668 34.6664 10.1418 40.6206C9.90433 46.8872 14.7252 52.2706 20.8314 52.3977C27.3856 52.5331 32.3314 48.081 32.5397 41.3727ZM32.5981 72.3893C33.7897 72.3893 34.8543 72.3893 35.9189 72.3893C37.1897 72.3893 37.6314 71.9727 37.5856 70.7081C37.3772 65.7268 35.3439 61.6435 31.4814 58.4956C29.2527 56.6789 26.5659 55.5125 23.7168 55.1247C23.821 55.4477 23.8918 55.6852 23.9772 55.9164C25.1092 59.04 26.2411 62.165 27.3731 65.2914C27.8939 66.731 27.4127 67.406 25.8606 67.4081C22.8467 67.4081 19.8314 67.4081 16.8147 67.4081C15.3564 67.4081 14.8585 66.6997 15.3564 65.3039C16.3481 62.572 17.3411 59.8414 18.3356 57.1122C18.5627 56.4872 18.7814 55.8622 19.0272 55.1643C18.8377 55.1789 18.7397 55.1789 18.6439 55.1956C15.934 55.6215 13.3863 56.7612 11.2627 58.4977C7.35155 61.6838 5.31058 65.8046 5.13975 70.8602C5.11266 71.5956 5.34808 72.2685 6.10016 72.331C7.42725 72.4435 8.771 72.3622 10.1314 72.3622C10.1314 71.5477 10.1314 70.8206 10.1314 70.0935C10.146 69.2227 10.6127 68.6831 11.3439 68.6643C12.0752 68.6456 12.6085 69.2018 12.6231 70.106C12.6231 70.8518 12.6231 71.5977 12.6231 72.3477H30.096C30.096 71.5706 30.096 70.8477 30.096 70.1227C30.1106 69.2122 30.6022 68.6518 31.3585 68.6643C32.1147 68.6768 32.5772 69.2331 32.5897 70.156C32.6064 70.8643 32.5981 71.5872 32.5981 72.3893ZM57.5585 58.7102H42.5856C42.5856 59.1268 42.5731 59.4789 42.5856 59.8372C42.6231 60.6602 43.0793 61.1477 43.9085 61.1497C48.0085 61.165 52.1099 61.165 56.2127 61.1497C57.046 61.1497 57.5106 60.6664 57.5522 59.8497C57.5752 59.4935 57.5585 59.131 57.5585 58.7102ZM21.4585 56.3331H21.2668C20.2397 59.1643 19.2147 61.9956 18.1772 64.8581H24.5522C23.5064 61.9581 22.4835 59.1456 21.4585 56.3331ZM50.0981 71.1247C50.3469 71.1246 50.59 71.0503 50.7963 70.9112C51.0026 70.7721 51.1627 70.5746 51.2561 70.344C51.3495 70.1134 51.372 69.8602 51.3206 69.6168C51.2693 69.3733 51.1464 69.1507 50.9678 68.9775C50.7893 68.8043 50.563 68.6883 50.3181 68.6444C50.0732 68.6005 49.8208 68.6306 49.5932 68.731C49.3655 68.8314 49.173 68.9974 49.0403 69.2079C48.9075 69.4183 48.8406 69.6636 48.8481 69.9122C48.8491 70.0745 48.8825 70.235 48.9463 70.3842C49.0101 70.5334 49.103 70.6684 49.2196 70.7813C49.3362 70.8942 49.4741 70.9827 49.6253 71.0417C49.7765 71.1007 49.9379 71.1289 50.1002 71.1247H50.0981Z" fill="#66491C" stroke="#66491C" stroke-width="0.5"/>
<path d="M27.7334 53.3945C28.373 52.9779 29.1397 52.5279 29.8167 51.982C33.9834 48.6487 35.6501 44.2612 34.8334 39.0654C34.0001 33.7258 30.9355 30.0612 25.7917 28.232C25.2563 28.0445 25.0897 27.8154 25.0938 27.2529C25.1167 22.4195 25.0938 17.5841 25.1084 12.7508C25.1084 10.3133 26.6709 8.74036 29.0938 8.73828H71.0417C73.4688 8.73828 75.0251 10.307 75.0251 12.7529C75.0251 25.8751 75.0251 39.0001 75.0251 52.1279C75.0251 54.607 73.4647 56.157 70.9772 56.1591C58.398 56.1591 45.8181 56.1543 33.2376 56.1445C32.8103 56.1172 32.3952 55.9909 32.0251 55.7758C30.5751 55.0029 29.1397 54.18 27.7334 53.3945ZM50.073 29.9633H63.1772C63.437 29.9773 63.6976 29.9703 63.9563 29.9425C64.6459 29.832 65.0209 29.3924 65.0209 28.7112C65.0209 28.0299 64.6438 27.5924 63.9522 27.4862C63.7196 27.4622 63.4856 27.4559 63.2522 27.4674H36.8876C36.6541 27.458 36.4202 27.4643 36.1876 27.4862C35.9269 27.5118 35.6824 27.6243 35.4934 27.8057C35.3045 27.9871 35.1821 28.2268 35.1459 28.4862C34.9709 29.3195 35.5772 29.9591 36.5917 29.9591C41.0862 29.9674 45.5799 29.9688 50.073 29.9633ZM50.073 47.432H62.0063C62.2405 47.4446 62.4753 47.4383 62.7084 47.4133C63.3959 47.3008 63.773 46.8633 63.773 46.182C63.773 45.5008 63.3959 45.0633 62.7042 44.9549C62.4717 44.9317 62.2377 44.9261 62.0042 44.9383C54.0487 44.9383 46.0924 44.9383 38.1355 44.9383C37.8761 44.9218 37.6158 44.9316 37.3584 44.9674C37.0843 45.0321 36.84 45.1874 36.6651 45.4082C36.4903 45.629 36.3952 45.9024 36.3952 46.1841C36.3952 46.4658 36.4903 46.7392 36.6651 46.96C36.84 47.1809 37.0843 47.3362 37.3584 47.4008C37.6157 47.4374 37.8761 47.4479 38.1355 47.432H50.073ZM50.0001 21.2279C53.2772 21.2279 56.5522 21.2279 59.8292 21.2279C60.5688 21.2279 61.1022 20.9674 61.2688 20.2049C61.4563 19.3383 60.8292 18.7299 59.748 18.7299C54.6008 18.7299 49.4535 18.7299 44.3063 18.7299C42.9272 18.7299 41.5501 18.7154 40.1709 18.7299C39.3126 18.7445 38.7709 19.3549 38.8709 20.1258C38.9626 20.8341 39.4522 21.2133 40.3292 21.2154C43.5501 21.2293 46.7737 21.2334 50.0001 21.2279ZM49.9897 38.6987C52.4091 38.6987 54.8272 38.6987 57.2438 38.6987C58.248 38.6987 58.7897 38.2591 58.798 37.4612C58.8063 36.6633 58.2626 36.2112 57.2647 36.2112C52.4799 36.2112 47.6959 36.2112 42.9126 36.2112C41.9042 36.2112 41.3667 36.6466 41.3584 37.4466C41.3501 38.2466 41.8938 38.6966 42.8917 38.6966C45.2542 38.7008 47.6181 38.7015 49.9834 38.6987H49.9897Z" stroke="#66491C" stroke-width="0.5"/>
<path d="M32.5396 41.3728C32.3313 48.0812 27.3855 52.5333 20.8313 52.3978C14.7209 52.2708 9.90422 46.8874 10.1417 40.6208C10.3667 34.6666 15.6251 29.7708 21.5855 29.9708C27.9438 30.1833 32.7584 35.1937 32.5396 41.3728Z" stroke="#66491C" stroke-width="0.5"/>
<path d="M32.5982 72.3904C32.5982 71.5883 32.5982 70.8654 32.5982 70.1445C32.5857 69.2216 32.1211 68.6633 31.3669 68.6529C30.6127 68.6424 30.1169 69.2008 30.1044 70.1112C30.1044 70.8362 30.1044 71.5591 30.1044 72.3362H12.6294C12.6294 71.5862 12.6294 70.8404 12.6294 70.0945C12.6148 69.1904 12.1107 68.6362 11.3502 68.6529C10.5898 68.6695 10.1523 69.2112 10.1377 70.082C10.1252 70.8091 10.1377 71.5404 10.1377 72.3508C8.77733 72.3508 7.42941 72.432 6.10649 72.3195C5.35858 72.257 5.11899 71.5841 5.14608 70.8487C5.32108 65.8001 7.36205 61.6792 11.269 58.4862C13.3915 56.7504 15.9376 55.6107 18.6461 55.1841C18.7419 55.1674 18.8398 55.1674 19.0294 55.1529C18.7836 55.8487 18.5648 56.4758 18.3377 57.1008C17.3461 59.8327 16.353 62.5633 15.3586 65.2924C14.8544 66.6883 15.3419 67.3966 16.8169 67.3966C19.8322 67.3966 22.8475 67.3966 25.8627 67.3966C27.4148 67.3966 27.8961 66.7195 27.3752 65.2799C26.2433 62.1563 25.1114 59.0313 23.9794 55.9049C23.894 55.6737 23.8232 55.4362 23.719 55.1133C26.568 55.5011 29.2548 56.6675 31.4836 58.4841C35.3461 61.632 37.3836 65.7154 37.5877 70.6966C37.6377 71.9466 37.1961 72.3758 35.9211 72.3779C34.8544 72.3924 33.7898 72.3904 32.5982 72.3904Z" stroke="#66491C" stroke-width="0.5"/>
<path d="M57.5585 58.7109C57.5585 59.1276 57.5752 59.4943 57.5585 59.8526C57.5169 60.6693 57.0523 61.1484 56.219 61.1526C52.1176 61.1651 48.0162 61.1651 43.9148 61.1526C43.0815 61.1526 42.6294 60.663 42.5919 59.8401C42.5752 59.4818 42.5919 59.1214 42.5919 58.713L57.5585 58.7109Z" stroke="#66491C" stroke-width="0.5"/>
<path d="M21.4584 56.3326C22.4813 59.1451 23.5042 61.9576 24.5521 64.8492H18.1792C19.2209 61.9867 20.2417 59.1555 21.2688 56.3242L21.4584 56.3326Z" stroke="#66491C" stroke-width="0.5"/>
<path d="M50.1 71.1241C49.8518 71.1336 49.6063 71.0689 49.395 70.9383C49.1837 70.8077 49.0161 70.617 48.9136 70.3907C48.8111 70.1644 48.7784 69.9127 48.8195 69.6678C48.8607 69.4228 48.974 69.1956 49.1448 69.0153C49.3157 68.8349 49.5364 68.7096 49.7788 68.6553C50.0212 68.6009 50.2743 68.6201 50.5058 68.7102C50.7373 68.8003 50.9367 68.9574 51.0785 69.1614C51.2204 69.3654 51.2982 69.6069 51.3021 69.8553C51.3085 70.0181 51.2823 70.1805 51.225 70.3329C51.1677 70.4854 51.0804 70.6248 50.9684 70.743C50.8564 70.8613 50.7219 70.9559 50.5727 71.0213C50.4236 71.0868 50.2629 71.1217 50.1 71.1241Z" stroke="#66491C" stroke-width="0.5"/>
<path d="M50.0729 29.9621C45.5743 29.9621 41.0771 29.9621 36.5812 29.9621C35.5667 29.9621 34.9604 29.3371 35.1354 28.4892C35.1716 28.2298 35.294 27.9901 35.483 27.8087C35.6719 27.6273 35.9164 27.5147 36.1771 27.4892C36.4097 27.4673 36.6436 27.461 36.8771 27.4704H63.2521C63.4856 27.4589 63.7196 27.4652 63.9521 27.4892C64.6438 27.5954 65.0208 28.0329 65.0208 28.7142C65.0208 29.3954 64.6458 29.835 63.9562 29.9454C63.6975 29.9733 63.4369 29.9802 63.1771 29.9663L50.0729 29.9621Z" fill="#66491C" stroke="#66491C" stroke-width="0.5"/>
<path d="M50.0731 47.4312H38.1398C37.8803 47.447 37.62 47.4365 37.3627 47.3999C37.0885 47.3353 36.8442 47.18 36.6694 46.9592C36.4945 46.7383 36.3994 46.4649 36.3994 46.1833C36.3994 45.9016 36.4945 45.6282 36.6694 45.4074C36.8442 45.1865 37.0885 45.0312 37.3627 44.9666C37.6201 44.9308 37.8804 44.921 38.1398 44.9374C46.0967 44.9374 54.0529 44.9374 62.0085 44.9374C62.2419 44.9252 62.4759 44.9308 62.7085 44.9541C63.4002 45.0624 63.7773 45.4999 63.7773 46.1812C63.7773 46.8624 63.4002 47.2999 62.7127 47.4124C62.4795 47.4375 62.2447 47.4438 62.0106 47.4312H50.0731Z" fill="#66491C" stroke="#66491C" stroke-width="0.5"/>
<path d="M49.9999 21.228C46.7763 21.228 43.5527 21.228 40.3291 21.228C39.452 21.228 38.9624 20.8468 38.8707 20.1384C38.7707 19.3676 39.3124 18.7572 40.1707 18.7426C41.5499 18.7197 42.927 18.7426 44.3061 18.7426C49.4548 18.7426 54.602 18.7426 59.7478 18.7426C60.8291 18.7426 61.4561 19.3509 61.2686 20.2176C61.102 20.9801 60.5686 21.2426 59.8291 21.2405C56.5457 21.2239 53.2707 21.228 49.9999 21.228Z" fill="#66491C" stroke="#66491C" stroke-width="0.5"/>
<path d="M49.9834 38.6983C47.6222 38.6983 45.2563 38.6983 42.8854 38.6983C41.8875 38.6983 41.3459 38.2421 41.3521 37.4483C41.3584 36.6546 41.8979 36.2129 42.9063 36.2129C47.6896 36.2129 52.4736 36.2129 57.2584 36.2129C58.2563 36.2129 58.8 36.6691 58.7917 37.4629C58.7834 38.2566 58.2417 38.6983 57.2375 38.7004C54.8195 38.7018 52.4014 38.7011 49.9834 38.6983Z" fill="#66491C" stroke="#66491C" stroke-width="0.5"/>
</g>
<defs>
<clipPath id="clip0_743_3301">
<rect width="80" height="80" fill="white" transform="translate(0 0.5)"/>
</clipPath>
</defs>
</svg>
