<svg width="16" height="16" viewBox="0 0 16 16" fill="none" xmlns="http://www.w3.org/2000/svg">
<g clip-path="url(#clip0_740_3028)">
<path d="M0 6.20802C0.108333 6.09385 0.201667 5.95802 0.327083 5.86885C0.982917 5.39718 1.67625 4.99552 2.43458 4.70802C3.47167 4.31218 4.28417 4.59302 4.95458 5.43135C5.74208 6.41635 6.45083 7.46385 7.19333 8.48427C7.20008 8.49997 7.2047 8.51651 7.20708 8.53343C6.95042 8.61677 6.6925 8.70427 6.43417 8.78843C5.54139 9.07843 4.64833 9.36788 3.755 9.65677C3.234 9.83056 2.67191 9.83842 2.14625 9.67927C1.81292 9.57968 1.56292 9.3676 1.34583 9.11093C0.932083 8.62177 0.645833 8.05718 0.402083 7.47052C0.259167 7.12468 0.133333 6.77302 0 6.42468V6.20802Z" fill="#C3B196"/>
<path d="M8.45215 9.41602L10.9167 10.2148C11.2813 10.3335 11.6471 10.4498 12.0101 10.5735C12.4576 10.726 12.8271 10.9935 13.1438 11.3431C13.4605 11.6927 13.5534 12.1052 13.5655 12.5514C13.5859 13.296 13.4363 14.0168 13.2438 14.7306C13.1913 14.9256 13.1342 15.1202 13.0709 15.3139C13.0042 15.516 12.858 15.6293 12.6542 15.6289C11.7484 15.6289 10.853 15.5514 9.97631 15.2927C9.06506 15.0235 8.63423 14.376 8.48631 13.4885C8.46199 13.319 8.4514 13.1477 8.45465 12.9764C8.45187 11.8545 8.45187 10.7325 8.45465 9.6106L8.45215 9.41602Z" fill="#C3B196"/>
<path d="M8.74463 8.52439L9.62755 7.30772C10.0367 6.74439 10.448 6.18272 10.8538 5.6173C11.1695 5.16773 11.6121 4.82247 12.125 4.62564C12.5209 4.47189 12.9121 4.5223 13.3013 4.63647C14.1238 4.87855 14.8467 5.31647 15.5471 5.79605C16.0321 6.12939 16.0471 6.18022 15.8538 6.73147C15.5946 7.46814 15.2788 8.17522 14.8459 8.83105C14.2421 9.74522 13.3875 9.97189 12.3963 9.69564C11.2434 9.37355 10.1125 8.97105 8.97213 8.60272C8.90255 8.58022 8.83338 8.55564 8.74463 8.52439Z" fill="#C3B196"/>
<path d="M7.98429 7.97617C7.36554 7.12492 6.76013 6.30076 6.16679 5.46867C5.94429 5.15742 5.71804 4.84367 5.54846 4.50117C5.33346 4.06701 5.23096 3.58701 5.37513 3.11076C5.46605 2.83001 5.60168 2.56578 5.77679 2.32826C6.30471 1.58826 7.00263 1.01992 7.72804 0.485756C7.79986 0.427324 7.88946 0.395146 7.98204 0.39454C8.07462 0.393934 8.16464 0.424936 8.23721 0.482422C8.97804 1.02409 9.66679 1.61826 10.2255 2.35742C10.8572 3.19076 10.746 4.10451 10.2018 4.90659C9.55221 5.86492 8.85013 6.78659 8.17054 7.72367C8.11304 7.80034 8.05554 7.87867 7.98429 7.97617Z" fill="#C3B196"/>
<path d="M7.51662 9.42578V9.5587C7.51662 10.7281 7.51662 11.8977 7.51662 13.0674C7.51483 13.4633 7.42964 13.8543 7.26662 14.2149C7.04912 14.7104 6.68329 15.0366 6.17995 15.2216C5.57454 15.4437 4.94454 15.5404 4.30495 15.5891C3.97912 15.6141 3.6512 15.6191 3.3237 15.6254C3.11954 15.6291 2.96829 15.5254 2.90704 15.3337C2.64662 14.5324 2.45829 13.7162 2.40162 12.8699C2.32329 11.6733 2.89662 10.9574 3.99995 10.5666C5.13329 10.1637 6.28704 9.81661 7.43204 9.44536C7.45829 9.43786 7.48162 9.43411 7.51662 9.42578Z" fill="#C3B196"/>
</g>
<defs>
<clipPath id="clip0_740_3028">
<rect width="16" height="16" fill="white"/>
</clipPath>
</defs>
</svg>
