<svg width="80" height="81" viewBox="0 0 80 81" fill="none" xmlns="http://www.w3.org/2000/svg">
<g clip-path="url(#clip0_743_3275)">
<path d="M20.3895 58.2191C25.8562 59.5608 29.377 62.817 30.702 68.29C31.4812 71.5087 30.2562 74.3504 27.5125 75.5504C26.6264 75.9155 25.6771 76.1024 24.7187 76.1004C19.15 76.1504 13.5791 76.1274 8.01038 76.1254C3.47079 76.1254 0.766628 72.7733 1.81038 68.3441C3.06038 63.0774 6.34579 59.7712 11.575 58.3899C11.7458 58.3441 11.9187 58.3045 12.2145 58.2316C9.24163 56.3774 7.59788 53.8274 7.65621 50.3483C7.69579 47.9379 8.63954 45.9045 10.3916 44.2587C13.9645 40.9024 19.5354 41.2337 22.7979 44.942C25.7354 48.2795 26.0416 54.7212 20.3895 58.2191ZM16.2375 74.2504H24.9041C27.5375 74.2129 29.4145 72.167 29.025 69.5858C28.35 65.1379 25.8604 62.0858 21.6354 60.5295C19.175 59.6191 16.5895 59.8483 14.0562 59.9545C8.67704 60.1774 4.43329 63.967 3.56038 69.1608C3.05413 72.167 4.81038 74.2504 7.88121 74.2504C10.6666 74.2504 13.452 74.2504 16.2375 74.2504ZM22.9916 50.5774C22.992 49.2468 22.5983 47.9459 21.8601 46.8388C21.1219 45.7317 20.0723 44.8681 18.8438 44.3569C17.6153 43.8457 16.2629 43.7099 14.9572 43.9665C13.6516 44.2231 12.4512 44.8607 11.5075 45.7989C10.5639 46.737 9.91925 47.9336 9.65497 49.2377C9.3907 50.5419 9.51862 51.895 10.0226 53.1265C10.5266 54.358 11.384 55.4126 12.4868 56.1573C13.5895 56.902 14.8881 57.3034 16.2187 57.3108C18.0095 57.3152 19.7288 56.6085 20.9988 55.3459C22.2688 54.0834 22.9856 52.3682 22.9916 50.5774Z" fill="#66491C" stroke="#66491C" stroke-width="0.5"/>
<path d="M59.6334 58.2492C53.6021 54.4742 54.4855 47.7179 57.4417 44.6617C60.8355 41.1554 66.3667 41.0138 69.8209 44.4533C70.7732 45.4029 71.491 46.5615 71.917 47.837C72.343 49.1126 72.4656 50.47 72.275 51.8013C72.0813 53.1617 71.65 54.4617 70.7625 55.5138C69.9292 56.5138 68.9292 57.3784 68.0167 58.2888C70.7331 58.8209 73.2076 60.2093 75.0773 62.2504C76.9471 64.2915 78.1138 66.8779 78.4063 69.6304C78.7709 72.9638 76.148 76.0575 72.7813 76.0888C66.7466 76.1582 60.7091 76.1582 54.6688 76.0888C51.1563 76.045 48.5188 72.6929 49.1271 69.2138C50.1438 63.4096 53.548 59.8033 59.2355 58.3283C59.3563 58.3117 59.4688 58.2867 59.6334 58.2492ZM63.7021 74.2492C66.6417 74.2492 69.5834 74.2721 72.525 74.2492C74.975 74.2242 76.8521 72.1763 76.525 69.77C75.9 65.2138 73.4 62.1033 69.0625 60.5221C66.6271 59.6325 64.0625 59.8617 61.5625 59.9617C56.1459 60.17 51.9792 63.9075 51.0271 69.2242C50.5188 72.0596 52.3167 74.245 55.1938 74.2575C58.0271 74.2596 60.8646 74.2492 63.7021 74.2492ZM57.0063 50.5617C57.0108 51.893 57.4097 53.1931 58.1525 54.2979C58.8952 55.4027 59.9487 56.2627 61.1799 56.7694C62.411 57.276 63.7646 57.4065 65.0699 57.1445C66.3752 56.8824 67.5735 56.2395 68.5138 55.297C69.454 54.3545 70.0939 53.1545 70.3527 51.8486C70.6115 50.5427 70.4777 49.1894 69.968 47.9595C69.4583 46.7296 68.5957 45.6783 67.4891 44.9382C66.3824 44.1981 65.0813 43.8025 63.75 43.8013C62.863 43.8013 61.9847 43.9762 61.1655 44.3162C60.3462 44.6561 59.602 45.1544 58.9756 45.7824C58.3491 46.4103 57.8528 47.1557 57.5148 47.9758C57.1769 48.796 57.0041 49.6747 57.0063 50.5617Z" fill="#66491C" stroke="#66491C" stroke-width="0.5"/>
<path d="M35.9477 19.8744C30.9061 16.5411 31.179 10.6327 34.1061 7.47231C34.8446 6.68277 35.7341 6.0496 36.722 5.61037C37.7098 5.17114 38.7758 4.9348 39.8568 4.91537C40.9377 4.89594 42.0115 5.09381 43.0145 5.49725C44.0175 5.9007 44.9292 6.50148 45.6956 7.26398C48.7956 10.364 49.2227 16.4744 44.029 19.9181C44.5102 20.064 44.9498 20.1786 45.3748 20.3348C50.1331 22.0411 52.8748 25.4265 53.5477 30.4119C53.6422 31.158 53.5788 31.9155 53.3618 32.6356C53.1447 33.3556 52.7788 34.022 52.2878 34.5916C51.7968 35.1612 51.1916 35.6212 50.5114 35.942C49.8312 36.2628 49.0912 36.437 48.3394 36.4536C42.7713 36.5202 37.2019 36.5202 31.6311 36.4536C28.3498 36.4119 25.9165 33.3286 26.4811 30.0806C27.4102 24.7431 30.5144 21.389 35.7602 20.0161C35.8081 19.9911 35.8436 19.9473 35.9477 19.8744ZM39.9998 34.6015V34.5911C42.7331 34.5911 45.4685 34.6286 48.1998 34.5786C48.7026 34.5684 49.1976 34.4527 49.6529 34.2391C50.1082 34.0255 50.5135 33.7186 50.8426 33.3384C51.1718 32.9582 51.4174 32.5131 51.5636 32.032C51.7099 31.5508 51.7534 31.0443 51.6915 30.5452C51.2519 26.4056 48.1498 22.7411 44.0852 21.9473C42.1186 21.5619 40.0498 21.5973 38.029 21.6181C33.256 21.6702 29.279 25.2494 28.3602 29.939C27.904 32.2494 29.4852 34.7536 32.3456 34.6244C34.8998 34.5119 37.456 34.6015 39.9998 34.6015ZM33.8811 12.8848C33.884 14.093 34.2444 15.2733 34.9168 16.277C35.5893 17.2807 36.5438 18.063 37.6601 18.5252C38.7764 18.9875 40.0045 19.109 41.1897 18.8746C42.3749 18.6401 43.4642 18.0601 44.3204 17.2077C45.1766 16.3553 45.7614 15.2685 46.001 14.0843C46.2407 12.9002 46.1246 11.6715 45.6673 10.5532C45.21 9.43496 44.4319 8.47703 43.4312 7.80012C42.4304 7.12322 41.2517 6.75762 40.0436 6.74939C39.2357 6.74638 38.4352 6.90282 37.688 7.20975C36.9407 7.51668 36.2613 7.96807 35.6889 8.53804C35.1164 9.10801 34.662 9.78536 34.3518 10.5313C34.0416 11.2772 33.8816 12.077 33.8811 12.8848Z" fill="#66491C" stroke="#66491C" stroke-width="0.5"/>
<path d="M48.4227 53.6902C48.4227 54.3423 48.4373 54.9652 48.4227 55.5882C48.3706 57.3777 46.7561 58.2569 45.2269 57.2944C43.5602 56.234 41.9269 55.1152 40.2519 54.0652C39.8631 53.8252 39.4189 53.6895 38.9623 53.6715C36.7498 53.634 34.5373 53.6611 32.3248 53.6527C29.9331 53.6402 28.429 52.1381 28.4165 49.7486C28.4067 47.4569 28.4067 45.1652 28.4165 42.8736C28.4165 40.509 29.9665 38.9569 32.3269 38.9527C37.4297 38.9402 42.5324 38.9402 47.6352 38.9527C50.0561 38.9527 51.5727 40.4882 51.5936 42.9111C51.5936 45.0444 51.5936 47.1798 51.5936 49.3152C51.5852 51.8027 50.8436 52.8486 48.4227 53.6902ZM46.5477 55.9215C46.5477 54.8444 46.5477 53.9652 46.5477 53.0861C46.5477 52.1007 46.804 51.8361 47.7706 51.7777C49.0727 51.7027 49.6998 51.0569 49.7061 49.7402C49.7172 47.4736 49.7172 45.2083 49.7061 42.9444C49.7061 41.534 49.004 40.8319 47.5915 40.8277C42.5401 40.8194 37.4887 40.8194 32.4373 40.8277C30.979 40.8277 30.2915 41.5236 30.2873 42.9882C30.2873 45.2007 30.2873 47.4138 30.2873 49.6277C30.2873 51.1256 30.9352 51.7736 32.4227 51.7777C34.6894 51.7777 36.954 51.7423 39.2186 51.8048C39.8553 51.8295 40.4756 52.0136 41.0227 52.3402C42.8394 53.4507 44.5998 54.6465 46.5498 55.9173L46.5477 55.9215Z" fill="#66491C" stroke="#66491C" stroke-width="0.5"/>
<path d="M13.2084 19.3871C15.7584 19.3871 18.3084 19.3871 20.8584 19.3871C23.198 19.3871 24.723 20.8871 24.7542 23.2329C24.7855 25.5787 24.7876 27.9183 24.7542 30.26C24.7209 32.6017 23.1605 34.0767 20.823 34.0829C18.5855 34.0829 16.348 34.0704 14.1084 34.1017C13.7026 34.112 13.3066 34.2292 12.9605 34.4412C11.3105 35.4829 9.68755 36.5642 8.06255 37.6412C7.33755 38.1204 6.60422 38.3017 5.79172 37.8496C4.97922 37.3975 4.72505 36.6871 4.73964 35.8204C4.73234 35.69 4.73234 35.5592 4.73964 35.4287C4.85005 34.5642 4.70214 34.0183 3.69797 33.6579C2.32089 33.1704 1.61464 31.9517 1.58547 30.4725C1.54172 27.9725 1.54589 25.4725 1.58547 22.9725C1.59686 22.027 1.97809 21.1236 2.64748 20.4557C3.31688 19.7879 4.2212 19.4088 5.16672 19.3996C7.84589 19.3662 10.5271 19.3996 13.2084 19.3996V19.3871ZM6.61464 36.3037C6.99589 36.0725 7.21672 35.9475 7.42922 35.8079C9.03964 34.7662 10.6334 33.6767 12.2688 32.6621C12.7039 32.3979 13.1997 32.2501 13.7084 32.2329C16.0501 32.1892 18.3938 32.2183 20.7355 32.21C22.1646 32.21 22.8667 31.5412 22.8792 30.1267C22.8987 27.8642 22.8987 25.6003 22.8792 23.335C22.8667 21.9329 22.1938 21.2683 20.8105 21.2662C15.7105 21.2662 10.6098 21.2662 5.50839 21.2662C4.14172 21.2662 3.44589 21.9704 3.43964 23.335C3.4313 25.5975 3.4313 27.8614 3.43964 30.1267C3.43964 31.4475 4.12714 32.1496 5.43339 32.21C6.35422 32.2558 6.60214 32.5121 6.61255 33.46C6.62297 34.3475 6.61464 35.2267 6.61464 36.3037Z" fill="#66491C" stroke="#66491C" stroke-width="0.5"/>
<path d="M66.8752 19.3874C69.4252 19.3874 71.9752 19.3874 74.5252 19.3874C76.8939 19.3874 78.4335 20.927 78.4439 23.2916C78.4522 25.5819 78.4522 27.8736 78.4439 30.1666C78.4439 32.0416 77.521 33.2916 75.7647 33.9541C75.6451 34.0174 75.5407 34.1062 75.459 34.2142C75.3773 34.3222 75.3202 34.4467 75.2918 34.5791C75.2168 35.0624 75.2918 35.5666 75.2606 36.0604C75.1627 37.8083 73.5647 38.652 72.0897 37.7145C70.3981 36.6416 68.7439 35.5104 67.0522 34.4437C66.7053 34.232 66.3086 34.1156 65.9022 34.1062C63.6897 34.0749 61.4772 34.0958 59.2668 34.0895C56.796 34.0895 55.271 32.577 55.2522 30.1083C55.2356 27.843 55.2356 25.5791 55.2522 23.3166C55.2731 20.8791 56.7856 19.3958 59.2231 19.3895C61.7689 19.384 64.3196 19.3833 66.8752 19.3874ZM73.3877 36.3333C73.3877 35.2083 73.3752 34.2812 73.3877 33.3562C73.4022 32.5229 73.6793 32.2541 74.5189 32.2104C75.8897 32.1416 76.5522 31.4604 76.5564 30.0895C76.5647 27.852 76.5647 25.6138 76.5564 23.3749C76.5564 21.9645 75.8606 21.2645 74.4522 21.2624C69.3772 21.2624 64.3022 21.2624 59.2272 21.2624C57.7918 21.2624 57.1272 21.9208 57.1168 23.3666C57.1002 25.6041 57.1002 27.8423 57.1168 30.0812C57.1272 31.5395 57.8168 32.2062 59.2939 32.2104C61.6106 32.2104 63.9272 32.1854 66.2418 32.2312C66.7763 32.2485 67.2973 32.4035 67.7543 32.6812C69.5835 33.8187 71.3772 35.0229 73.3877 36.3333Z" fill="#66491C" stroke="#66491C" stroke-width="0.5"/>
<path d="M39.8228 47.2034C39.5916 46.8867 39.2228 46.5951 39.1645 46.2492C39.0749 45.7284 39.4353 45.3576 39.9978 45.3555C40.5603 45.3534 40.9208 45.7201 40.8312 46.243C40.7749 46.5888 40.4145 46.8826 40.1791 47.2013L39.8228 47.2034Z" fill="#66491C"/>
<path d="M44.7458 47.2031C44.5187 46.8865 44.1562 46.5906 44.0958 46.2448C43.9999 45.7094 44.3833 45.3573 44.9291 45.3594C45.4749 45.3615 45.8583 45.7115 45.7624 46.249C45.6958 46.5969 45.3458 46.8906 45.1062 47.2073L44.7458 47.2031Z" fill="#66491C"/>
<path d="M35.3585 47.0978C34.5647 47.0415 34.2231 46.7707 34.2189 46.2123C34.209 46.1009 34.223 45.9886 34.26 45.883C34.2971 45.7774 34.3562 45.6809 34.4335 45.6001C34.5109 45.5192 34.6046 45.4558 34.7084 45.414C34.8122 45.3723 34.9238 45.3533 35.0356 45.3582C35.5856 45.3394 35.9793 45.6748 35.9064 46.2082C35.8606 46.5603 35.5085 46.8686 35.3585 47.0978Z" fill="#66491C"/>
<path d="M8.39591 25.6445C8.62716 25.957 8.98341 26.2424 9.05632 26.5883C9.17091 27.132 8.77716 27.482 8.24382 27.4924C7.71049 27.5029 7.31049 27.1424 7.39382 26.6133C7.44799 26.2674 7.81049 25.9695 8.04174 25.6487L8.39591 25.6445Z" fill="#66491C"/>
<path d="M12.1748 26.4881C12.4811 26.2527 12.7581 25.8902 13.1019 25.8111C13.6394 25.6861 13.9998 26.0652 14.0227 26.6027C14.0456 27.1402 13.6852 27.5402 13.1623 27.4736C12.8165 27.4298 12.5102 27.0569 12.1852 26.8486L12.1748 26.4881Z" fill="#66491C"/>
<path d="M19.077 26.788C18.7436 27.0276 18.402 27.4651 18.0811 27.4505C17.7603 27.4359 17.3228 26.9838 17.2478 26.6567C17.2205 26.5411 17.223 26.4204 17.2549 26.306C17.2868 26.1916 17.3472 26.0871 17.4303 26.0022C17.5135 25.9174 17.6168 25.855 17.7306 25.8208C17.8444 25.7866 17.965 25.7818 18.0811 25.8067C18.429 25.8609 18.7353 26.2005 19.0582 26.4109L19.077 26.788Z" fill="#66491C"/>
<path d="M62.1062 25.6508C62.3332 25.9695 62.702 26.2758 62.7541 26.6154C62.8332 27.1404 62.4395 27.5049 61.8999 27.4924C61.3603 27.4799 60.977 27.1258 61.0895 26.5841C61.1624 26.2404 61.5207 25.9591 61.7499 25.6445L62.1062 25.6508Z" fill="#66491C"/>
<path d="M67.1354 25.6747C67.3187 26.0143 67.6333 26.3477 67.6562 26.6997C67.6722 26.8175 67.6579 26.9374 67.6147 27.0482C67.5715 27.1589 67.5009 27.2568 67.4094 27.3327C67.3179 27.4086 67.2085 27.4599 67.0917 27.4818C66.9749 27.5038 66.8544 27.4956 66.7416 27.4581C66.4208 27.3602 66.0083 26.8685 66.0208 26.5685C66.0333 26.2685 66.4958 25.9435 66.7625 25.6289L67.1354 25.6747Z" fill="#66491C"/>
<path d="M70.7873 26.4075C71.1123 26.1992 71.4123 25.8575 71.7644 25.8054C71.8806 25.7799 72.0015 25.7843 72.1155 25.8183C72.2296 25.8522 72.3332 25.9147 72.4165 25.9996C72.4998 26.0846 72.5601 26.1894 72.5918 26.3041C72.6235 26.4188 72.6256 26.5397 72.5977 26.6554C72.5269 26.9825 72.0706 27.4367 71.7644 27.4492C71.4581 27.4617 71.0998 27.0325 70.7686 26.7888L70.7873 26.4075Z" fill="#66491C"/>
</g>
<defs>
<clipPath id="clip0_743_3275">
<rect width="80" height="80" fill="white" transform="translate(0 0.5)"/>
</clipPath>
</defs>
</svg>
