<svg width="80" height="80" viewBox="0 0 80 80" fill="none" xmlns="http://www.w3.org/2000/svg">
<g clip-path="url(#clip0_754_9497)">
<path d="M32.3479 24.2711C31.8625 24.2711 31.4771 24.2898 31.0979 24.2711C30.5959 24.2398 30.1688 23.9773 30.2896 23.4586C30.3604 23.1544 30.775 22.8982 31.0834 22.694C31.2292 22.5982 31.4875 22.6711 31.6959 22.6711H48.1417C48.4 22.6711 48.725 22.594 48.9042 22.719C49.1854 22.9107 49.5292 23.2336 49.5459 23.5232C49.5625 23.7503 49.1813 24.1482 48.9042 24.2273C48.5063 24.3503 48.0417 24.2586 47.4979 24.2586V25.1836C47.4979 28.1711 47.5125 31.1586 47.4854 34.1419C47.4854 34.7357 47.6479 35.0294 48.2063 35.3148C55.5979 39.0982 59.3854 45.1878 59.1875 53.4669C58.9521 63.4107 50.9604 71.4232 41.0167 72.0252C31.2084 72.6169 22.4563 65.5669 20.8688 55.7961C20.188 51.6604 20.8764 47.4156 22.8292 43.7071C24.782 39.9985 27.8924 37.0291 31.6875 35.2502C31.9584 35.1211 32.3125 34.7815 32.3125 34.5357C32.3604 31.1628 32.3479 27.7878 32.3479 24.2711ZM34.0688 30.6044C34.0301 30.685 34.0001 30.7695 33.9792 30.8565C33.9792 32.2336 33.9354 33.6128 33.9792 34.9878C34.0021 35.7523 33.6979 36.1419 33.0042 36.4565C26.5042 39.4107 22.825 44.4419 22.2834 51.5732C21.3604 63.7148 33.0896 73.1607 44.7646 69.7669C52.1188 67.6294 57.1021 61.3544 57.6063 53.6044C58.0792 46.3336 53.825 39.4815 46.9271 36.4877C46.1229 36.1398 45.8584 35.6836 45.8688 34.8398C45.9084 31.619 45.8854 28.3961 45.8854 25.1732V24.3232H34.0104V29.0127C35.125 29.0127 36.2084 29.0127 37.2917 29.0127C37.8479 29.0127 38.3209 29.1628 38.3438 29.7857C38.3688 30.4773 37.8625 30.619 37.2813 30.619C36.2146 30.5982 35.1542 30.6044 34.0688 30.6044Z" fill="#66491C" stroke="#66491C"/>
<path d="M34.2853 15.2661C34.2931 14.232 34.607 13.2234 35.1874 12.3675C35.7677 11.5116 36.5886 10.8467 37.5464 10.4568C38.5042 10.0668 39.556 9.96928 40.5692 10.1764C41.5823 10.3835 42.5115 10.8861 43.2394 11.6207C43.9673 12.3552 44.4613 13.2889 44.6592 14.3039C44.8571 15.319 44.7499 16.3698 44.3513 17.324C43.9526 18.2782 43.2803 19.093 42.4191 19.6655C41.5579 20.2381 40.5465 20.5428 39.5123 20.5411C38.8224 20.5392 38.1396 20.4011 37.5032 20.1348C36.8668 19.8684 36.2892 19.479 35.8035 18.989C35.3179 18.4989 34.9338 17.9178 34.6733 17.2789C34.4127 16.6401 34.2809 15.9561 34.2853 15.2661ZM39.5207 11.6661C38.8017 11.6695 38.0999 11.8862 37.5042 12.2888C36.9085 12.6914 36.4457 13.2617 36.1745 13.9276C35.9033 14.5935 35.8359 15.3249 35.9808 16.0291C36.1256 16.7333 36.4763 17.3787 36.9884 17.8834C37.5004 18.3882 38.1508 18.7295 38.857 18.8643C39.5632 18.999 40.2936 18.9211 40.9555 18.6403C41.6174 18.3595 42.181 17.8886 42.575 17.2872C42.969 16.6858 43.1756 15.9809 43.1686 15.262C43.1614 14.3015 42.7731 13.3831 42.0891 12.7088C41.405 12.0345 40.4812 11.6595 39.5207 11.6661Z" fill="#66491C" stroke="#66491C"/>
<path d="M60.0141 20.8809C61.3998 20.8767 62.7305 21.4233 63.7133 22.4002C64.6961 23.3771 65.2506 24.7045 65.2547 26.0903C65.2589 27.476 64.7123 28.8067 63.7354 29.7895C62.7584 30.7723 61.4311 31.3267 60.0453 31.3309C59.3592 31.3329 58.6793 31.1998 58.0446 30.9391C57.4099 30.6784 56.8328 30.2953 56.3461 29.8116C55.8595 29.3278 55.4729 28.753 55.2084 28.1198C54.9439 27.4867 54.8068 26.8077 54.8047 26.1215C54.8027 25.4354 54.9358 24.7555 55.1965 24.1208C55.4571 23.4861 55.8403 22.9089 56.324 22.4223C56.8078 21.9357 57.3826 21.5491 58.0158 21.2846C58.6489 21.0201 59.3279 20.8829 60.0141 20.8809ZM63.6453 26.1788C63.6576 25.4641 63.4577 24.7619 63.0709 24.1608C62.6841 23.5598 62.1278 23.0869 61.4723 22.8019C60.8167 22.517 60.0915 22.4328 59.3881 22.56C58.6848 22.6872 58.0349 23.02 57.5207 23.5165C57.0065 24.0129 56.651 24.6507 56.4992 25.3491C56.3474 26.0476 56.406 26.7754 56.6678 27.4405C56.9295 28.1056 57.3825 28.6782 57.9696 29.0859C58.5567 29.4935 59.2515 29.718 59.9662 29.7309C60.9249 29.7471 61.8508 29.3821 62.5407 28.7161C63.2305 28.0501 63.6278 27.1375 63.6453 26.1788Z" fill="#66491C" stroke="#66491C"/>
<path d="M29.5211 12.5383C29.5153 13.4074 29.2521 14.2552 28.7646 14.9747C28.2772 15.6942 27.5874 16.253 26.7825 16.5806C25.9775 16.9082 25.0936 16.9899 24.2422 16.8153C23.3909 16.6407 22.6104 16.2177 21.9994 15.5997C21.3884 14.9817 20.9743 14.1965 20.8094 13.3432C20.6445 12.49 20.7362 11.607 21.0729 10.8058C21.4097 10.0046 21.9763 9.32128 22.7013 8.84205C23.4263 8.36282 24.277 8.10923 25.1461 8.11333C26.3128 8.12049 27.4291 8.59059 28.2494 9.42032C29.0698 10.2501 29.5272 11.3715 29.5211 12.5383ZM27.9273 12.5529C27.932 12.1821 27.8634 11.8141 27.7255 11.4699C27.5876 11.1257 27.3831 10.8121 27.1238 10.5471C26.8644 10.2822 26.5553 10.071 26.2141 9.92576C25.8729 9.78053 25.5064 9.70409 25.1356 9.70083C24.3871 9.709 23.6718 10.0107 23.1434 10.541C22.6151 11.0712 22.3161 11.7877 22.3106 12.5362C22.316 13.2706 22.6089 13.9737 23.1264 14.4948C23.644 15.0158 24.3451 15.3134 25.0794 15.3237C25.4495 15.3332 25.8177 15.2685 26.1625 15.1336C26.5072 14.9987 26.8215 14.7962 27.0868 14.538C27.3521 14.2799 27.5632 13.9713 27.7075 13.6303C27.8519 13.2894 27.9266 12.9231 27.9273 12.5529Z" fill="#66491C" stroke="#66491C"/>
<path d="M23.3937 25.4629C23.3986 26.3326 23.1457 27.1842 22.6668 27.9102C22.188 28.6362 21.5048 29.2041 20.7034 29.542C19.9021 29.8799 19.0185 29.9728 18.1644 29.8089C17.3103 29.6449 16.5239 29.2316 15.9046 28.621C15.2853 28.0104 14.8608 27.23 14.6848 26.3783C14.5088 25.5266 14.5891 24.6418 14.9156 23.8358C15.2422 23.0297 15.8003 22.3385 16.5194 21.8494C17.2386 21.3603 18.0865 21.0953 18.9562 21.0879C20.123 21.0856 21.2436 21.5438 22.0744 22.363C22.9053 23.1822 23.3794 24.2962 23.3937 25.4629ZM16.1958 25.4629C16.1878 25.8335 16.2533 26.202 16.3888 26.547C16.5242 26.8921 16.7267 27.2069 16.9846 27.4731C17.2425 27.7393 17.5507 27.9517 17.8912 28.0981C18.2318 28.2444 18.598 28.3216 18.9687 28.3254C19.6979 28.3111 20.393 28.0143 20.9077 27.4975C21.4223 26.9807 21.7163 26.2844 21.7276 25.5551C21.739 24.8259 21.4668 24.1207 20.9685 23.5882C20.4702 23.0557 19.7846 22.7374 19.0562 22.7004C18.6868 22.6913 18.3193 22.7556 17.9749 22.8896C17.6306 23.0235 17.3162 23.2246 17.0502 23.4809C16.7841 23.7373 16.5715 24.044 16.4249 24.3831C16.2782 24.7223 16.2003 25.0872 16.1958 25.4566V25.4629Z" fill="#66491C" stroke="#66491C"/>
<path d="M50.3225 12.5001C50.3324 11.632 50.5991 10.7862 51.089 10.0695C51.5789 9.35281 52.2701 8.7972 53.0754 8.47277C53.8806 8.14834 54.7639 8.06962 55.6139 8.24654C56.4638 8.42345 57.2423 8.84808 57.8513 9.46687C58.4602 10.0857 58.8723 10.8709 59.0355 11.7236C59.1987 12.5762 59.1058 13.4582 58.7685 14.2581C58.4312 15.0581 57.8646 15.7402 57.1401 16.2185C56.4156 16.6969 55.5657 16.95 54.6975 16.9459C54.1179 16.9429 53.5445 16.8254 53.0104 16.6C52.4764 16.3747 51.9921 16.046 51.5855 15.6328C51.1789 15.2196 50.858 14.7301 50.6413 14.1925C50.4245 13.6549 50.3162 13.0797 50.3225 12.5001ZM54.7225 15.3251C55.0928 15.3254 55.4595 15.2524 55.8014 15.1103C56.1434 14.9682 56.4538 14.7599 56.7149 14.4973C56.9759 14.2347 57.1824 13.923 57.3225 13.5802C57.4625 13.2375 57.5333 12.8704 57.5309 12.5001C57.5161 11.7654 57.2185 11.0647 56.7 10.5439C56.1815 10.0231 55.4822 9.72234 54.7475 9.70425C54.3771 9.70178 54.0099 9.7725 53.6669 9.91234C53.3239 10.0522 53.0119 10.2584 52.7489 10.5192C52.4858 10.7799 52.2768 11.09 52.1339 11.4318C51.9911 11.7735 51.9171 12.1401 51.9163 12.5105C51.911 12.8808 51.9799 13.2484 52.1189 13.5916C52.258 13.9348 52.4644 14.2467 52.726 14.5089C52.9875 14.771 53.299 14.9781 53.6419 15.1179C53.9848 15.2578 54.3522 15.3275 54.7225 15.323V15.3251Z" fill="#66491C" stroke="#66491C"/>
<path d="M34.0682 30.6035C35.1536 30.6035 36.214 30.6035 37.2765 30.6035C37.8578 30.6035 38.364 30.4702 38.339 29.7702C38.3161 29.1452 37.8432 28.9931 37.287 28.9973C36.2036 28.9973 35.1203 28.9973 34.0057 28.9973V24.3223H45.8807V25.1723C45.8807 28.3952 45.9036 31.6181 45.864 34.8389C45.8536 35.6827 46.1182 36.1389 46.9224 36.4868C53.8203 39.4806 58.0745 46.3327 57.6015 53.6035C57.0974 61.3535 52.114 67.6285 44.7599 69.766C33.0932 73.1598 21.3557 63.7139 22.2786 51.5723C22.8203 44.441 26.4995 39.4098 32.9995 36.4556C33.6932 36.141 33.9974 35.7514 33.9745 34.9868C33.9349 33.6118 33.9745 32.2327 33.9745 30.8556C33.9967 30.7685 34.0281 30.684 34.0682 30.6035ZM39.9995 47.5619C36.2057 47.5619 32.412 47.5785 28.6182 47.5494C27.8661 47.5494 27.4932 47.8223 27.2682 48.5264C26.5825 50.6351 26.423 52.8795 26.8036 55.0639C28.0932 62.6431 35.762 67.5639 43.262 65.6285C50.714 63.7098 55.0453 55.6806 52.5432 48.4577C52.3099 47.7806 51.9182 47.5452 51.2182 47.5514C47.4849 47.5764 43.7495 47.5619 39.9995 47.5619Z" stroke="#66491C"/>
<path d="M39.5206 11.666C40.2399 11.6702 40.9417 11.888 41.5371 12.2916C42.1325 12.6953 42.5946 13.2667 42.8648 13.9334C43.135 14.6 43.2011 15.3319 43.0547 16.0362C42.9083 16.7405 42.556 17.3854 42.0426 17.8892C41.5291 18.393 40.8776 18.7329 40.1707 18.8659C39.4638 18.9989 38.7332 18.9189 38.0718 18.6361C37.4104 18.3533 36.8479 17.8804 36.4556 17.2775C36.0634 16.6745 35.859 15.9686 35.8685 15.2494C35.8833 14.2917 36.275 13.3785 36.9586 12.7077C37.6423 12.0369 38.5628 11.6626 39.5206 11.666Z" stroke="#66491C"/>
<path d="M63.6457 26.1796C63.6256 26.8909 63.396 27.5804 62.9857 28.1617C62.5754 28.7431 62.0026 29.1904 61.3392 29.4476C60.6758 29.7048 59.9512 29.7605 59.2562 29.6077C58.5613 29.4549 57.9269 29.1003 57.4326 28.5885C56.9383 28.0767 56.606 27.4304 56.4775 26.7306C56.3489 26.0307 56.4298 25.3085 56.7099 24.6544C56.99 24.0003 57.457 23.4435 58.0522 23.0536C58.6475 22.6638 59.3446 22.4583 60.0561 22.463C60.537 22.4675 61.0121 22.5677 61.4539 22.7577C61.8957 22.9476 62.2952 23.2236 62.6293 23.5695C62.9634 23.9154 63.2253 24.3243 63.3998 24.7724C63.5743 25.2205 63.6579 25.6989 63.6457 26.1796Z" stroke="#66491C"/>
<path d="M27.9272 12.5513C27.9265 12.9215 27.8518 13.2878 27.7074 13.6287C27.5631 13.9696 27.3521 14.2782 27.0867 14.5364C26.8214 14.7946 26.5071 14.9971 26.1624 15.132C25.8176 15.2669 25.4494 15.3316 25.0793 15.3221C24.345 15.3118 23.6439 15.0142 23.1263 14.4932C22.6088 13.9721 22.3159 13.269 22.3105 12.5346C22.316 11.7861 22.615 11.0696 23.1433 10.5393C23.6717 10.0091 24.387 9.70739 25.1355 9.69922C25.5063 9.70248 25.8728 9.77892 26.214 9.92415C26.5552 10.0694 26.8643 10.2805 27.1237 10.5455C27.383 10.8105 27.5875 11.1241 27.7254 11.4683C27.8633 11.8125 27.9319 12.1805 27.9272 12.5513Z" stroke="#66491C"/>
<path d="M16.1959 25.457C16.1991 25.0866 16.276 24.7206 16.422 24.3802C16.5681 24.0399 16.7804 23.732 17.0466 23.4745C17.3128 23.217 17.6276 23.0151 17.9726 22.8804C18.3177 22.7458 18.686 22.6812 19.0563 22.6903C19.7847 22.7273 20.4703 23.0456 20.9686 23.5781C21.4669 24.1106 21.7391 24.8158 21.7278 25.545C21.7164 26.2743 21.4224 26.9706 20.9078 27.4874C20.3931 28.0042 19.698 28.301 18.9688 28.3153C18.5985 28.3115 18.2326 28.2344 17.8923 28.0883C17.552 27.9423 17.2441 27.7302 16.9862 27.4645C16.7284 27.1987 16.5257 26.8844 16.3901 26.5398C16.2544 26.1953 16.1884 25.8272 16.1959 25.457Z" stroke="#66491C"/>
<path d="M54.7226 15.324C54.3523 15.3285 53.9848 15.2588 53.6419 15.119C53.299 14.9791 52.9876 14.772 52.726 14.5099C52.4644 14.2477 52.258 13.9358 52.119 13.5926C51.9799 13.2494 51.911 12.8818 51.9163 12.5115C51.9168 12.1409 51.9906 11.7741 52.1334 11.4322C52.2761 11.0902 52.4851 10.7798 52.7482 10.5188C53.0113 10.2579 53.3233 10.0515 53.6665 9.91148C54.0096 9.7715 54.377 9.70072 54.7476 9.70319C55.4825 9.7213 56.1822 10.0223 56.7007 10.5436C57.2192 11.0648 57.5166 11.766 57.5309 12.5011C57.5331 12.8712 57.462 13.2381 57.3219 13.5806C57.1817 13.9231 56.9752 14.2346 56.7141 14.4969C56.4531 14.7593 56.1428 14.9675 55.801 15.1094C55.4592 15.2514 55.0927 15.3243 54.7226 15.324Z" stroke="#66491C"/>
<path d="M39.9998 47.5634C43.7498 47.5634 47.4831 47.578 51.2248 47.553C51.9289 47.553 52.3164 47.7821 52.5498 48.4592C55.0498 55.6821 50.7206 63.7113 43.2685 65.63C35.7685 67.5634 28.0935 62.6446 26.8102 55.0655C26.4296 52.881 26.589 50.6366 27.2748 48.528C27.4998 47.8238 27.8727 47.5446 28.6248 47.5509C32.4144 47.5801 36.2081 47.5634 39.9998 47.5634ZM28.8123 49.1675C27.0477 53.6113 28.956 59.3238 33.1623 62.2925C35.31 63.8173 37.9097 64.572 40.54 64.4343C43.1703 64.2967 45.6771 63.2748 47.6539 61.5342C51.8206 57.9134 52.3539 52.3071 50.9873 49.1592L28.8123 49.1675Z" fill="#66491C" stroke="#66491C"/>
<path d="M28.8122 49.166H50.9852C52.3539 52.3139 51.8185 57.916 47.6518 61.541C45.6742 63.2798 43.1673 64.2999 40.5375 64.4361C37.9076 64.5722 35.3089 63.8163 33.1622 62.291C28.9581 59.3181 27.0477 53.6056 28.8122 49.166Z" stroke="#66491C"/>
</g>
<defs>
<clipPath id="clip0_754_9497">
<rect width="80" height="80" fill="white"/>
</clipPath>
</defs>
</svg>
