<svg width="73" height="73" viewBox="0 0 73 73" fill="none" xmlns="http://www.w3.org/2000/svg">
<rect x="0.5" y="0.5" width="72" height="72" rx="36" fill="#94774A"/>
<g clip-path="url(#clip0_754_5358)">
<path d="M25.2344 41.2656L32.1797 34.3203L39.1797 41.3203L32.2344 48.2656C31.5781 48.9219 30.7031 49.25 29.7734 49.25H27.3125L24.25 51L22.5 49.25L24.25 46.1875V43.7266C24.25 42.7969 24.5781 41.9219 25.2344 41.2656ZM48.9141 24.5859C50.9922 26.6094 50.9922 29.9453 48.9141 31.9688L44.7031 36.1797L45.4141 36.9453C45.9609 37.4375 45.9609 38.2578 45.4141 38.75L43.1719 40.9922C42.6797 41.5391 41.8594 41.5391 41.3125 40.9922L32.5078 32.1875C31.9609 31.6406 31.9609 30.8203 32.5078 30.3281L34.75 28.0859C35.2422 27.5391 36.0625 27.5391 36.5547 28.0859L37.3203 28.7969L41.5312 24.5859C43.5547 22.5078 46.8906 22.5078 48.9141 24.5859Z" fill="white"/>
</g>
<defs>
<clipPath id="clip0_754_5358">
<rect width="40" height="40" fill="white" transform="translate(16.5 16.5)"/>
</clipPath>
</defs>
</svg>
