<svg width="73" height="73" viewBox="0 0 73 73" fill="none" xmlns="http://www.w3.org/2000/svg">
<rect x="0.5" y="0.5" width="72" height="72" rx="36" fill="#94774A"/>
<g clip-path="url(#clip0_743_4806)">
<path d="M33 28.25L30.375 24.3672C30.2656 24.2578 30.2109 24.0938 30.2109 23.875C30.2109 23.4375 30.6484 23 31.0859 23H41.8594C42.2969 23 42.7344 23.4375 42.7344 23.9297C42.7344 24.0938 42.6797 24.2578 42.5703 24.3672L40 28.25H33ZM40 30C50.9922 36.2891 50.4453 44.7109 50.4453 45.75C50.4453 48.6484 47.7656 51 44.4844 51H28.4609C25.1797 51 22.5 48.6484 22.5 45.75C22.5 44.7109 21.8984 36.3438 33 30H40ZM37.4297 45.2031C38.8516 45.2031 39.9453 44 40 42.5781C40 41.375 39.1797 40.3359 38.0859 40.0078L35.4062 39.2422C35.0781 39.1328 34.9141 38.8047 34.9141 38.4766C34.9141 38.0391 35.1875 37.7109 35.5703 37.7109H37.2656C37.5391 37.7109 37.8125 37.7656 38.0312 37.9297C38.0859 37.9844 38.1953 37.9844 38.3047 37.9844C38.4141 37.9844 38.5234 37.9297 38.6328 37.875L39.3438 37.2188C39.3984 37.1094 39.4531 37 39.4531 36.8906C39.4531 36.7266 39.3984 36.5625 39.2891 36.5078C38.7422 36.125 38.1406 35.8516 37.4297 35.8516V34.8672C37.4297 34.5938 37.2109 34.375 36.9375 34.375H36.0078V34.4297C35.7344 34.4297 35.5156 34.5938 35.5156 34.8672V35.8516C34.0938 35.8516 33 37.0547 33 38.4766C33 39.6797 33.7656 40.7188 34.8594 41.0469L37.5391 41.8125C37.8672 41.9219 38.0312 42.25 38.0312 42.5781C38.0312 43.0156 37.7578 43.3438 37.375 43.3438H35.6797C35.4062 43.3438 35.1328 43.2891 34.9141 43.125C34.8594 43.0703 34.75 43.0703 34.6406 43.0703C34.5312 43.0703 34.4219 43.125 34.3125 43.1797L33.6016 43.8359C33.5469 43.9453 33.4922 44.0547 33.4922 44.1641C33.4922 44.3281 33.5469 44.4922 33.6562 44.5469C34.2031 44.9297 34.8047 45.2031 35.5156 45.2031V46.1875C35.5156 46.4609 35.7344 46.625 36.0078 46.625H36.9375C37.2109 46.625 37.4297 46.4609 37.4297 46.1875V45.2031Z" fill="white"/>
</g>
<defs>
<clipPath id="clip0_743_4806">
<rect width="40" height="40" fill="white" transform="translate(16.5 16.5)"/>
</clipPath>
</defs>
</svg>
