<svg width="73" height="73" viewBox="0 0 73 73" fill="none" xmlns="http://www.w3.org/2000/svg">
<rect x="0.5" y="0.5" width="72" height="72" rx="36" fill="#94774A"/>
<g clip-path="url(#clip0_754_5350)">
<path d="M36.1953 35.25C37.1797 35.3047 37.9453 36.0703 38 37C38 37.9844 37.1797 38.75 36.25 38.75C35.2656 38.75 34.5 37.9844 34.5 37C34.5 36.0703 35.2656 35.3047 36.1953 35.25ZM47.9531 30C48.8281 31.6406 48.7734 34.0469 46.5859 37C48.7734 40.0078 48.8281 42.4141 47.9531 44C46.3672 46.8984 42.375 46.4062 41.5547 46.2969C40.4062 49.1406 38.6016 51 36.1953 51C33.8438 51 32.0391 49.1406 30.8906 46.2969C30.0703 46.4062 26.0781 46.8984 24.4922 44C23.6172 42.4141 23.6719 40.0078 25.8594 37C23.6719 34.0469 23.6172 31.6406 24.4922 30C25.0938 28.9609 26.7344 27.2656 30.8906 27.7578C32.0391 24.9141 33.8438 23 36.1953 23C38.6016 23 40.4062 24.9141 41.5547 27.7578C45.7109 27.2656 47.3516 28.9609 47.9531 30ZM27.4453 42.25C27.6641 42.6328 28.4844 42.9062 29.7969 42.8516C29.6875 42.1406 29.5234 41.4297 29.4688 40.6641C29.0312 40.3359 28.6484 40.0078 28.2656 39.625C27.4453 40.9375 27.2266 41.8672 27.4453 42.25ZM29.4688 33.3906C29.5234 32.625 29.6875 31.9141 29.7969 31.1484C29.7422 31.1484 29.5781 31.1484 29.5234 31.1484C28.3203 31.1484 27.6094 31.4219 27.4453 31.75C27.2266 32.1875 27.4453 33.1172 28.2656 34.4297C28.6484 34.0469 29.0312 33.7188 29.4688 33.3906ZM36.1953 26.5C35.7031 26.5 34.9922 27.2656 34.3906 28.5781C34.9922 28.7422 35.5938 29.0156 36.1953 29.2891C36.8516 29.0156 37.4531 28.7422 38.0547 28.5781C37.4531 27.2656 36.7422 26.5 36.1953 26.5ZM36.1953 47.5C36.7422 47.5 37.4531 46.7891 38.0547 45.4766C37.4531 45.2578 36.8516 45.0391 36.1953 44.7656C35.5938 45.0391 34.9922 45.2578 34.3906 45.4766C34.9922 46.7891 35.7031 47.5 36.1953 47.5ZM36.1953 41.375C38.6562 41.375 40.5703 39.4609 40.5703 37C40.5703 34.5938 38.6562 32.625 36.1953 32.625C33.7891 32.625 31.8203 34.5938 31.8203 37C31.8203 39.4609 33.7891 41.375 36.1953 41.375ZM45 42.25C45.2188 41.8672 45 40.9375 44.1797 39.625C43.7969 40.0078 43.4141 40.3359 42.9766 40.6641C42.9219 41.4297 42.7578 42.1406 42.6484 42.8516C43.9609 42.9062 44.8359 42.6328 45 42.25ZM44.1797 34.4297C45 33.1172 45.2188 32.1875 45 31.75C44.8359 31.4219 44.125 31.1484 42.9219 31.1484C42.8672 31.1484 42.7031 31.1484 42.6484 31.1484C42.7578 31.9141 42.9219 32.625 42.9766 33.3906C43.4141 33.7188 43.7969 34.0469 44.1797 34.4297Z" fill="white"/>
</g>
<defs>
<clipPath id="clip0_754_5350">
<rect width="40" height="40" fill="white" transform="translate(16.5 16.5)"/>
</clipPath>
</defs>
</svg>
