<svg width="73" height="73" viewBox="0 0 73 73" fill="none" xmlns="http://www.w3.org/2000/svg">
<rect x="0.5" y="0.5" width="72" height="72" rx="36" fill="#94774A"/>
<g clip-path="url(#clip0_743_4801)">
<path d="M48.3906 28.0859L43.1953 32.2422C43.1953 32.4062 43.25 32.5156 43.25 32.625C43.25 34.1016 42.0469 35.25 40.625 35.25C39.1484 35.25 38 34.1016 38 32.625C38 32.5156 38 32.4062 38 32.2422L32.8047 28.0859C32.4766 28.1953 32.2031 28.25 31.875 28.25C31.6016 28.25 31.3828 28.25 31.1641 28.1953L25.6406 33.7188C25.6953 33.9375 25.75 34.1562 25.75 34.375C25.75 35.8516 24.5469 37 23.125 37C21.6484 37 20.5 35.8516 20.5 34.375C20.5 32.9531 21.6484 31.75 23.125 31.75C23.3438 31.75 23.5625 31.8047 23.7812 31.8594L29.3047 26.3359C29.25 26.1172 29.25 25.8984 29.25 25.625C29.25 24.2031 30.3984 23 31.875 23C33.2969 23 34.5 24.2031 34.5 25.625C34.5 25.7891 34.4453 25.8984 34.4453 26.0625L39.6406 30.2188C39.9688 30.1094 40.2422 30 40.5703 30C40.9531 30 41.2266 30.1094 41.5547 30.2188L46.75 26.0625C46.75 25.8984 46.75 25.7891 46.75 25.625C46.75 24.2031 47.8984 23 49.375 23C50.7969 23 52 24.2031 52 25.625C52 27.1016 50.7969 28.25 49.375 28.25C48.9922 28.25 48.7188 28.1953 48.3906 28.0859ZM42.375 40.5C42.8125 40.5 43.25 40.9375 43.25 41.375V50.125C43.25 50.6172 42.8125 51 42.375 51H38.875C38.3828 51 38 50.6172 38 50.125V41.375C38 40.9375 38.3828 40.5 38.875 40.5H42.375ZM51.125 33.5C51.5625 33.5 52 33.9375 52 34.375V50.125C52 50.6172 51.5625 51 51.125 51H47.625C47.1328 51 46.75 50.6172 46.75 50.125V34.375C46.75 33.9375 47.1328 33.5 47.625 33.5H51.125ZM33.625 33.5C34.0625 33.5 34.5 33.9375 34.5 34.375V50.125C34.5 50.6172 34.0625 51 33.625 51H30.125C29.6328 51 29.25 50.6172 29.25 50.125V34.375C29.25 33.9375 29.6328 33.5 30.125 33.5H33.625ZM24.875 42.25C25.3125 42.25 25.75 42.6875 25.75 43.125V50.125C25.75 50.6172 25.3125 51 24.875 51H21.375C20.8828 51 20.5 50.6172 20.5 50.125V43.125C20.5 42.6875 20.8828 42.25 21.375 42.25H24.875Z" fill="white"/>
</g>
<defs>
<clipPath id="clip0_743_4801">
<rect width="40" height="40" fill="white" transform="translate(16.5 16.5)"/>
</clipPath>
</defs>
</svg>
