<svg width="73" height="73" viewBox="0 0 73 73" fill="none" xmlns="http://www.w3.org/2000/svg">
<rect x="0.5" y="0.5" width="72" height="72" rx="36" fill="#94774A"/>
<g clip-path="url(#clip0_754_5367)">
<path d="M40.2188 28.6875C40.0547 28.5781 39.9453 28.4688 39.9453 28.25C39.9453 28.0859 40.0547 27.9766 40.2188 27.8672L43.5 26.5L44.8125 23.2734C44.9219 23.1094 45.0312 23 45.1953 23C45.4141 23 45.5234 23.1094 45.6328 23.2734L47 26.5L50.2266 27.8672C50.3906 27.9766 50.5 28.0859 50.5 28.25C50.5 28.4688 50.3906 28.5781 50.2266 28.6875L47 30L45.6328 33.2812C45.5234 33.4453 45.4141 33.5547 45.25 33.5547C45.0312 33.5547 44.9219 33.4453 44.8125 33.2812L43.5 30L40.2188 28.6875ZM50.2266 45.3672C50.3906 45.4766 50.5 45.5859 50.5 45.75C50.5 45.9688 50.3906 46.0781 50.2266 46.1875L47 47.5L45.6328 50.7812C45.5234 50.9453 45.4141 51.0547 45.25 51.0547C45.0312 51.0547 44.9219 50.9453 44.8125 50.7812L43.5 47.5L40.2188 46.1875C40.0547 46.0781 39.9453 45.9688 39.9453 45.8047C39.9453 45.5859 40.0547 45.4766 40.2188 45.3672L43.5 44L44.8125 40.7734C44.9219 40.6094 45.0312 40.5 45.1953 40.5C45.4141 40.5 45.5234 40.6094 45.6328 40.7734L47 44L50.2266 45.3672ZM43.5 37C43.5 37.3281 43.2812 37.6562 43.0078 37.7656L36.8281 40.8828L33.7656 47.0625C33.6016 47.3359 33.3281 47.5 33 47.5C32.6172 47.5 32.3438 47.3359 32.1797 47.0625L29.1172 40.8828L22.9375 37.7656C22.6641 37.6562 22.4453 37.3281 22.4453 37C22.4453 36.6719 22.6641 36.3438 22.9375 36.2344L29.1172 33.1172L32.1797 26.9922C32.5078 26.3906 33.4375 26.3906 33.7656 26.9922L36.8281 33.1172L43.0078 36.2344C43.2812 36.3438 43.4453 36.6719 43.5 37Z" fill="white"/>
</g>
<defs>
<clipPath id="clip0_754_5367">
<rect width="40" height="40" fill="white" transform="translate(16.5 16.5)"/>
</clipPath>
</defs>
</svg>
