<svg width="73" height="73" viewBox="0 0 73 73" fill="none" xmlns="http://www.w3.org/2000/svg">
<rect x="0.5" y="0.5" width="72" height="72" rx="36" fill="#94774A"/>
<g clip-path="url(#clip0_743_4804)">
<path d="M40 41.375V38.75H50.5V46.625C50.5 48.0469 49.2422 49.25 47.875 49.25H25.125C23.7031 49.25 22.5 48.0469 22.5 46.625V38.75H33V41.375C33 41.8672 33.3828 42.25 33.875 42.25H39.125C39.5625 42.25 40 41.8672 40 41.375ZM47.875 30C49.2422 30 50.5 31.2578 50.5 32.625V37H22.5V32.625C22.5 31.2578 23.7031 30 25.125 30H29.5V27.375C29.5 26.0078 30.7031 24.75 32.125 24.75H40.875C42.2422 24.75 43.5 26.0078 43.5 27.375V30H47.875ZM40 30V28.25H33V30H40Z" fill="white"/>
</g>
<defs>
<clipPath id="clip0_743_4804">
<rect width="40" height="40" fill="white" transform="translate(16.5 16.5)"/>
</clipPath>
</defs>
</svg>
