<svg width="73" height="73" viewBox="0 0 73 73" fill="none" xmlns="http://www.w3.org/2000/svg">
<rect x="0.5" y="0.5" width="72" height="72" rx="36" fill="#94774A"/>
<g clip-path="url(#clip0_743_4808)">
<path d="M52.9609 26.0078C53.5625 26.2812 54 26.9375 54 27.5938V44.9844C54 45.9688 53.125 46.6797 52.1953 46.6797C52.0312 46.6797 51.8125 46.6797 51.6484 46.625C49.9531 46.0781 48.2578 45.8594 46.5625 45.8594C39.8359 45.8594 33.1094 49.25 26.3828 49.25C24.25 49.25 22.1172 48.9219 19.9844 48.0469C19.3828 47.7734 19 47.1172 19 46.4609V29.0703C19 28.0859 19.8203 27.3203 20.75 27.3203C20.9141 27.3203 21.1328 27.375 21.2969 27.4297C22.9922 27.9766 24.6875 28.1953 26.3828 28.1953C33.1094 28.1953 39.8359 24.75 46.5625 24.75C48.6953 24.75 50.8281 25.1328 52.9609 26.0078ZM21.625 30.2734V33.5547C23.3203 33.5547 24.6875 32.3516 25.0156 30.7656C23.8672 30.6562 22.7188 30.5469 21.625 30.2734ZM21.625 45.8594C22.7188 46.2422 23.8672 46.5156 25.0703 46.5703C25.0156 44.7109 23.4844 43.2344 21.625 43.2344V45.8594ZM36.5 42.25C38.9062 42.25 40.875 39.9531 40.875 37C40.875 34.1016 38.9062 31.75 36.5 31.75C34.0391 31.75 32.125 34.1016 32.125 37C32.125 39.9531 34.0391 42.25 36.5 42.25ZM51.375 43.7812V40.6641C49.8984 40.8281 48.6953 41.9219 48.3672 43.3438C49.4062 43.3984 50.3906 43.5625 51.375 43.7812ZM51.375 30.875V28.1953C50.3906 27.8672 49.3516 27.6484 48.3125 27.5391C48.3672 29.2344 49.6797 30.6562 51.375 30.875Z" fill="white"/>
</g>
<defs>
<clipPath id="clip0_743_4808">
<rect width="40" height="40" fill="white" transform="translate(16.5 16.5)"/>
</clipPath>
</defs>
</svg>
