<svg width="73" height="73" viewBox="0 0 73 73" fill="none" xmlns="http://www.w3.org/2000/svg">
<rect x="0.5" y="0.5" width="72" height="72" rx="36" fill="#94774A"/>
<g clip-path="url(#clip0_754_5340)">
<path d="M47 23L50.5 26.5L45.25 33.5H41.8047L37.2656 38.0938C37.0469 37.7109 36.7734 37.3281 36.5 37C36.1719 36.7266 35.7891 36.4531 35.4062 36.2344L40 31.6953V28.25L47 23ZM29.5 38.2578C31.0859 36.6719 33.6562 36.6719 35.2422 38.2578C36.8281 39.8438 36.8281 42.4141 35.2422 44L28.8438 50.4531C28.0234 51.2188 26.7656 51.2188 25.9453 50.4531L23.0469 47.5547C22.2812 46.7344 22.2812 45.4766 23.0469 44.6562L29.5 38.2578Z" fill="white"/>
</g>
<defs>
<clipPath id="clip0_754_5340">
<rect width="40" height="40" fill="white" transform="translate(16.5 16.5)"/>
</clipPath>
</defs>
</svg>
