<svg width="263" height="231" viewBox="0 0 263 231" fill="none" xmlns="http://www.w3.org/2000/svg">
<g opacity="0.5" clip-path="url(#clip0_754_4406)">
<path d="M245.764 87.4827C245.642 87.0158 244.946 87.3015 245.068 87.7616C245.21 88.2811 245.346 88.8083 245.487 89.3278C245.616 89.7939 246.312 89.5082 246.183 89.0489C246.048 88.5286 245.906 88.0023 245.764 87.4827Z" fill="#CCB181"/>
<path d="M236.871 75.7254C234.787 73.9031 231.993 71.1525 229.043 71.1743C228.563 71.1812 228.647 71.9203 229.128 71.9202C230.857 71.9077 232.343 73.1252 233.671 74.1133C234.879 75.0054 236.046 75.964 237.151 76.9777C239.414 79.0473 241.417 81.3665 243.193 83.8627C243.472 84.2567 244.073 83.81 243.794 83.4161C241.789 80.5958 239.48 78.0025 236.871 75.7254Z" fill="#CCB181"/>
<path d="M224.53 68.9425C223.426 68.54 222.28 68.4307 221.125 68.6591C220.655 68.7474 220.733 69.494 221.211 69.405C222.239 69.2049 223.242 69.2754 224.225 69.6369C224.677 69.805 224.982 69.1174 224.524 68.9501L224.53 68.9425Z" fill="#CCB181"/>
<path d="M217.254 68.1407L216.624 68.2129C216.15 68.2672 216.228 69.0138 216.709 68.9587L217.34 68.8865C217.821 68.8314 217.736 68.0856 217.254 68.1407Z" fill="#CCB181"/>
<path d="M221.82 79.6468C220.79 79.0435 219.651 78.693 218.459 78.6028C217.981 78.5682 217.867 79.3094 218.345 79.344C219.481 79.4269 220.534 79.7528 221.521 80.3336C221.941 80.5809 222.239 79.8873 221.82 79.6468Z" fill="#CCB181"/>
<path d="M215.261 78.1992C214.786 78.2535 214.865 79.0001 215.346 78.945C215.827 78.8899 215.742 78.1441 215.261 78.1992Z" fill="#CCB181"/>
<path d="M206.246 22.018L206.207 21.6722C206.152 21.1908 205.406 21.2761 205.461 21.7575L205.501 22.1033C205.555 22.5779 206.302 22.4994 206.246 22.018Z" fill="#CCB181"/>
<path d="M212.125 67.5461C209.358 68.0277 206.582 68.3798 203.777 68.5911C203.3 68.6251 203.386 69.3709 203.863 69.3369C206.667 69.1189 209.443 68.7736 212.21 68.2919C212.682 68.2104 212.603 67.4638 212.125 67.5461Z" fill="#CCB181"/>
<path d="M212.516 152.053C212.537 152.532 213.282 152.447 213.262 151.968C213.111 148.97 212.65 146.028 211.892 143.119C211.77 142.653 211.074 142.938 211.196 143.398C211.94 146.239 212.372 149.116 212.516 152.053Z" fill="#CCB181"/>
<path d="M213.261 161.504L213.297 161.816C213.352 162.297 214.098 162.212 214.042 161.73L214.007 161.418C213.952 160.937 213.206 161.022 213.261 161.504Z" fill="#CCB181"/>
<path d="M212.507 154.914L212.543 155.226C212.598 155.707 213.344 155.622 213.289 155.14L213.253 154.828C213.198 154.347 212.452 154.432 212.507 154.914Z" fill="#CCB181"/>
<path d="M207.618 152.334L207.919 154.964C207.974 155.446 208.719 155.36 208.664 154.879L208.363 152.248C208.308 151.767 207.562 151.852 207.618 152.334Z" fill="#CCB181"/>
<path d="M198.952 85.9403C199.433 85.8852 199.348 85.1394 198.866 85.1945L196.352 85.4824C195.877 85.5367 195.956 86.2833 196.437 86.2282L198.952 85.9403Z" fill="#CCB181"/>
<path d="M189.708 28.3633C193.324 26.1771 197.201 24.5311 201.276 23.412C201.735 23.2839 201.456 22.5877 200.997 22.7158C196.855 23.8494 192.942 25.5407 189.268 27.7611C188.857 28.0074 189.31 28.608 189.715 28.3625L189.708 28.3633Z" fill="#CCB181"/>
<path d="M200.553 98.8483C199.299 99.4109 198.011 99.792 196.654 99.9954C196.181 100.063 196.259 100.81 196.739 100.741C198.164 100.53 199.527 100.14 200.839 99.5437C201.276 99.3426 200.998 98.6531 200.56 98.8475L200.553 98.8483Z" fill="#CCB181"/>
<path d="M195.268 117.292C196.594 118.734 197.913 120.183 199.239 121.625C199.561 121.98 200.163 121.533 199.84 121.178C198.521 119.729 197.195 118.287 195.869 116.845C195.547 116.49 194.946 116.937 195.268 117.292Z" fill="#CCB181"/>
<path d="M212.764 77.508C202.097 76.5861 191.378 77.8546 181.216 81.2299C180.76 81.3851 181.038 82.0745 181.495 81.9261C191.524 78.5934 202.115 77.3465 212.643 78.25C213.122 78.2913 213.236 77.5501 212.758 77.5088L212.764 77.508Z" fill="#CCB181"/>
<path d="M187.784 50.3024C187.589 50.2148 187.387 50.3135 187.291 50.4962C187.093 50.8624 186.901 51.2278 186.703 51.5939C186.607 51.7766 186.723 52.0106 186.897 52.0937C187.093 52.1812 187.294 52.0758 187.39 51.8999C187.589 51.5337 187.78 51.1615 187.978 50.7954C188.075 50.6194 187.958 50.3787 187.784 50.3024Z" fill="#CCB181"/>
<path d="M192.901 113.656C193.383 113.601 193.297 112.855 192.816 112.91C192.335 112.965 192.42 113.711 192.901 113.656Z" fill="#CCB181"/>
<path d="M189.028 110.417C189.338 110.787 189.94 110.34 189.629 109.97C189.384 109.682 189.138 109.394 188.898 109.099C188.589 108.736 187.98 109.177 188.297 109.546C188.543 109.84 188.789 110.128 189.035 110.416L189.028 110.417Z" fill="#CCB181"/>
<path d="M189.234 119.886C188.874 119.563 188.406 120.153 188.766 120.475C192.96 124.185 196.727 128.35 199.963 132.925C203.34 137.704 207.096 143.346 206.854 149.446C206.833 149.923 207.575 150.044 207.595 149.56C207.841 143.549 204.436 138.107 201.156 133.331C197.76 128.376 193.736 123.877 189.235 119.893L189.234 119.886Z" fill="#CCB181"/>
<path d="M186.073 124.604C185.694 124.297 185.233 124.886 185.605 125.194C189.66 128.466 192.876 132.563 195.097 137.268C195.304 137.698 196.001 137.426 195.793 136.989C193.517 132.167 190.22 127.956 186.073 124.604Z" fill="#CCB181"/>
<path d="M181.011 50.2878C184.56 40.7386 194.381 35.7675 200.065 27.7117C200.343 27.3227 199.76 26.8468 199.477 27.2502C193.75 35.3588 183.891 40.355 180.317 49.9894C180.149 50.4414 180.836 50.7405 181.004 50.2886L181.011 50.2878Z" fill="#CCB181"/>
<path d="M177.599 56.2377C178.513 55.3982 179.082 54.3095 179.215 53.0716C179.263 52.5921 178.522 52.4777 178.474 52.9572C178.366 53.9931 177.911 54.9382 177.147 55.6438C176.799 55.9653 177.24 56.5743 177.6 56.2445L177.599 56.2377Z" fill="#CCB181"/>
<path d="M190.634 85.5115C186.084 85.9569 181.701 87.2006 177.597 89.2091C177.168 89.4163 177.441 90.12 177.876 89.9053C181.928 87.9234 186.231 86.7025 190.719 86.2574C191.201 86.209 191.116 85.4632 190.634 85.5115Z" fill="#CCB181"/>
<path d="M179.498 118.157C179.126 117.849 178.658 118.439 179.03 118.747C180.526 120.004 182.022 121.255 183.525 122.505C183.897 122.812 184.359 122.23 183.987 121.916C182.491 120.665 180.994 119.408 179.498 118.157Z" fill="#CCB181"/>
<path d="M172.925 71.4319C172.445 71.4387 172.531 72.1846 173.01 72.1777C174.524 72.1418 175.35 70.9619 176.146 69.8129C177.313 68.1269 178.435 66.4117 179.514 64.6808C181.603 61.3367 183.539 57.9072 185.342 54.4036C185.567 53.9725 184.881 53.6733 184.655 54.1044C183.055 57.2207 181.345 60.2809 179.51 63.2662C178.682 64.6112 177.833 65.9517 176.96 67.2674C176.047 68.6496 174.775 71.3919 172.918 71.4327L172.925 71.4319Z" fill="#CCB181"/>
<path d="M176.337 83.1827C175.58 83.5854 174.829 83.9805 174.071 84.3832C173.65 84.6032 173.929 85.2994 174.35 85.0794C175.107 84.6767 175.859 84.2816 176.616 83.8789C177.037 83.6589 176.765 82.962 176.337 83.1827Z" fill="#CCB181"/>
<path d="M173.139 88.8946C172.402 89.3568 171.571 89.5962 170.696 89.5727C170.221 89.5584 170.1 90.3004 170.582 90.3139C171.67 90.3404 172.663 90.0756 173.592 89.4953C174.002 89.2354 173.55 88.6415 173.146 88.8938L173.139 88.8946Z" fill="#CCB181"/>
<path d="M171.433 110.287C170.952 110.342 171.037 111.088 171.519 111.033L171.783 111.002C172.264 110.947 172.179 110.201 171.698 110.257L171.433 110.287Z" fill="#CCB181"/>
<path d="M160.925 47.0588L160.652 44.6722C160.597 44.1908 159.851 44.2761 159.907 44.7575L160.18 47.1442C160.235 47.6256 160.981 47.5402 160.925 47.0588Z" fill="#CCB181"/>
<path d="M176.939 145.837C174.642 145.633 172.593 144.707 170.922 143.126C170.567 142.788 170.107 143.384 170.453 143.708C172.209 145.376 174.411 146.367 176.825 146.578C177.303 146.62 177.417 145.878 176.939 145.837Z" fill="#CCB181"/>
<path d="M161.945 60.2877C165.819 54.1154 169.811 48.0187 173.931 42.0106C174.201 41.6155 173.619 41.1464 173.341 41.5422C169.223 47.5572 165.23 53.647 161.356 59.8194C161.1 60.2265 161.683 60.6956 161.945 60.2877Z" fill="#CCB181"/>
<path d="M170.114 129.769C169.844 129.635 169.678 129.38 169.644 129.088C169.589 128.607 168.85 128.691 168.899 129.174C168.963 129.736 169.305 130.205 169.808 130.457C170.245 130.675 170.543 129.981 170.107 129.77L170.114 129.769Z" fill="#CCB181"/>
<path d="M159.535 63.1053C159.057 63.4898 158.81 64.0882 158.914 64.7013C158.996 65.1729 159.735 65.095 159.66 64.616C159.599 64.2657 159.705 63.9308 159.988 63.706C160.365 63.4018 159.919 62.8003 159.542 63.1046L159.535 63.1053Z" fill="#CCB181"/>
<path d="M160.948 101.116C169.668 99.2387 178.906 101.416 185.858 107.016C186.236 107.316 186.705 106.733 186.327 106.426C179.238 100.712 169.77 98.4508 160.87 100.37C160.407 100.471 160.486 101.217 160.955 101.115L160.948 101.116Z" fill="#CCB181"/>
<path d="M168.216 108.877C166.157 107.746 164 106.839 161.752 106.155C161.296 106.015 160.99 106.702 161.453 106.842C163.702 107.532 165.859 108.439 167.917 109.564C168.342 109.797 168.641 109.11 168.216 108.877Z" fill="#CCB181"/>
<path d="M163.748 152.568C166.856 160.277 167.913 168.611 166.831 176.855C166.77 177.336 167.511 177.45 167.572 176.969C168.667 168.601 167.593 160.117 164.444 152.282C164.262 151.836 163.566 152.115 163.748 152.561L163.748 152.568Z" fill="#CCB181"/>
<path d="M159.416 101.593C159.897 101.538 159.812 100.792 159.331 100.847C158.849 100.902 158.935 101.648 159.416 101.593Z" fill="#CCB181"/>
<path d="M157.163 69.1957C155.74 71.282 154.715 73.5494 154.102 75.9962C153.984 76.4631 154.725 76.5775 154.843 76.1106C155.429 73.7904 156.399 71.6393 157.752 69.6641C158.022 69.2622 157.44 68.7999 157.169 69.195L157.163 69.1957Z" fill="#CCB181"/>
<path d="M168.276 125.782C166.346 122.953 164.262 120.231 162.002 117.646C160.255 115.641 158.407 113.235 155.8 112.359C155.343 112.205 155.037 112.893 155.501 113.046C158.287 113.984 160.289 116.777 162.129 118.936C164.113 121.264 165.951 123.705 167.675 126.228C167.948 126.63 168.548 126.176 168.276 125.782Z" fill="#CCB181"/>
<path d="M149.609 41.3068C149.05 32.9491 149.693 24.5845 151.511 16.4082C151.614 15.9361 150.873 15.8217 150.77 16.2938C148.939 24.5335 148.298 32.9735 148.863 41.3921C148.891 41.8766 149.637 41.7913 149.609 41.3068Z" fill="#CCB181"/>
<path d="M149.774 44.9093C149.774 44.3049 149.766 43.7012 149.766 43.0968C149.759 42.6167 149.021 42.7081 149.02 43.1822C149.021 43.7866 149.021 44.391 149.028 44.9947C149.029 45.4755 149.773 45.3833 149.774 44.9093Z" fill="#CCB181"/>
<path d="M154.76 89.7138C155.179 89.9543 155.478 89.2675 155.066 89.0262C154.727 88.8314 154.573 88.4438 154.613 88.0751C155.109 88.2656 155.605 88.463 156.094 88.6543C156.54 88.8299 156.846 88.1423 156.393 87.9675C155.768 87.7231 155.142 87.4787 154.51 87.2351C154.316 87.1611 154.112 87.2394 154.017 87.4289C153.606 88.2729 153.966 89.2552 154.754 89.7214L154.76 89.7138Z" fill="#CCB181"/>
<path d="M149.905 49.8931C150.115 49.8073 150.167 49.6021 150.11 49.4026C150.028 49.1029 150.052 48.7705 150.155 48.477C150.323 48.025 149.636 47.719 149.469 48.1778C149.286 48.6795 149.274 49.1755 149.408 49.689C149.458 49.8826 149.728 49.9616 149.899 49.8939L149.905 49.8931Z" fill="#CCB181"/>
<path d="M154.099 93.8969C154.024 93.9054 153.949 93.914 153.876 93.9293C153.946 93.9419 154.027 93.9325 154.108 93.9165C154.997 95.1472 156.508 96.6435 157.468 95.5581C157.791 95.1983 157.202 94.73 156.886 95.089C156.357 95.6854 154.577 93.2788 154.358 92.9261C153.841 92.0716 154.862 92.2914 155.371 92.4185C155.98 92.5755 156.562 92.8042 157.123 93.0835C157.559 93.2946 157.858 92.6078 157.422 92.3967C156.542 91.9685 155.305 91.4164 154.292 91.5049C153.517 91.5731 153.137 92.1524 153.466 92.8703C153.576 93.1118 153.797 93.4849 154.091 93.8909L154.099 93.8969Z" fill="#CCB181"/>
<path d="M153.688 100.387C153.624 100.429 153.566 100.469 153.503 100.511C153.33 100.62 153.312 100.883 153.425 101.035C153.555 101.206 153.776 101.222 153.948 101.106L154.133 100.982C154.306 100.872 154.324 100.609 154.211 100.458C154.081 100.287 153.86 100.271 153.687 100.38L153.688 100.387Z" fill="#CCB181"/>
<path d="M165.856 179.502C165.591 181.318 164.473 182.717 163.624 184.298C162.838 185.768 162.522 187.268 162.672 188.933C162.713 189.416 163.459 189.331 163.417 188.848C163.093 185.176 166.095 183.026 166.598 179.623C166.667 179.148 165.932 179.026 165.857 179.508L165.856 179.502Z" fill="#CCB181"/>
<path d="M150.857 83.6908L150.958 83.6792C151.439 83.6241 151.354 82.8783 150.873 82.9334L150.771 82.945C150.29 83.0001 150.375 83.7459 150.857 83.6908Z" fill="#CCB181"/>
<path d="M151.458 88.65C150.934 87.8581 150.647 86.9637 150.614 86.0195C151.126 86.112 151.584 86.3344 151.996 86.6925C152.362 87.0078 152.824 86.426 152.464 86.1031C151.853 85.5685 151.118 85.2612 150.303 85.2239C150.124 85.217 149.888 85.3195 149.879 85.5336C149.827 86.824 150.148 88.0099 150.862 89.0891C151.128 89.4914 151.73 89.0447 151.464 88.6424L151.458 88.65Z" fill="#CCB181"/>
<path d="M162.687 191.761C162.52 191.684 162.247 191.764 162.187 191.956C162.022 192.497 162.012 193.006 162.15 193.554C162.2 193.754 162.47 193.826 162.641 193.765C162.851 193.68 162.902 193.468 162.846 193.275C162.761 192.948 162.767 192.583 162.874 192.255C162.934 192.063 162.883 191.856 162.687 191.761Z" fill="#CCB181"/>
<path d="M156.443 139.207C155.968 137.873 155.499 136.539 155.031 135.206C154.869 134.75 154.173 135.029 154.335 135.484C154.81 136.818 155.279 138.152 155.747 139.479C155.909 139.934 156.605 139.655 156.443 139.2L156.443 139.207Z" fill="#CCB181"/>
<path d="M144.116 47.9742C143.855 44.3086 143.854 40.6406 144.1 36.9718C144.134 36.4938 143.392 36.3727 143.359 36.8574C143.106 40.5888 143.108 44.3254 143.371 48.0596C143.406 48.5433 144.151 48.458 144.116 47.9742Z" fill="#CCB181"/>
<path d="M143.969 53.2243L144.47 57.5976C144.525 58.079 145.271 57.9936 145.215 57.5122L144.715 53.139C144.66 52.6576 143.914 52.7429 143.969 53.2243Z" fill="#CCB181"/>
<path d="M153.858 155.02C156.508 161.07 156.907 167.853 154.951 174.163C154.811 174.618 155.492 174.925 155.639 174.469C157.654 167.959 157.288 160.988 154.554 154.741C154.36 154.303 153.663 154.575 153.858 155.02Z" fill="#CCB181"/>
<path d="M147.367 94.2477C146.845 95.0219 147.958 95.6845 148.458 96.0325C149.726 96.9176 150.995 97.8027 152.264 98.6878C152.66 98.9654 153.128 98.376 152.732 98.0984C151.851 97.4849 150.971 96.8713 150.098 96.2637C149.605 95.9217 149.115 95.5932 148.635 95.2428C148.17 94.9045 147.802 94.562 148.68 94.6126C149.744 94.6762 150.391 95.289 151.111 95.9966C151.544 96.421 151.966 96.6886 152.584 96.6248C153.065 96.5697 152.981 95.8306 152.499 95.8789C151.848 95.9535 151.44 95.2102 151.018 94.8257C150.62 94.466 150.156 94.1963 149.644 94.0352C149.03 93.8375 147.816 93.6056 147.375 94.2537L147.367 94.2477Z" fill="#CCB181"/>
<path d="M140.403 30.5466C140.463 30.471 140.523 30.3955 140.577 30.3275C140.877 29.9497 140.288 29.4813 139.988 29.8591C139.928 29.9347 139.875 30.0095 139.814 30.0783C139.514 30.4561 140.096 30.9252 140.396 30.5474L140.403 30.5466Z" fill="#CCB181"/>
<path d="M146.895 84.4797C147.168 84.8812 147.768 84.4278 147.496 84.033C147.167 83.5555 146.065 81.7308 146.642 81.2526C146.918 81.0218 146.998 81.1776 147.197 81.4158C147.316 81.5601 147.404 81.7287 147.518 81.8805C147.712 82.1399 147.918 82.3156 148.191 82.4835C148.603 82.7248 148.902 82.038 148.49 81.7967C147.908 81.4512 147.78 80.6897 147.122 80.4077C146.71 80.2282 146.19 80.2397 145.896 80.6167C145.537 81.0769 145.748 81.7809 145.875 82.2884C146.083 83.0821 146.434 83.8112 146.896 84.4864L146.895 84.4797Z" fill="#CCB181"/>
<path d="M147.795 91.3226C147.295 89.7793 146.869 88.2138 146.529 86.6248C147.8 87.5302 147.646 90.0894 148.716 91.2103C149.044 91.5574 149.651 91.1032 149.317 90.7636C147.951 89.3332 148.46 86.5822 146.462 85.7462C146.339 85.6916 146.211 85.6513 146.069 85.6126C145.843 85.5561 145.596 85.7973 145.643 86.0255C146.024 87.9121 146.511 89.7728 147.105 91.6007C147.254 92.0577 147.95 91.7788 147.801 91.3218L147.795 91.3226Z" fill="#CCB181"/>
<path d="M150.473 102.837C149.302 102.566 147.828 100.612 146.585 101.929C146.126 102.415 146.204 103.099 146.362 103.7C146.652 104.793 147.128 105.831 147.679 106.805C147.912 107.218 148.615 106.945 148.375 106.526C148.056 105.958 147.762 105.373 147.521 104.769C147.398 104.467 147.28 104.158 147.19 103.852C147.108 103.621 147.047 103.381 147.005 103.138C146.884 102.802 147.004 102.589 147.365 102.506C147.826 102.213 148.034 102.285 148.476 102.551C148.719 102.695 148.939 102.876 149.163 103.029C149.542 103.287 149.907 103.472 150.359 103.579C150.831 103.683 150.945 102.941 150.473 102.837Z" fill="#CCB181"/>
<path d="M152.042 147.493C152.096 147.967 152.843 147.889 152.787 147.407C152.09 141.552 151.322 135.63 148.749 130.25C148.542 129.821 147.845 130.093 148.053 130.529C150.606 135.849 151.357 141.691 152.048 147.485L152.042 147.493Z" fill="#CCB181"/>
<path d="M145.709 98.0518C145.297 98.8957 145.65 99.8788 146.445 100.344C146.864 100.585 147.156 99.8987 146.744 99.6574C146.406 99.4626 146.251 99.0749 146.292 98.7063C146.787 98.8968 147.284 99.0941 147.773 99.2855C148.219 99.4611 148.524 98.7735 148.072 98.5986C147.446 98.3543 146.82 98.1031 146.195 97.8587C146.001 97.7848 145.79 97.8639 145.702 98.0526L145.709 98.0518Z" fill="#CCB181"/>
<path d="M138.425 35.3327C138.435 34.7546 138.577 34.1957 138.827 33.6794C139.038 33.2431 138.351 32.9439 138.14 33.3802C137.829 34.0271 137.688 34.7096 137.68 35.4249C137.674 35.9065 138.419 35.8143 138.426 35.3395L138.425 35.3327Z" fill="#CCB181"/>
<path d="M144.251 93.3622C144.221 93.4 144.191 93.4378 144.161 93.4755C143.861 93.8534 144.444 94.3225 144.744 93.9446C144.774 93.9069 144.804 93.8691 144.834 93.8313C145.134 93.4535 144.545 92.9852 144.245 93.363L144.251 93.3622Z" fill="#CCB181"/>
<path d="M154.169 177.048C153.684 177.667 153.358 178.364 153.193 179.138C153.089 179.61 153.83 179.725 153.934 179.253C154.073 178.612 154.35 178.03 154.758 177.516C155.058 177.132 154.469 176.67 154.169 177.048Z" fill="#CCB181"/>
<path d="M142.604 81.9154C143.085 81.8603 142.999 81.1145 142.518 81.1696C142.037 81.2247 142.122 81.9705 142.604 81.9154Z" fill="#CCB181"/>
<path d="M146.775 127.043C146.884 127.216 147.147 127.234 147.298 127.121C147.469 126.991 147.485 126.77 147.376 126.597C147.301 126.482 147.226 126.366 147.151 126.251C147.043 126.085 146.779 126.06 146.627 126.174C146.456 126.303 146.441 126.532 146.55 126.698C146.625 126.813 146.7 126.928 146.775 127.043Z" fill="#CCB181"/>
<path d="M151.249 165.456C151.171 162.614 150.736 159.834 149.948 157.094C149.819 156.628 149.124 156.914 149.252 157.373C150.018 160.046 150.425 162.761 150.503 165.534C150.516 166.014 151.262 165.928 151.248 165.449L151.249 165.456Z" fill="#CCB181"/>
<path d="M141.629 84.67C141.932 86.0572 142.483 87.3335 143.29 88.4983C143.568 88.8923 144.163 88.4464 143.891 88.0516C143.274 87.1606 142.814 86.2035 142.525 85.1787C143.048 85.3662 143.52 85.6487 143.967 86.0165C144.339 86.3243 144.807 85.7349 144.435 85.4271C143.73 84.8484 142.952 84.4704 142.062 84.2563C141.837 84.2065 141.582 84.4418 141.636 84.6692L141.629 84.67Z" fill="#CCB181"/>
<path d="M149.732 153.534C149.559 152.743 149.302 151.996 148.938 151.275C148.724 150.846 148.021 151.126 148.242 151.554C148.571 152.21 148.828 152.895 148.987 153.619C149.088 154.081 149.834 154.003 149.732 153.534Z" fill="#CCB181"/>
<path d="M144.464 90.3574C144.811 90.6954 145.279 90.0992 144.932 89.768C144.037 88.9088 142.791 88.6461 141.609 88.9945C141.496 89.028 141.382 89.1716 141.381 89.2816C141.331 90.3519 141.544 91.3717 142.058 92.3158C142.284 92.7296 142.987 92.4567 142.754 92.0369C142.338 91.2877 142.115 90.482 142.114 89.6304C142.973 89.4565 143.823 89.737 144.463 90.3506L144.464 90.3574Z" fill="#CCB181"/>
<path d="M141.734 95.5467C142.037 96.9339 142.589 98.2103 143.395 99.375C143.667 99.7698 144.268 99.3231 143.996 98.9284C143.38 98.0441 142.919 97.0802 142.623 96.0562C143.146 96.2437 143.625 96.5255 144.072 96.8933C144.444 97.201 144.912 96.6116 144.54 96.3039C143.835 95.7251 143.057 95.3471 142.161 95.1338C141.942 95.0833 141.681 95.3193 141.734 95.5467Z" fill="#CCB181"/>
<path d="M145.767 107.325C145.185 106.98 145.057 106.218 144.4 105.936C143.988 105.757 143.467 105.768 143.174 106.145C142.808 106.606 143.019 107.31 143.152 107.817C143.361 108.618 143.711 109.34 144.173 110.015C144.446 110.417 145.046 109.963 144.774 109.569C144.445 109.091 143.343 107.266 143.92 106.788C144.196 106.557 144.276 106.713 144.468 106.952C144.588 107.096 144.676 107.265 144.789 107.417C144.984 107.676 145.189 107.852 145.462 108.02C145.881 108.26 146.174 107.574 145.761 107.333L145.767 107.325Z" fill="#CCB181"/>
<path d="M145.516 124.686C145.692 125.14 146.388 124.861 146.212 124.407C145.525 122.603 144.542 120.971 143.276 119.516C142.96 119.153 142.359 119.6 142.675 119.962C143.908 121.374 144.85 122.942 145.516 124.686Z" fill="#CCB181"/>
<path d="M160.262 197.88C156.632 197.718 153.715 195.517 150.974 193.345C150.596 193.044 150.128 193.634 150.505 193.934C153.344 196.178 156.394 198.46 160.148 198.621C160.624 198.642 160.745 197.9 160.262 197.88Z" fill="#CCB181"/>
<path d="M139.989 87.2009C139.508 87.256 139.593 88.0018 140.074 87.9467C140.556 87.8916 140.47 87.1458 139.989 87.2009Z" fill="#CCB181"/>
<path d="M138.848 85.5124C139.023 85.9662 139.719 85.6873 139.544 85.2335C139.377 84.7924 138.791 83.2795 139.487 83.0556C140.182 82.8317 140.656 83.6705 140.925 84.1617C141.158 84.5747 141.854 84.3026 141.621 83.8828C141.144 83.017 140.355 81.9396 139.201 82.3602C137.936 82.8279 138.497 84.6046 138.841 85.5131L138.848 85.5124Z" fill="#CCB181"/>
<path d="M140.052 72.5759C134.904 61.5015 134.046 48.727 137.718 37.0755C137.865 36.619 137.178 36.313 137.031 36.7763C133.299 48.6202 134.118 61.5915 139.357 72.8616C139.558 73.2988 140.254 73.0199 140.053 72.5827L140.052 72.5759Z" fill="#CCB181"/>
<path d="M138.175 93.7968C137.825 94.4551 138.149 95.2492 138.414 95.8851C138.688 96.5339 139.059 97.0753 139.699 97.3935C140.13 97.6121 140.435 96.9177 139.998 96.7066C139.35 96.3825 138.693 95.1388 138.802 94.412C139.008 93.0901 140.631 94.0721 141.225 94.5193C141.608 94.8119 142.076 94.2225 141.686 93.9306C140.739 93.2148 138.948 92.3276 138.168 93.7976L138.175 93.7968Z" fill="#CCB181"/>
<path d="M142.712 100.374C141.542 100.109 140.068 98.1487 138.824 99.4657C138.365 99.951 138.443 100.636 138.601 101.236C138.884 102.33 139.367 103.367 139.919 104.348C140.152 104.761 140.848 104.489 140.615 104.069C140.296 103.501 140.002 102.917 139.761 102.312C139.638 102.01 139.527 101.707 139.43 101.395C139.348 101.164 139.287 100.924 139.245 100.681C139.124 100.345 139.244 100.132 139.605 100.049C140.066 99.7562 140.274 99.8287 140.716 100.094C140.959 100.238 141.179 100.419 141.409 100.571C141.789 100.83 142.154 101.015 142.605 101.121C143.078 101.232 143.185 100.484 142.72 100.38L142.712 100.374Z" fill="#CCB181"/>
<path d="M142.277 113.256C141.652 113.011 141.02 112.768 140.394 112.523C140.2 112.443 139.997 112.528 139.902 112.717C139.49 113.561 139.85 114.543 140.638 115.01C141.057 115.25 141.356 114.563 140.937 114.323C140.599 114.128 140.444 113.74 140.491 113.371C140.987 113.561 141.477 113.759 141.972 113.95C142.425 114.125 142.724 113.438 142.278 113.262L142.277 113.256Z" fill="#CCB181"/>
<path d="M135.731 73.3447C136.084 73.6752 136.553 73.0858 136.199 72.7554C135.838 72.4257 135.59 71.9939 135.48 71.512C135.379 71.0495 134.632 71.1281 134.734 71.5973C134.888 72.2804 135.215 72.8611 135.737 73.3372L135.731 73.3447Z" fill="#CCB181"/>
<path d="M136.574 82.6817C136.993 82.9222 137.292 82.2354 136.873 81.9948C136.534 81.8 136.38 81.4124 136.427 81.0429C136.923 81.2335 137.412 81.4316 137.908 81.6221C138.354 81.7978 138.66 81.1102 138.207 80.9353C137.582 80.6909 136.95 80.4473 136.324 80.203C136.129 80.1222 135.926 80.2073 135.831 80.3968C135.42 81.2407 135.779 82.223 136.568 82.6892L136.574 82.6817Z" fill="#CCB181"/>
<path d="M137.148 103.593C137.084 103.635 137.027 103.676 136.963 103.717C136.79 103.826 136.772 104.089 136.885 104.241C137.015 104.412 137.236 104.428 137.409 104.319C137.473 104.277 137.53 104.236 137.594 104.194C137.767 104.085 137.785 103.822 137.672 103.67C137.542 103.5 137.321 103.484 137.148 103.593Z" fill="#CCB181"/>
<path d="M137.115 92.2088C137.348 92.6286 138.044 92.3497 137.811 91.9299C137.334 91.064 136.544 89.9867 135.397 90.4065C134.126 90.8749 134.686 92.6517 135.037 93.5594C135.212 94.0065 135.908 93.7276 135.733 93.2806C135.559 92.8402 134.981 91.3266 135.676 91.1027C136.372 90.8788 136.846 91.7176 137.115 92.2088Z" fill="#CCB181"/>
<path d="M137.409 108.092C138.388 108.124 139.27 108.517 139.981 109.205C140.329 109.543 140.797 108.954 140.45 108.623C139.508 107.714 138.27 107.279 136.974 107.351C136.755 107.363 136.642 107.575 136.644 107.767C136.655 109.064 137.18 110.233 138.108 111.144C138.449 111.483 138.918 110.893 138.57 110.555C137.881 109.878 137.495 109.03 137.409 108.092Z" fill="#CCB181"/>
<path d="M136.518 86.0317C135.969 85.6755 135.197 85.1113 134.507 85.3209C132.921 85.8047 134.388 88.2469 134.748 89.0439C134.949 89.4811 135.645 89.2022 135.444 88.765C135.213 88.2555 134.963 87.7484 134.746 87.2306C134.678 87.0597 134.546 86.8069 134.558 86.6132C134.59 86.1082 135.001 86.0405 135.387 86.2299C136.393 86.7398 137.273 87.4702 138.016 88.3193C138.332 88.6816 138.933 88.2349 138.616 87.8659C138 87.1603 137.304 86.5393 136.517 86.0249L136.518 86.0317Z" fill="#CCB181"/>
<path d="M130.026 58.2488C130.486 61.8437 131.366 65.3354 132.68 68.7157C132.855 69.1628 133.551 68.8839 133.376 68.4368C132.083 65.1228 131.217 61.6981 130.772 58.1702C130.717 57.6888 129.965 57.775 130.027 58.2556L130.026 58.2488Z" fill="#CCB181"/>
<path d="M129.486 55.2119C129.659 55.2882 129.912 55.2112 129.979 55.0181C130.031 54.8747 130.077 54.7389 130.13 54.5955C130.198 54.4091 130.131 54.19 129.936 54.1025C129.755 54.027 129.51 54.1032 129.443 54.2963C129.391 54.4397 129.338 54.5763 129.292 54.7189C129.224 54.9052 129.29 55.1243 129.486 55.2119Z" fill="#CCB181"/>
<path d="M135.379 102.236C135.825 102.412 136.131 101.724 135.685 101.549C135.059 101.304 134.427 101.061 133.802 100.816C133.607 100.735 133.404 100.821 133.309 101.01C132.897 101.854 133.257 102.836 134.045 103.302C134.464 103.543 134.763 102.856 134.344 102.616C134.006 102.421 133.852 102.033 133.899 101.664C134.394 101.854 134.884 102.052 135.38 102.243L135.379 102.236Z" fill="#CCB181"/>
<path d="M133.832 95.2763C133.42 95.0967 132.9 95.1083 132.607 95.4853C132.24 95.9395 132.451 96.6502 132.585 97.157C132.793 97.9506 133.144 98.6798 133.606 99.355C133.878 99.7498 134.479 99.3031 134.207 98.9084C133.878 98.4309 132.776 96.6062 133.353 96.128C133.629 95.8972 133.708 96.0529 133.901 96.292C134.02 96.4363 134.108 96.6048 134.222 96.7567C134.416 97.016 134.622 97.1985 134.895 97.3596C135.308 97.6077 135.606 96.9141 135.194 96.6728C134.613 96.3341 134.484 95.5658 133.826 95.2838L133.832 95.2763Z" fill="#CCB181"/>
<path d="M130.79 76.0141C131.168 76.3143 131.636 75.7249 131.259 75.4247C130.669 74.9563 130.255 74.3375 130.101 73.5926C129.999 73.1234 129.254 73.2088 129.355 73.678C129.558 74.6096 130.042 75.4129 130.797 76.0133L130.79 76.0141Z" fill="#CCB181"/>
<path d="M134.384 114.852C133.983 115.426 134.279 116.567 134.431 117.175C134.661 118.11 135.108 118.952 135.71 119.707C136.007 120.085 136.607 119.632 136.31 119.254C135.59 118.361 134.945 117.109 134.995 115.922C134.99 115.819 134.986 115.724 134.988 115.627C135.049 115.318 135.166 115.263 135.341 115.47C135.567 115.52 135.82 115.814 136.001 115.958C136.524 116.386 137.01 116.852 137.465 117.349C137.788 117.704 138.396 117.257 138.067 116.903C137.54 116.324 135.245 113.613 134.391 114.851L134.384 114.852Z" fill="#CCB181"/>
<path d="M131.195 86.2701C131.009 86.264 130.773 86.3665 130.764 86.5873C130.713 87.8778 131.041 89.0629 131.748 90.1428C132.014 90.5451 132.614 90.0917 132.349 89.6962C131.825 88.8975 131.538 88.0099 131.506 87.0657C132.024 87.1575 132.475 87.3738 132.887 87.7387C133.246 88.0548 133.715 87.4654 133.349 87.1501C132.738 86.6155 132.003 86.3082 131.188 86.2709L131.195 86.2701Z" fill="#CCB181"/>
<path d="M135.07 112.863C134.741 112.386 133.639 110.561 134.216 110.083C134.492 109.852 134.572 110.008 134.771 110.246C134.89 110.391 134.978 110.559 135.092 110.711C135.286 110.97 135.492 111.146 135.764 111.307C136.177 111.555 136.476 110.862 136.063 110.62C135.481 110.275 135.353 109.513 134.696 109.231C134.284 109.052 133.763 109.063 133.47 109.44C133.104 109.901 133.315 110.605 133.448 111.112C133.656 111.906 134.007 112.635 134.469 113.31C134.742 113.712 135.342 113.258 135.07 112.863Z" fill="#CCB181"/>
<path d="M130.75 90.1217C130.715 90.2424 130.674 90.3571 130.639 90.4778C130.391 91.3099 130.186 92.1577 130.051 93.0181C129.964 93.5776 129.684 94.4271 130.27 94.8133C130.418 94.9062 130.585 94.9215 130.724 94.8163C130.756 94.7921 130.788 94.7746 130.82 94.7572C131.12 94.5512 130.937 94.1599 130.663 94.1021C130.57 93.7074 130.879 92.628 130.927 92.3889C131.02 91.9454 131.127 91.5004 131.249 91.0674C131.738 91.7328 132.096 92.4679 132.34 93.2713C132.481 93.729 133.177 93.4501 133.036 92.9924C132.703 91.8901 132.159 90.9152 131.401 90.054C131.236 89.8669 130.854 89.835 130.757 90.1277L130.75 90.1217Z" fill="#CCB181"/>
<path d="M133.543 121.234L133.555 121.336C133.61 121.817 134.356 121.732 134.301 121.25L134.289 121.149C134.234 120.667 133.488 120.753 133.543 121.234Z" fill="#CCB181"/>
<path d="M129.564 81.8011C130.688 83.2248 131.894 84.5774 133.175 85.8664C133.515 86.2051 133.977 85.6165 133.636 85.2778C132.502 84.1299 131.431 82.9337 130.422 81.6822C131.978 81.9574 132.916 84.268 134.438 84.7875C134.895 84.9412 135.201 84.2536 134.744 84.0999C132.815 83.4416 132.036 80.419 129.618 80.95C129.349 81.0082 129.17 81.3035 129.363 81.5493C129.428 81.638 129.5 81.7191 129.571 81.8071L129.564 81.8011Z" fill="#CCB181"/>
<path d="M133.197 107.178C132.332 105.8 131.538 104.387 130.808 102.932C132.261 103.501 132.743 106.035 134.059 106.853C134.465 107.102 134.934 106.519 134.527 106.263C132.835 105.221 132.68 102.422 130.528 102.098C130.395 102.079 130.256 102.068 130.112 102.07C129.879 102.07 129.716 102.384 129.807 102.579C130.637 104.318 131.565 105.998 132.589 107.626C132.849 108.036 133.442 107.583 133.19 107.179L133.197 107.178Z" fill="#CCB181"/>
<path d="M127.786 85.5277C128.058 85.9225 128.659 85.4759 128.387 85.0743C128.057 84.5968 126.956 82.7721 127.533 82.2939C127.809 82.0631 127.888 82.2189 128.087 82.4571C128.207 82.6014 128.295 82.77 128.401 82.9226C128.596 83.182 128.802 83.3644 129.075 83.5256C129.495 83.7729 129.786 83.0801 129.374 82.8388C128.793 82.5 128.663 81.7317 128.006 81.4498C127.595 81.277 127.074 81.2818 126.78 81.6588C126.414 82.1198 126.632 82.8229 126.759 83.3305C126.966 84.1241 127.318 84.8533 127.78 85.5285L127.786 85.5277Z" fill="#CCB181"/>
<path d="M133.067 116.955C132.541 116.376 130.246 113.664 129.391 114.896C128.99 115.47 129.285 116.611 129.437 117.219C129.668 118.154 130.115 118.996 130.716 119.752C131.013 120.13 131.615 119.683 131.317 119.305C130.596 118.405 129.952 117.16 130.002 115.973C129.997 115.87 129.993 115.775 129.995 115.671C130.056 115.362 130.174 115.314 130.348 115.514C130.573 115.564 130.827 115.858 131.009 116.009C131.531 116.437 132.017 116.903 132.473 117.4C132.795 117.755 133.403 117.308 133.074 116.954L133.067 116.955Z" fill="#CCB181"/>
<path d="M120.904 40.6501C121.061 37.7609 121.357 34.89 121.792 32.0307C121.867 31.5481 121.126 31.4338 121.051 31.9164C120.616 34.7756 120.314 37.6541 120.163 40.5425C120.136 41.0197 120.878 41.1408 120.905 40.6569L120.904 40.6501Z" fill="#CCB181"/>
<path d="M125.918 88.9413C126.299 90.8279 126.787 92.6886 127.381 94.5165C127.529 94.9734 128.225 94.6945 128.077 94.2376C127.576 92.6875 127.15 91.122 126.81 89.533C128.081 90.4384 127.928 93.0043 128.998 94.1252C129.325 94.4656 129.933 94.0181 129.599 93.6786C128.233 92.2482 128.742 89.4972 126.744 88.6612C126.621 88.6066 126.493 88.5663 126.351 88.5276C126.125 88.4711 125.879 88.7191 125.925 88.9405L125.918 88.9413Z" fill="#CCB181"/>
<path d="M120.984 51.906L121.054 52.5162C121.109 52.9976 121.854 52.9122 121.799 52.4308L121.729 51.8206C121.674 51.3392 120.929 51.4246 120.984 51.906Z" fill="#CCB181"/>
<path d="M135.323 174.267C135.128 173.829 134.431 174.101 134.626 174.546C134.804 174.959 134.989 175.37 135.166 175.783C135.361 176.221 136.057 175.948 135.862 175.504C135.685 175.091 135.5 174.68 135.323 174.267Z" fill="#CCB181"/>
<path d="M121.268 49.5929C121.002 47.6931 120.859 45.7793 120.845 43.8576C120.838 43.3775 120.099 43.4621 120.099 43.9429C120.113 45.8647 120.25 47.7793 120.522 49.6783C120.591 50.1582 121.337 50.0728 121.268 49.5929Z" fill="#CCB181"/>
<path d="M128.646 106.056C129.254 106.213 129.837 106.442 130.397 106.721C130.834 106.932 131.133 106.246 130.703 106.034C129.823 105.606 128.586 105.053 127.573 105.142C126.804 105.209 126.424 105.789 126.747 106.507C127.203 107.492 129.472 110.633 130.749 109.188C131.064 108.823 130.475 108.361 130.159 108.72C129.63 109.316 127.851 106.91 127.632 106.557C127.114 105.696 128.136 105.922 128.645 106.05L128.646 106.056Z" fill="#CCB181"/>
<path d="M127.575 111.037C128.036 110.744 128.244 110.816 128.686 111.081C128.929 111.225 129.149 111.406 129.372 111.559C129.752 111.818 130.117 112.003 130.569 112.109C131.041 112.22 131.155 111.472 130.683 111.368C129.513 111.103 128.038 109.143 126.795 110.46C126.335 110.945 126.414 111.63 126.572 112.23C126.862 113.323 127.338 114.361 127.89 115.342C128.122 115.755 128.826 115.482 128.586 115.063C128.266 114.495 127.98 113.91 127.732 113.306C127.608 113.004 127.491 112.702 127.4 112.389C127.326 112.158 127.257 111.918 127.216 111.676C127.095 111.339 127.215 111.126 127.576 111.044L127.575 111.037Z" fill="#CCB181"/>
<path d="M127.813 119.293C127.627 119.287 127.391 119.39 127.382 119.611C127.331 120.901 127.652 122.087 128.366 123.166C128.632 123.568 129.233 123.115 128.967 122.72C128.443 121.921 128.156 121.033 128.124 120.089C128.636 120.182 129.093 120.397 129.506 120.762C129.865 121.078 130.334 120.495 129.967 120.173C129.356 119.639 128.621 119.331 127.806 119.294L127.813 119.293Z" fill="#CCB181"/>
<path d="M134.554 172.108C133.751 170.551 133.24 168.913 133.027 167.172C132.972 166.691 132.22 166.777 132.282 167.258C132.509 169.066 133.027 170.772 133.858 172.387C134.078 172.815 134.774 172.536 134.554 172.108Z" fill="#CCB181"/>
<path d="M125.151 88.3091C124.622 87.827 124.239 87.2389 124.013 86.5847C124.63 86.9331 125.265 87.2589 125.898 87.5711C126.334 87.7821 126.633 87.0953 126.197 86.8843C125.316 86.4493 124.446 85.9857 123.593 85.4926C123.343 85.3495 123.03 85.612 123.067 85.8757C123.243 87.0576 123.794 88.0867 124.682 88.8849C125.042 89.2146 125.503 88.6192 125.144 88.3031L125.151 88.3091Z" fill="#CCB181"/>
<path d="M129.572 98.9039C130.038 99.0222 130.152 98.2742 129.686 98.1627C128.378 97.8384 126.978 97.305 125.64 97.1971C125.037 97.1494 124.436 97.2938 124.239 97.9139C124.182 98.0784 124.214 98.2396 124.351 98.3544C126.088 99.8522 128.21 100.688 130.498 100.756C130.973 100.77 131.094 100.028 130.612 100.014C128.571 99.9458 126.71 99.2797 125.13 98.018C125.979 97.6941 129.04 98.7587 129.57 98.8904L129.572 98.9039Z" fill="#CCB181"/>
<path d="M116.252 28.0288C116.409 27.6605 116.566 27.2922 116.716 26.9247C116.905 26.4771 116.219 26.1779 116.03 26.6255C115.873 26.9938 115.723 27.3613 115.566 27.7296C115.376 28.1771 116.063 28.4763 116.252 28.0288Z" fill="#CCB181"/>
<path d="M126.117 105.922C125.798 105.354 125.505 104.769 125.264 104.165C125.14 103.863 125.029 103.553 124.932 103.248C124.851 103.017 124.789 102.776 124.747 102.534C124.627 102.197 124.746 101.984 125.108 101.902C125.569 101.609 125.776 101.681 126.218 101.946C126.462 102.09 126.681 102.271 126.913 102.43C127.292 102.689 127.657 102.874 128.109 102.98C128.581 103.084 128.688 102.344 128.223 102.239C127.053 101.975 125.578 100.014 124.335 101.331C123.876 101.816 123.954 102.501 124.111 103.094C124.401 104.188 124.877 105.225 125.429 106.206C125.662 106.619 126.358 106.347 126.125 105.928L126.117 105.922Z" fill="#CCB181"/>
<path d="M122.265 90.3294C122.216 91.3997 122.429 92.4195 122.942 93.3636C123.176 93.7834 123.872 93.5045 123.638 93.0847C123.23 92.3347 123 91.5298 122.999 90.6782C123.858 90.5042 124.714 90.784 125.347 91.3984C125.695 91.7364 126.156 91.1478 125.809 90.8098C124.914 89.9506 123.668 89.6879 122.486 90.0363C122.373 90.0698 122.265 90.2126 122.258 90.3302L122.265 90.3294Z" fill="#CCB181"/>
<path d="M121.945 86.0951C122.427 86.04 122.341 85.2942 121.86 85.3493C121.379 85.4044 121.464 86.1502 121.945 86.0951Z" fill="#CCB181"/>
<path d="M115.93 31.817L115.907 31.6136C115.852 31.1322 115.106 31.2175 115.161 31.6989L115.185 31.9023C115.24 32.3837 115.985 32.2984 115.93 31.817Z" fill="#CCB181"/>
<path d="M123.966 119.811C123.843 119.763 123.714 119.716 123.573 119.684C123.347 119.628 123.093 119.87 123.14 120.098C123.521 121.984 124.008 123.845 124.602 125.673C124.751 126.13 125.447 125.851 125.298 125.394C124.799 123.851 124.372 122.285 124.033 120.696C125.304 121.602 125.15 124.161 126.219 125.282C126.548 125.629 127.156 125.181 126.821 124.835C125.456 123.411 125.964 120.654 123.966 119.818L123.966 119.811Z" fill="#CCB181"/>
<path d="M125.998 115.861C125.417 115.522 125.287 114.754 124.63 114.472C124.218 114.292 123.698 114.304 123.404 114.681C123.038 115.142 123.249 115.846 123.383 116.352C123.59 117.146 123.942 117.875 124.404 118.55C124.675 118.945 125.277 118.498 125.004 118.097C124.675 117.619 123.573 115.795 124.15 115.317C124.426 115.086 124.506 115.241 124.698 115.48C124.817 115.625 124.905 115.793 125.019 115.945C125.213 116.205 125.42 116.387 125.692 116.548C126.105 116.796 126.403 116.103 125.991 115.861L125.998 115.861Z" fill="#CCB181"/>
<path d="M124.208 74.8443C115.215 63.4751 111.886 48.1945 115.314 34.1118C115.425 33.6457 114.684 33.5313 114.573 33.9975C111.104 48.2635 114.501 63.7834 123.607 75.2977C123.905 75.6758 124.506 75.2292 124.208 74.8511L124.208 74.8443Z" fill="#CCB181"/>
<path d="M120.69 90.0639C121.171 90.0088 121.085 89.2629 120.604 89.318C120.123 89.3732 120.208 90.119 120.69 90.0639Z" fill="#CCB181"/>
<path d="M119.031 78.1024C118.843 77.6568 118.147 77.9357 118.335 78.3813C118.468 78.7026 118.608 79.0232 118.741 79.3446C118.929 79.7901 119.625 79.5112 119.437 79.0657C119.304 78.7443 119.164 78.4237 119.031 78.1024Z" fill="#CCB181"/>
<path d="M124.54 107.145C123.835 106.56 123.057 106.182 122.168 105.975C121.998 105.932 121.807 106.064 121.75 106.222C121.728 106.272 121.721 106.328 121.734 106.381C121.89 107.085 122.104 107.754 122.383 108.395C122.654 109.024 122.998 109.63 123.394 110.21C123.666 110.605 124.267 110.158 123.995 109.763C123.379 108.879 122.919 107.915 122.622 106.884C123.145 107.072 123.623 107.353 124.071 107.721C124.442 108.029 124.911 107.446 124.54 107.139L124.54 107.145Z" fill="#CCB181"/>
<path d="M120.959 99.1331C121.135 99.587 121.831 99.3081 121.655 98.8542C121.481 98.4139 120.902 96.9003 121.598 96.6764C122.293 96.4525 122.767 97.2913 123.036 97.7825C123.27 98.2023 123.966 97.9234 123.732 97.5036C123.255 96.6377 122.466 95.5604 121.312 95.981C120.047 96.4486 120.601 98.2262 120.952 99.1339L120.959 99.1331Z" fill="#CCB181"/>
<path d="M122.7 112.185C123.175 112.131 123.096 111.384 122.615 111.439C122.134 111.494 122.219 112.24 122.7 112.185Z" fill="#CCB181"/>
<path d="M118.343 93.8631C118.551 94.6567 118.902 95.3859 119.364 96.0611C119.636 96.4627 120.237 96.0092 119.965 95.6145C119.636 95.137 118.534 93.3123 119.111 92.8341C119.387 92.6033 119.466 92.759 119.665 92.9973C119.785 93.1416 119.873 93.3101 119.986 93.462C120.181 93.7213 120.387 93.897 120.66 94.0649C121.072 94.3062 121.371 93.6194 120.959 93.3781C120.377 93.0326 120.248 92.2711 119.591 91.9892C119.179 91.8096 118.659 91.8212 118.365 92.1982C117.999 92.6591 118.21 93.3631 118.344 93.8699L118.343 93.8631Z" fill="#CCB181"/>
<path d="M120.145 102.036C119.959 102.03 119.723 102.133 119.714 102.347C119.709 102.423 119.71 102.498 119.711 102.567C119.222 101.771 118.483 100.956 117.462 101.334C116.196 101.795 116.75 103.572 117.102 104.487C117.121 104.533 117.139 104.572 117.17 104.603C117.401 104.885 117.954 104.616 117.798 104.208C117.624 103.767 117.045 102.254 117.741 102.03C118.435 101.799 118.91 102.645 119.179 103.136C119.308 103.362 119.572 103.386 119.745 103.284C119.852 104.22 120.158 105.092 120.697 105.902C120.781 106.03 120.895 106.072 121.011 106.059C121.255 106.031 121.481 105.73 121.299 105.456C120.775 104.664 120.488 103.769 120.455 102.825C120.967 102.918 121.425 103.14 121.837 103.498C122.203 103.82 122.664 103.225 122.305 102.909C121.694 102.374 120.96 102.074 120.145 102.036Z" fill="#CCB181"/>
<path d="M119.835 115.467C120.028 115.294 120.067 115.399 120.284 115.491C120.537 115.606 120.775 115.703 121.052 115.726C121.532 115.774 121.646 115.033 121.167 114.985C120.479 114.912 119.283 113.95 118.984 115.173C118.848 115.724 119.085 116.418 119.256 116.948C119.5 117.703 119.889 118.401 120.367 119.033C120.658 119.419 121.259 118.972 120.968 118.586C120.385 117.815 119.963 116.95 119.785 115.995C119.747 115.779 119.667 115.623 119.842 115.473L119.835 115.467Z" fill="#CCB181"/>
<path d="M121.634 108.514C120.762 107.673 119.543 107.401 118.391 107.718C118.364 107.721 118.344 107.73 118.318 107.74C118.205 107.774 118.091 107.917 118.091 108.034C118.035 109.105 118.254 110.124 118.768 111.068C119.001 111.488 119.697 111.209 119.464 110.789C119.055 110.039 118.826 109.234 118.824 108.383C119.683 108.209 120.539 108.489 121.18 109.102C121.473 109.385 121.842 109.013 121.75 108.687C121.736 108.626 121.695 108.569 121.641 108.514L121.634 108.514Z" fill="#CCB181"/>
<path d="M112.695 61.3251L112.602 60.5114C112.548 60.0368 111.801 60.1154 111.856 60.5968L111.95 61.4104C112.005 61.8918 112.75 61.8065 112.695 61.3251Z" fill="#CCB181"/>
<path d="M119.118 123.065C119.006 123.098 118.891 123.242 118.891 123.359C118.842 124.429 119.055 125.449 119.568 126.393C119.795 126.813 120.498 126.534 120.264 126.114C119.856 125.364 119.626 124.559 119.625 123.707C120.484 123.534 121.333 123.814 121.973 124.428C122.321 124.766 122.789 124.176 122.441 123.838C121.547 122.979 120.301 122.716 119.118 123.065Z" fill="#CCB181"/>
<path d="M116.285 75.5854C116.526 76.0044 117.126 75.551 116.887 75.1388C116.014 73.6381 115.188 72.1185 114.413 70.5655C113.655 69.0449 112.76 67.4645 112.896 65.711C112.937 65.2323 112.195 65.1112 112.154 65.5967C112.018 67.3433 112.721 68.8083 113.475 70.3501C114.352 72.1318 115.293 73.8719 116.292 75.5847L116.285 75.5854Z" fill="#CCB181"/>
<path d="M121.597 145.916C121.72 145.971 121.87 145.96 121.97 145.873C122.014 145.841 122.065 145.801 122.108 145.761C122.385 145.544 122.21 145.152 121.956 145.092C121.99 145.026 121.992 144.923 121.969 144.781C122.016 144.536 122.063 144.29 122.11 144.037C122.177 143.665 122.252 143.3 122.334 142.933C122.51 142.075 122.708 141.221 122.919 140.366C123.03 139.9 122.289 139.785 122.178 140.251C121.864 141.531 121.578 142.813 121.335 144.105C121.214 144.73 120.859 145.588 121.603 145.909L121.597 145.916Z" fill="#CCB181"/>
<path d="M116.253 105.842C116.747 106.5 117.272 107.065 118.038 107.396C118.139 107.439 118.228 107.436 118.3 107.407C118.577 107.307 118.683 106.855 118.337 106.709C117.521 106.356 116.958 105.583 116.394 104.85C115.709 103.974 115.011 103.147 113.818 103.167C113.708 103.166 113.592 103.172 113.471 103.193C113.172 103.227 113.051 103.55 113.216 103.792C113.764 104.616 114.337 105.422 114.929 106.213C114.414 105.675 113.851 105.196 113.214 104.789C112.665 104.432 111.9 103.867 111.203 104.078C109.61 104.562 111.084 107.004 111.444 107.801C111.645 108.238 112.341 107.959 112.14 107.522C111.91 107.012 111.652 106.506 111.443 105.994C111.375 105.823 111.243 105.571 111.255 105.377C111.293 104.871 111.698 104.804 112.084 105C113.09 105.51 113.971 106.241 114.719 107.082C114.98 107.375 115.426 107.132 115.406 106.839C115.8 107.343 116.2 107.84 116.613 108.329C116.923 108.692 117.531 108.251 117.214 107.882C116.158 106.636 115.172 105.341 114.242 103.991C115.12 104.227 115.707 105.149 116.242 105.864L116.253 105.842Z" fill="#CCB181"/>
<path d="M115.082 96.2627C114.681 96.8375 114.976 97.9783 115.128 98.586C115.359 99.5213 115.805 100.363 116.407 101.119C116.711 101.496 117.312 101.042 117.007 100.665C116.294 99.7714 115.649 98.5195 115.692 97.3331C115.68 97.2314 115.683 97.1349 115.686 97.0385C115.747 96.7293 115.857 96.6754 116.032 96.8821C116.257 96.9318 116.517 97.2249 116.693 97.3765C117.222 97.8036 117.702 98.2708 118.157 98.7682C118.479 99.1229 119.08 98.6762 118.758 98.3216C118.232 97.743 115.937 95.0314 115.083 96.2695L115.082 96.2627Z" fill="#CCB181"/>
<path d="M114.317 88.8026C113.857 89.288 113.936 89.9728 114.094 90.5729C114.384 91.6663 114.859 92.704 115.411 93.6849C115.644 94.0979 116.341 93.8258 116.107 93.406C115.788 92.8381 115.495 92.2535 115.254 91.6491C115.13 91.3473 115.02 91.0439 114.922 90.7322C114.841 90.5011 114.779 90.2609 114.738 90.0252C114.617 89.6887 114.737 89.4758 115.098 89.3864C115.559 89.0932 115.767 89.1724 116.208 89.431C116.452 89.5749 116.671 89.7558 116.902 89.9148C117.282 90.1735 117.647 90.3585 118.098 90.458C118.571 90.5687 118.678 89.8283 118.212 89.7167C117.042 89.4523 115.568 87.4917 114.324 88.8086L114.317 88.8026Z" fill="#CCB181"/>
<path d="M113.088 84.724C112.891 85.1656 113.571 85.4655 113.774 85.0232C113.993 84.5379 113.839 83.9099 113.373 83.6197C113.203 83.5155 112.983 83.5065 112.845 83.6803C112.731 83.8238 112.734 84.0982 112.904 84.2024C113.089 84.3186 113.18 84.5074 113.087 84.7172L113.088 84.724Z" fill="#CCB181"/>
<path d="M120.625 151.392C120.772 150.4 120.998 149.433 121.308 148.484C121.455 148.027 120.768 147.721 120.621 148.184C120.291 149.198 120.045 150.229 119.884 151.284C119.808 151.76 120.55 151.874 120.626 151.399L120.625 151.392Z" fill="#CCB181"/>
<path d="M117.606 127.31L117.505 127.322C117.023 127.377 117.109 128.123 117.59 128.068L117.692 128.056C118.173 128.001 118.087 127.255 117.606 127.31Z" fill="#CCB181"/>
<path d="M114.015 97.1463C114.357 97.011 114.548 96.8242 114.718 96.5094C114.924 96.1424 114.432 95.869 114.147 96.0734C114.127 95.7871 114.149 95.4961 114.212 95.2072C114.295 94.8542 114.443 94.5214 114.879 94.6157C115.139 94.6683 115.378 94.9501 115.536 95.138C115.99 95.6769 116.338 96.2003 117.07 96.3569C117.542 96.4608 117.656 95.7128 117.184 95.6157C116.515 95.4656 116.24 94.6865 115.754 94.2751C115.397 93.9794 114.917 93.7458 114.441 93.8484C113.248 94.1018 113.309 95.9563 113.507 96.8472C113.561 97.0814 113.773 97.2496 114.016 97.153L114.015 97.1463Z" fill="#CCB181"/>
<path d="M131.663 131.327C131.556 130.865 130.809 130.944 130.918 131.412C132.785 139.146 131.22 146.586 127.338 153.412C125.555 156.549 123.86 159.621 122.923 163.136C121.954 166.784 121.631 170.558 121.304 174.305C121.263 174.784 122.005 174.905 122.045 174.419C122.375 170.583 122.709 166.718 123.731 162.995C124.798 159.116 126.905 155.804 128.805 152.303C132.303 145.851 133.389 138.479 131.656 131.321L131.663 131.327Z" fill="#CCB181"/>
<path d="M111.647 82.6506C111.952 83.0279 112.552 82.5745 112.249 82.204C111.768 81.6064 111.4 80.9685 111.126 80.258C110.951 79.8041 110.255 80.083 110.43 80.5369C110.725 81.3069 111.128 82.0163 111.647 82.6506Z" fill="#CCB181"/>
<path d="M113.312 101.569C113.342 101.531 113.372 101.493 113.402 101.456C113.702 101.078 113.113 100.609 112.813 100.987C112.783 101.025 112.753 101.063 112.723 101.101C112.423 101.478 113.005 101.947 113.305 101.57L113.312 101.569Z" fill="#CCB181"/>
<path d="M115.462 116.744C114.196 117.205 114.75 118.982 115.102 119.897C115.277 120.344 115.973 120.065 115.798 119.618C115.624 119.177 115.046 117.664 115.741 117.44C116.436 117.209 116.91 118.055 117.179 118.546C117.412 118.959 118.109 118.687 117.875 118.267C117.398 117.401 116.609 116.324 115.456 116.751L115.462 116.744Z" fill="#CCB181"/>
<path d="M117.417 111.863C116.47 111.148 114.679 110.26 113.9 111.73C113.549 112.389 113.874 113.183 114.139 113.819C114.412 114.467 114.783 115.009 115.424 115.327C115.854 115.546 116.16 114.858 115.723 114.64C115.075 114.316 114.417 113.072 114.526 112.346C114.725 111.025 116.355 112.006 116.949 112.453C117.333 112.746 117.801 112.156 117.411 111.864L117.417 111.863Z" fill="#CCB181"/>
<path d="M120.766 177.644C120.776 178.996 120.534 180.301 120.061 181.564C119.886 182.017 120.574 182.323 120.748 181.87C121.276 180.477 121.524 179.047 121.511 177.558C121.505 177.078 120.76 177.17 120.766 177.644Z" fill="#CCB181"/>
<path d="M113.917 121.783C113.515 122.358 113.811 123.499 113.963 124.106C114.194 125.042 114.64 125.884 115.242 126.639C115.539 127.017 116.14 126.564 115.842 126.186C115.122 125.293 114.477 124.041 114.527 122.854C114.522 122.751 114.518 122.655 114.521 122.559C114.581 122.25 114.699 122.195 114.873 122.402C115.099 122.451 115.352 122.745 115.534 122.889C116.056 123.317 116.542 123.784 116.998 124.281C117.32 124.636 117.928 124.188 117.599 123.834C117.073 123.256 114.777 120.544 113.923 121.782L113.917 121.783Z" fill="#CCB181"/>
<path d="M112.315 96.4557C111.699 95.5715 111.239 94.6076 110.943 93.5836C111.466 93.771 111.944 94.0528 112.392 94.4206C112.763 94.7284 113.231 94.139 112.853 93.832C112.147 93.2465 111.369 92.8685 110.48 92.6611C110.261 92.6106 110 92.8466 110.054 93.074C110.357 94.4613 110.908 95.7376 111.714 96.9024C111.986 97.2971 112.587 96.8505 112.315 96.4557Z" fill="#CCB181"/>
<path d="M112.379 109.851C113.075 109.627 113.548 110.466 113.824 110.956C114.057 111.369 114.754 111.097 114.52 110.677C114.037 109.812 113.254 108.734 112.1 109.155C110.835 109.622 111.389 111.4 111.74 112.308C111.916 112.762 112.612 112.483 112.436 112.029C112.262 111.589 111.684 110.075 112.379 109.851Z" fill="#CCB181"/>
<path d="M110.893 100.597C110.485 99.8471 110.255 99.0422 110.254 98.1906C111.113 98.0167 111.969 98.2964 112.609 98.9101C112.957 99.248 113.418 98.6594 113.071 98.3282C112.176 97.469 110.931 97.2063 109.748 97.5547C109.635 97.5882 109.528 97.731 109.521 97.8486C109.465 98.9197 109.685 99.9387 110.198 100.883C110.432 101.303 111.128 101.024 110.894 100.604L110.893 100.597Z" fill="#CCB181"/>
<path d="M111.811 119.462C111.811 119.462 111.887 119.522 111.924 119.552C112.302 119.852 112.77 119.263 112.392 118.963C112.355 118.933 112.317 118.903 112.279 118.873C111.901 118.572 111.44 119.161 111.818 119.461L111.811 119.462Z" fill="#CCB181"/>
<path d="M111.531 126.797C110.266 127.265 110.82 129.043 111.171 129.95C111.347 130.404 112.043 130.125 111.867 129.671C111.693 129.231 111.114 127.717 111.81 127.494C112.505 127.27 112.979 128.108 113.255 128.599C113.481 129.013 114.184 128.74 113.951 128.32C113.467 127.455 112.685 126.377 111.531 126.797Z" fill="#CCB181"/>
<path d="M111.903 115.414C111.321 115.068 111.193 114.307 110.536 114.025C110.124 113.845 109.61 113.856 109.31 114.234C108.944 114.695 109.162 115.398 109.288 115.905C109.497 116.706 109.847 117.428 110.309 118.103C110.582 118.505 111.175 118.052 110.91 117.657C110.588 117.178 109.479 115.355 110.056 114.876C110.332 114.646 110.412 114.801 110.611 115.04C110.73 115.184 110.818 115.352 110.925 115.505C111.12 115.764 111.325 115.94 111.598 116.108C112.017 116.349 112.316 115.662 111.897 115.421L111.903 115.414Z" fill="#CCB181"/>
<path d="M117.733 154.094C116.236 158.112 115.319 162.276 115.005 166.551C114.97 167.029 115.712 167.15 115.746 166.665C116.053 162.453 116.944 158.354 118.421 154.4C118.589 153.948 117.901 153.642 117.734 154.1L117.733 154.094Z" fill="#CCB181"/>
<path d="M107.898 105.012C107.719 105.005 107.476 105.109 107.466 105.323C107.415 106.613 107.743 107.798 108.45 108.878C108.716 109.281 109.317 108.827 109.052 108.432C108.528 107.64 108.241 106.745 108.208 105.801C108.727 105.893 109.177 106.109 109.59 106.474C109.95 106.797 110.417 106.201 110.058 105.885C109.447 105.35 108.712 105.05 107.898 105.012Z" fill="#CCB181"/>
<path d="M110.56 123.405C110.222 123.21 110.067 122.822 110.114 122.453C110.61 122.643 111.1 122.841 111.595 123.032C112.041 123.208 112.347 122.52 111.901 122.344C111.276 122.1 110.644 121.856 110.018 121.612C109.824 121.538 109.613 121.617 109.525 121.806C109.114 122.65 109.473 123.632 110.262 124.098C110.681 124.339 110.98 123.652 110.561 123.411L110.56 123.405Z" fill="#CCB181"/>
<path d="M109.632 110.742C108.793 110.076 107.867 109.605 106.845 109.317C106.739 109.288 106.632 109.259 106.519 109.23C106.215 109.155 106.034 109.492 106.111 109.744C106.447 110.819 106.863 111.87 107.383 112.875C107.639 113.368 107.903 113.942 108.563 113.764C108.689 113.728 108.763 113.59 108.79 113.47C108.801 113.441 108.804 113.413 108.814 113.378C108.897 113.025 108.502 112.871 108.251 113.016C108.117 112.75 107.546 111.476 107.479 111.319C107.319 110.938 107.172 110.55 107.038 110.16C107.809 110.422 108.514 110.815 109.163 111.332C109.541 111.632 110.009 111.043 109.632 110.742Z" fill="#CCB181"/>
<path d="M107.379 103.78C107.205 103.34 106.626 101.826 107.322 101.602C108.017 101.378 108.491 102.217 108.76 102.708C108.993 103.121 109.689 102.849 109.456 102.429C108.979 101.564 108.19 100.486 107.036 100.907C105.771 101.374 106.325 103.152 106.676 104.06C106.851 104.514 107.547 104.235 107.372 103.781L107.379 103.78Z" fill="#CCB181"/>
<path d="M111.406 151.437C111.942 151.197 112.318 150.707 112.402 150.121C112.471 149.639 111.73 149.524 111.661 150.006C111.616 150.327 111.427 150.603 111.127 150.74C110.69 150.942 110.969 151.638 111.406 151.437Z" fill="#CCB181"/>
<path d="M105.251 109.849C105.523 110.251 106.124 109.797 105.852 109.403C105.523 108.925 104.414 107.101 104.998 106.622C105.274 106.391 105.353 106.547 105.552 106.785C105.672 106.93 105.76 107.098 105.873 107.25C106.068 107.51 106.273 107.685 106.547 107.853C106.966 108.094 107.265 107.407 106.853 107.166C106.271 106.827 106.142 106.059 105.485 105.777C105.073 105.597 104.559 105.608 104.259 105.986C103.893 106.447 104.111 107.15 104.238 107.657C104.446 108.458 104.796 109.18 105.258 109.855L105.251 109.849Z" fill="#CCB181"/>
<path d="M106.416 118.706C106.877 118.413 107.085 118.485 107.527 118.751C107.77 118.895 107.99 119.076 108.22 119.228C108.6 119.487 108.965 119.672 109.416 119.778C109.889 119.889 110.003 119.141 109.531 119.037C108.36 118.765 106.886 116.812 105.643 118.129C105.183 118.614 105.262 119.299 105.42 119.899C105.703 120.993 106.186 122.03 106.737 123.011C106.97 123.424 107.674 123.151 107.433 122.732C107.114 122.164 106.821 121.579 106.58 120.975C106.456 120.673 106.339 120.371 106.248 120.058C106.167 119.827 106.105 119.587 106.063 119.344C105.943 119.008 106.062 118.795 106.417 118.713L106.416 118.706Z" fill="#CCB181"/>
<path d="M106.03 125.347C105.628 125.922 105.924 127.063 106.076 127.671C106.307 128.606 106.753 129.448 107.355 130.203C107.652 130.581 108.26 130.134 107.956 129.757C107.242 128.856 106.598 127.611 106.64 126.425C106.636 126.329 106.638 126.226 106.634 126.13C106.695 125.821 106.813 125.773 106.987 125.973C107.213 126.023 107.473 126.316 107.648 126.467C108.171 126.895 108.657 127.361 109.112 127.859C109.434 128.214 110.036 127.767 109.713 127.412C109.187 126.834 106.893 124.129 106.038 125.36L106.03 125.347Z" fill="#CCB181"/>
<path d="M99.8761 77.5962C100.105 78.3325 100.527 78.9642 101.101 79.4755C101.46 79.7984 101.922 79.2098 101.563 78.8937C101.081 78.4612 100.759 77.9347 100.572 77.3173C100.43 76.8596 99.7344 77.1385 99.8761 77.5962Z" fill="#CCB181"/>
<path d="M105.708 117.264C104.343 115.833 104.852 113.082 102.854 112.246C102.731 112.192 102.603 112.151 102.461 112.113C102.235 112.056 101.981 112.298 102.034 112.525C102.415 114.412 102.903 116.273 103.497 118.101C103.645 118.558 104.341 118.279 104.193 117.822C103.693 116.278 103.267 114.713 102.926 113.117C104.204 114.022 104.037 116.582 105.114 117.709C105.442 118.056 106.049 117.602 105.715 117.263L105.708 117.264Z" fill="#CCB181"/>
<path d="M96.6395 63.1216C97.4069 63.4665 97.9981 64.0719 98.3142 64.8532C98.4958 65.2995 99.1986 65.0198 99.0102 64.5743C98.6122 63.617 97.8871 62.862 96.9385 62.4348C96.4971 62.238 96.1973 62.918 96.6395 63.1216Z" fill="#CCB181"/>
<path d="M114.245 170.469C112.531 177.156 111.71 184.017 111.758 190.915C111.765 191.395 112.504 191.31 112.503 190.829C112.456 183.993 113.292 177.207 114.986 170.583C115.104 170.116 114.363 170.002 114.245 170.469Z" fill="#CCB181"/>
<path d="M99.8509 89.1937C100.462 89.371 101.013 89.6857 101.491 90.0843C101.863 90.3921 102.332 89.8095 101.959 89.4949C101.374 88.9987 100.703 88.6633 99.9644 88.4457C99.502 88.3063 99.3953 89.0535 99.8501 89.1869L99.8509 89.1937Z" fill="#CCB181"/>
<path d="M99.0193 75.0336C98.4514 75.1123 98.5622 76.0201 99.1217 75.9286C99.3235 75.8917 99.4759 75.7232 99.4518 75.513C99.4472 75.4723 99.4357 75.4324 99.4175 75.3933C99.4154 75.1943 99.2693 74.9981 99.0125 75.0344L99.0193 75.0336Z" fill="#CCB181"/>
<path d="M104.243 123.415C103.865 123.115 103.397 123.704 103.774 124.004C103.812 124.034 103.85 124.064 103.888 124.094C104.265 124.395 104.734 123.805 104.349 123.506C104.311 123.476 104.274 123.446 104.236 123.416L104.243 123.415Z" fill="#CCB181"/>
<path d="M108.598 154.795C108.077 155.94 107.555 157.085 107.041 158.229C106.837 158.672 107.524 158.971 107.727 158.528C108.249 157.383 108.77 156.238 109.291 155.093C109.488 154.652 108.808 154.352 108.605 154.794L108.598 154.795Z" fill="#CCB181"/>
<path d="M107.473 136.879C107.943 136.784 107.858 136.038 107.388 136.133C105.333 136.54 103.864 138.343 103.877 140.437C103.884 140.917 104.622 140.825 104.623 140.351C104.618 138.689 105.854 137.195 107.48 136.878L107.473 136.879Z" fill="#CCB181"/>
<path d="M111.985 208.378C111.79 208.291 111.588 208.39 111.492 208.572C111.396 208.755 111.3 208.931 111.203 209.107C111.106 209.283 111.217 209.524 111.397 209.6C111.592 209.687 111.794 209.589 111.89 209.406C111.986 209.223 112.075 209.048 112.172 208.872C112.268 208.69 112.159 208.455 111.985 208.378Z" fill="#CCB181"/>
<path d="M109.164 210.906C108.81 211.235 108.456 211.564 108.101 211.887C107.953 212.027 107.894 212.233 108.024 212.411C108.138 212.562 108.399 212.622 108.548 212.488C108.902 212.159 109.256 211.83 109.61 211.508C109.76 211.374 109.818 211.161 109.687 210.984C109.574 210.832 109.313 210.772 109.164 210.906Z" fill="#CCB181"/>
<path d="M95.5852 111.202C95.7867 111.282 96.0382 111.26 96.1997 111.111C96.3492 110.978 96.4065 110.758 96.2771 110.587C96.1878 110.467 96.009 110.405 95.863 110.449C95.7895 110.348 95.6733 110.292 95.531 110.309C95.3412 110.33 95.1572 110.523 95.2008 110.724C95.2468 110.946 95.3694 111.117 95.5852 111.202Z" fill="#CCB181"/>
<path d="M90.9891 72.6776C90.6917 72.2995 90.0905 72.7461 90.3878 73.1242C91.7393 74.8516 93.0968 76.5715 94.4551 78.2981C94.7524 78.6762 95.3537 78.2296 95.0563 77.8515C93.7056 76.1309 92.3474 74.4042 90.9891 72.6776Z" fill="#CCB181"/>
<path d="M90.0611 71.527C89.5799 71.5821 89.6653 72.328 90.1465 72.2729C90.6278 72.2178 90.5424 71.4719 90.0611 71.527Z" fill="#CCB181"/>
<path d="M89.2658 83.4753C92.1814 84.2887 94.8442 85.653 97.2156 87.5315C97.6001 87.831 98.0615 87.2424 97.6838 86.9421C95.2006 84.9871 92.4239 83.5877 89.3801 82.7341C88.9118 82.6023 88.8051 83.3495 89.2658 83.4753Z" fill="#CCB181"/>
<path d="M87.156 68.5286C86.7775 68.2216 86.3161 68.8102 86.6946 69.1172C87.1562 69.4903 87.5563 69.9253 87.894 70.4156C88.1658 70.8103 88.767 70.3637 88.4944 69.9621C88.1167 69.4215 87.6697 68.9369 87.156 68.5286Z" fill="#CCB181"/>
<path d="M96.2476 162.873C97.5415 156 99.9621 149.431 103.422 143.361C103.662 142.942 102.969 142.643 102.735 143.062C99.2478 149.19 96.8146 155.829 95.5066 162.759C95.417 163.236 96.158 163.351 96.2476 162.873Z" fill="#CCB181"/>
<path d="M85.8587 59.5356C85.4637 59.2648 84.9948 59.8474 85.3973 60.1242C90.3545 63.5339 94.4914 67.9374 97.5829 73.1062C97.8292 73.5176 98.4297 73.0642 98.1842 72.6596C95.0594 67.4396 90.8755 62.9865 85.8595 59.5424L85.8587 59.5356Z" fill="#CCB181"/>
<path d="M106.833 162.959C106.967 162.504 106.286 162.198 106.147 162.66C104.166 169.296 104.395 176.214 104.204 183.064C104.111 186.509 103.904 189.974 103.213 193.358C102.532 196.705 100.941 199.965 101.319 203.445C101.374 203.927 102.113 203.842 102.064 203.36C101.694 199.885 103.348 196.577 104.008 193.225C104.66 189.922 104.857 186.547 104.953 183.184C105.139 176.411 104.887 169.529 106.841 162.965L106.833 162.959Z" fill="#CCB181"/>
<path d="M82.557 49.2313C87.8116 51.4598 92.0813 55.4634 94.6173 60.579C94.8313 61.0079 95.5273 60.729 95.3133 60.3002C92.6886 55.0092 88.2978 50.8477 82.8561 48.5445C82.4087 48.3553 82.1096 49.0421 82.557 49.2313Z" fill="#CCB181"/>
<path d="M86.4382 81.9299C86.4738 81.7609 86.3579 81.5887 86.1995 81.5245C86.1146 81.3831 85.9546 81.3052 85.7575 81.3827C85.4099 81.5256 85.397 81.9529 85.6705 82.1826C85.9584 82.4176 86.349 82.2904 86.4374 81.9231L86.4382 81.9299Z" fill="#CCB181"/>
<path d="M89.8529 131.01C89.8889 130.965 89.9189 130.927 89.9549 130.882C90.2551 130.504 89.6658 130.036 89.3657 130.413C89.3364 130.458 89.2997 130.497 89.2636 130.542C88.9635 130.92 89.5528 131.388 89.8529 131.01Z" fill="#CCB181"/>
<path d="M96.8481 197.026C96.3121 195.583 97.2348 194.165 97.4983 192.747C97.7447 191.421 97.7026 190.093 97.4547 188.768C97.3665 188.297 96.6201 188.376 96.7091 188.854C97.0758 190.797 96.8715 192.551 96.2464 194.409C95.9092 195.423 95.7742 196.283 96.1514 197.298C96.3202 197.752 97.0162 197.474 96.8474 197.019L96.8481 197.026Z" fill="#CCB181"/>
<path d="M91.9815 138.084C90.8286 138.93 89.7452 139.844 88.7261 140.84C88.3867 141.174 88.8332 141.776 89.1727 141.441C90.1917 140.445 91.2819 139.531 92.4281 138.685C92.8212 138.4 92.3678 137.799 91.9815 138.084Z" fill="#CCB181"/>
<path d="M96.1094 202.511C96.2436 201.644 96.3703 200.771 96.5045 199.904C96.5729 199.422 95.8387 199.307 95.7635 199.789C95.636 200.656 95.5026 201.529 95.3684 202.397C95.2999 202.878 96.0342 202.994 96.1094 202.511Z" fill="#CCB181"/>
<path d="M88.7295 123.534C88.3717 124.008 87.917 124.355 87.3662 124.583C86.9201 124.765 87.1989 125.461 87.6451 125.279C88.3148 125.01 88.8829 124.574 89.3188 124.002C89.6113 123.619 89.022 123.15 88.7295 123.534Z" fill="#CCB181"/>
<path d="M68.0689 85.4751C78.5427 84.8254 89.0127 87.7413 97.6478 93.7043C98.0435 93.9818 98.5117 93.3924 98.116 93.1149C89.317 87.0402 78.669 84.0691 67.9835 84.7292C67.4991 84.7572 67.5913 85.5023 68.0689 85.4751Z" fill="#CCB181"/>
<path d="M103.971 214.194C102.513 215.673 100.958 217.204 98.8525 217.651C97.0094 218.048 95.1328 217.672 93.4282 216.94C92.9808 216.751 92.6817 217.437 93.1292 217.627C95.1016 218.479 97.2954 218.867 99.3986 218.283C101.509 217.704 103.065 216.173 104.56 214.662C104.899 214.321 104.31 213.853 103.971 214.194Z" fill="#CCB181"/>
<path d="M83.9612 134.431C85.5078 133.904 86.9505 133.189 88.3097 132.285C88.7119 132.019 88.2586 131.418 87.8631 131.683C86.5618 132.553 85.1695 133.228 83.6891 133.734C83.2331 133.889 83.5119 134.585 83.968 134.43L83.9612 134.431Z" fill="#CCB181"/>
<path d="M83.2844 92.5945C82.4587 92.4006 81.6262 92.2074 80.7945 92.021C80.3217 91.9102 80.2142 92.6507 80.6802 92.7622C81.5127 92.9554 82.3384 93.1493 83.1701 93.3358C83.6429 93.4465 83.7504 92.706 83.2844 92.5945Z" fill="#CCB181"/>
<path d="M86.2442 143.038C85.6883 143.521 85.1936 144.058 84.7608 144.657C84.4758 145.047 85.0651 145.515 85.3433 145.126C85.734 144.58 86.1852 144.082 86.6915 143.646C87.0537 143.33 86.6071 142.728 86.245 143.045L86.2442 143.038Z" fill="#CCB181"/>
<path d="M77.4666 129.77C80.2918 129.254 82.9422 128.291 85.4382 126.879C85.8571 126.639 85.4045 126.045 84.9849 126.278C82.6055 127.629 80.0724 128.538 77.3812 129.024C76.9106 129.113 76.9892 129.859 77.4666 129.77Z" fill="#CCB181"/>
<path d="M77.2816 112.618C76.8201 112.726 76.8987 113.472 77.367 113.364C78.8245 113.018 80.2614 113.032 81.7108 113.395C82.1775 113.514 82.2918 112.773 81.825 112.654C80.3116 112.271 78.7994 112.259 77.2748 112.619L77.2816 112.618Z" fill="#CCB181"/>
<path d="M76.328 107.831C79.4813 107.422 82.4993 109.55 85.3868 110.538C87.9387 111.413 90.5707 111.909 93.2726 111.696C93.7554 111.654 93.67 110.908 93.1872 110.95C89.8932 111.21 86.7371 110.335 83.7124 109.108C81.2995 108.128 78.9365 106.743 76.2434 107.092C75.7621 107.147 75.8483 107.9 76.3288 107.838L76.328 107.831Z" fill="#CCB181"/>
<path d="M71.1397 108.218L72.7259 108.037C73.2071 107.981 73.1217 107.236 72.6405 107.291L71.0543 107.472C70.573 107.527 70.6584 108.273 71.1397 108.218Z" fill="#CCB181"/>
<path d="M83.2068 146.196C80.3607 149.469 77.542 152.8 75.8415 156.842C75.6524 157.289 76.339 157.589 76.5281 157.141C78.2009 153.158 80.9852 149.885 83.7893 146.665C84.1045 146.3 83.522 145.831 83.2 146.197L83.2068 146.196Z" fill="#CCB181"/>
<path d="M76.4873 148.691C76.8819 148.419 76.4354 147.818 76.0407 148.09C74.5328 149.135 73.5958 150.787 73.4897 152.62C73.4619 153.097 74.2037 153.218 74.2307 152.734C74.3299 151.081 75.1252 149.63 76.4933 148.683L76.4873 148.691Z" fill="#CCB181"/>
<path d="M62.3809 85.6381L64.1162 85.4394C64.5975 85.3843 64.5121 84.6385 64.0308 84.6936L62.2955 84.8923C61.8143 84.9474 61.8996 85.6932 62.3809 85.6381Z" fill="#CCB181"/>
<path d="M70.9477 147.868C70.4743 148.232 70.0485 148.651 69.6764 149.12C69.377 149.504 69.9655 149.966 70.2589 149.589C70.5882 149.166 70.9644 148.794 71.3943 148.47C71.7798 148.178 71.3265 147.578 70.9477 147.868Z" fill="#CCB181"/>
<path d="M61.6883 91.0488C66.1093 90.0756 70.6404 90.2437 74.981 91.5671C75.4365 91.7073 75.7424 91.0197 75.28 90.8803C70.8105 89.5098 66.1647 89.2999 61.6029 90.303C61.1339 90.4048 61.2193 91.1506 61.6883 91.0488Z" fill="#CCB181"/>
<path d="M71.9941 164.928C71.9872 165.108 72.0691 165.284 72.2404 165.34C72.3153 165.455 72.4566 165.549 72.5966 165.512C72.7968 165.461 72.9502 165.362 73.0301 165.16C73.1101 164.959 73.0626 164.724 72.9084 164.576C72.6075 164.288 72.0047 164.481 71.9941 164.928Z" fill="#CCB181"/>
<path d="M70.3257 118.986C68.9673 118.997 67.6164 119.015 66.258 119.026C65.778 119.033 65.8627 119.772 66.3434 119.772C67.701 119.754 69.0527 119.743 70.4111 119.732C70.8911 119.725 70.8064 118.986 70.3257 118.986Z" fill="#CCB181"/>
<path d="M66.6155 126.706L65.8224 126.797C65.3411 126.852 65.4265 127.598 65.9078 127.542L66.7008 127.452C67.1821 127.396 67.0967 126.651 66.6155 126.706Z" fill="#CCB181"/>
<path d="M71.4828 186.371C71.5191 187.768 71.3104 189.124 70.8432 190.442C70.682 190.893 71.3694 191.199 71.5306 190.748C72.0381 189.302 72.2735 187.819 72.2284 186.285C72.2147 185.806 71.4691 185.892 71.4828 186.371Z" fill="#CCB181"/>
<path d="M68.0784 151.48C67.0362 152.754 66.194 154.155 65.5572 155.67C65.3681 156.118 66.0547 156.417 66.2438 155.97C66.8598 154.512 67.6675 153.169 68.6669 151.942C68.9746 151.57 68.3853 151.102 68.0777 151.473L68.0784 151.48Z" fill="#CCB181"/>
<path d="M66.6478 142.582C66.2497 142.704 65.8523 142.831 65.4549 142.959C64.9981 143.108 65.2769 143.804 65.7338 143.656C66.1319 143.534 66.5293 143.407 66.9267 143.279C67.3836 143.13 67.1047 142.434 66.6478 142.582Z" fill="#CCB181"/>
<path d="M57.9813 85.4224C57.7062 85.5982 57.431 85.7739 57.1626 85.9489C56.9897 86.058 56.9717 86.3211 57.0852 86.473C57.2147 86.6436 57.4362 86.6595 57.6092 86.5504C57.8843 86.3746 58.1595 86.1989 58.4279 86.0239C58.6008 85.9148 58.6188 85.6517 58.5052 85.4998C58.3758 85.3292 58.1543 85.3133 57.9813 85.4224Z" fill="#CCB181"/>
<path d="M66.6861 173.688C66.4765 173.657 66.3007 173.801 66.2547 173.999C66.2272 174.119 66.2005 174.245 66.173 174.365C66.127 174.563 66.2941 174.764 66.4834 174.797C66.6929 174.828 66.868 174.677 66.914 174.48C66.9415 174.36 66.969 174.24 66.9965 174.12C67.0425 173.922 66.8753 173.722 66.6793 173.689L66.6861 173.688Z" fill="#CCB181"/>
<path d="M62.9162 127.265C62.1168 127.721 61.2472 127.923 60.3333 127.918C59.8526 127.918 59.9447 128.663 60.4187 128.664C61.4697 128.667 62.4535 128.383 63.362 127.86C63.7808 127.619 63.3283 127.026 62.9154 127.258L62.9162 127.265Z" fill="#CCB181"/>
<path d="M65.4368 177.651C65.4303 178.614 65.4237 179.576 65.4172 180.539C65.4173 181.02 66.1621 180.927 66.1628 180.453C66.1694 179.491 66.1759 178.528 66.1825 177.566C66.1824 177.085 65.4375 177.177 65.4368 177.651Z" fill="#CCB181"/>
<path d="M58.0972 97.1118C57.2731 96.9314 56.4489 96.751 55.618 96.5714C55.146 96.4674 55.0325 97.2154 55.5037 97.3126C56.3279 97.493 57.152 97.6734 57.9761 97.8538C58.4481 97.9578 58.5617 97.2098 58.0904 97.1126L58.0972 97.1118Z" fill="#CCB181"/>
<path d="M60.8414 145.431C59.6174 146.196 58.3933 146.961 57.1761 147.726C56.7655 147.979 57.2189 148.579 57.6294 148.326C58.8534 147.561 60.0707 146.797 61.2948 146.031C61.7053 145.778 61.2519 145.178 60.8482 145.43L60.8414 145.431Z" fill="#CCB181"/>
<path d="M61.023 177.367C60.6617 170.972 62.0268 164.661 64.9748 158.98C65.2001 158.548 64.5135 158.249 64.2881 158.68C61.278 164.479 59.9089 170.935 60.2782 177.459C60.3062 177.944 61.051 177.852 61.0238 177.374L61.023 177.367Z" fill="#CCB181"/>
<path d="M64.8951 183.477C65.9405 190.508 59.5625 197.001 62.4989 203.995C62.6872 204.44 63.3832 204.161 63.1949 203.716C60.3269 196.9 66.67 190.342 65.6407 183.391C65.5721 182.912 64.8264 182.997 64.8951 183.477Z" fill="#CCB181"/>
<path d="M57.6468 136.545C56.1783 137.214 54.6513 137.492 53.0377 137.374C52.5599 137.34 52.4388 138.082 52.9234 138.116C54.6621 138.246 56.3331 137.966 57.9257 137.241C58.3628 137.04 58.0839 136.343 57.6468 136.545Z" fill="#CCB181"/>
<path d="M42.4663 123.914C48.7081 122.169 55.047 120.852 61.4635 119.973C61.9364 119.905 61.8578 119.159 61.3781 119.227C54.8946 120.121 48.4887 121.452 42.1875 123.217C41.7215 123.346 42.0072 124.042 42.4663 123.914Z" fill="#CCB181"/>
<path d="M44.0154 115.313C52.8428 112.159 62.3048 111.31 71.557 112.826C72.0327 112.902 72.147 112.161 71.6713 112.085C62.2932 110.548 52.6828 111.422 43.7365 114.617C43.2812 114.779 43.5601 115.475 44.0154 115.313Z" fill="#CCB181"/>
<path d="M55.5677 186.343L55.8068 188.432C55.8619 188.913 56.6075 188.828 56.5524 188.346L56.3133 186.258C56.2582 185.777 55.5126 185.862 55.5677 186.343Z" fill="#CCB181"/>
<path d="M55.579 177.323C54.8333 179.387 54.7861 181.494 55.4238 183.585C55.5655 184.043 56.2615 183.764 56.1198 183.306C55.5393 181.415 55.5931 179.485 56.2665 177.629C56.4277 177.178 55.747 176.871 55.579 177.323Z" fill="#CCB181"/>
<path d="M46.9278 147.588C47.9156 146.919 49.0012 146.444 50.1659 146.18C50.6282 146.079 50.5496 145.333 50.0805 145.434C48.7818 145.727 47.5765 146.236 46.4745 146.987C46.0798 147.259 46.5256 147.854 46.9278 147.588Z" fill="#CCB181"/>
<path d="M52.0472 95.0727C49.7564 94.7373 47.5228 94.1825 45.3673 93.3508C43.4556 92.608 40.8102 91.6951 40.1512 89.538C40.0095 89.0803 39.3135 89.3592 39.4552 89.8169C40.0913 91.8941 42.2245 92.8314 44.0663 93.6234C46.5805 94.7094 49.2229 95.4166 51.9262 95.8147C52.4079 95.8832 52.5221 95.1419 52.0405 95.0734L52.0472 95.0727Z" fill="#CCB181"/>
<path d="M54.6955 148.795C49.38 150.832 44.6773 154.084 40.8844 158.323C40.5616 158.683 41.1509 159.152 41.4736 158.792C45.1878 154.643 49.7777 151.487 54.9811 149.49C55.4281 149.315 55.1492 148.619 54.7023 148.794L54.6955 148.795Z" fill="#CCB181"/>
<path d="M34.7702 117.636C36.482 117.172 38.1938 116.708 39.9123 116.244C40.3783 116.115 40.0927 115.419 39.6335 115.548C37.9217 116.011 36.2099 116.475 34.4913 116.94C34.0322 117.068 34.311 117.764 34.7702 117.636Z" fill="#CCB181"/>
<path d="M30.7869 120.093C31.137 119.552 31.6149 119.167 32.2222 118.953C32.6775 118.791 32.3986 118.095 31.9433 118.257C31.2239 118.511 30.6122 118.987 30.2052 119.631C29.9421 120.032 30.5314 120.5 30.7877 120.1L30.7869 120.093Z" fill="#CCB181"/>
<path d="M40.9881 166.903C37.1318 171.549 34.7284 177.188 34.0554 183.187C34.0005 183.667 34.7416 183.781 34.7965 183.301C35.4555 177.421 37.7999 171.925 41.5774 167.371C41.8851 167 41.3026 166.53 40.9881 166.903Z" fill="#CCB181"/>
<path d="M32.6314 186.649C32.3454 187.629 32.0534 188.618 31.7674 189.598C31.628 190.061 32.3758 190.174 32.5084 189.713C32.7944 188.732 33.0797 187.745 33.3725 186.763C33.505 186.301 32.7648 186.194 32.6314 186.649Z" fill="#CCB181"/>
<path d="M29.2937 166.429C30.4944 162.761 32.0368 159.198 34.6302 156.298C37.1989 153.421 40.4934 151.306 43.7029 149.228C44.1051 148.962 43.6525 148.368 43.2495 148.627C39.9761 150.747 36.6599 152.912 34.0417 155.836C31.4048 158.776 29.8235 162.419 28.6071 166.13C28.4602 166.587 29.1476 166.893 29.2945 166.436L29.2937 166.429Z" fill="#CCB181"/>
<path d="M28.5715 168.999C28.3478 169.024 28.2452 169.208 28.2414 169.414C28.2289 169.965 28.2233 170.515 28.2116 171.073C28.207 171.273 28.4441 171.424 28.6271 171.403C28.8508 171.378 28.9526 171.187 28.9572 170.988C28.9697 170.437 28.9746 169.88 28.987 169.329C28.9909 169.122 28.7545 168.978 28.5715 168.999Z" fill="#CCB181"/>
<path d="M30.5125 192.373C30.3556 192.741 30.2054 193.108 30.0559 193.483C29.8736 193.93 30.5602 194.229 30.7426 193.782C30.8996 193.414 31.0498 193.046 31.1992 192.672C31.3815 192.225 30.6949 191.926 30.5125 192.373Z" fill="#CCB181"/>
<path d="M54.8331 129.841C55.3183 129.82 55.2261 129.075 54.7477 129.095C41.6275 129.663 28.8334 133.56 17.6088 140.368C17.1982 140.621 17.6508 141.215 18.0553 140.969C29.1642 134.229 41.85 130.407 54.8331 129.841Z" fill="#CCB181"/>
<path d="M249.02 85.0355C248.329 83.1363 247.56 81.2736 246.666 79.4663C245.888 77.8862 245.018 76.3509 244.033 74.8838C240.572 69.7229 235.638 65.8022 229.975 63.3045C218.648 58.2955 205.034 58.3978 193.182 61.4034C191.574 61.8142 189.982 62.2988 188.419 62.8692C191.055 58.5353 193.6 54.1361 196.192 49.7797C200.132 43.167 203.771 36.204 208.289 29.9647C210.49 26.9308 213.288 24.0207 216.539 22.0618C217.124 21.7132 217.712 21.3917 218.325 21.1085C217.916 20.9561 217.509 20.8173 217.094 20.6725C216.851 20.5904 216.607 20.5015 216.364 20.4194C215.563 20.1402 214.763 19.8677 213.963 19.6021C213.894 19.5345 213.797 19.47 213.683 19.4349C212.954 19.1819 212.222 18.9703 211.488 18.7933C208.867 18.1591 206.244 17.9786 203.636 18.1674C194.254 18.8224 185.195 24.2078 178.09 30.1113C172.522 34.7398 167.604 40.1318 163.477 46.0722C163.407 44.6239 163.297 43.1803 163.159 41.733C162.576 35.7479 161.631 29.6465 159.945 23.8633C158.602 19.2637 156.379 14.5449 152.22 11.8681C150.114 10.5087 147.766 9.85705 145.503 11.2633C143.291 12.6362 141.449 14.9628 139.8 16.9376C135.993 21.4743 132.86 26.6208 130.557 32.112C129.837 31.0472 129.041 30.0324 128.183 29.0728C124.685 25.1526 119.904 22.8012 116.168 19.1968C115.843 18.8836 115.525 18.5628 115.22 18.2337C115.188 18.1962 115.142 18.1601 115.105 18.1301C114.73 18.4547 114.363 18.792 114.017 19.127C103.223 29.5194 102.612 46.0753 105.058 60.4197C100.62 52.5474 94.4427 45.4376 85.2699 43.3555C82.5064 42.7308 79.6011 42.7268 76.8826 43.3953C76.2751 43.5473 75.6782 43.7324 75.0912 43.9438C74.8861 44.5512 74.7088 45.1622 74.5527 45.7777C72.076 55.3965 74.9237 65.8138 79.4345 74.502C75.8321 73.5681 72.1384 73.0362 68.354 73.0916C58.4677 73.2344 49.016 76.9336 40.167 81.0379C39.0453 81.5579 37.932 82.0906 36.8187 82.6233C36.0115 83.0111 34.3396 83.4636 33.7791 84.146C32.9229 85.1851 33.5926 87.6156 33.9642 88.7615C35.19 92.5709 38.3983 95.2809 41.912 96.9394C46.4633 99.0835 51.6476 100.159 56.5421 101.282C51.9787 102.271 47.5038 103.793 43.1953 105.509C35.169 108.702 27.3593 113.127 21.6001 119.687C15.6781 126.444 12.081 135.573 13.4299 144.596C13.4563 144.826 13.5038 145.061 13.5437 145.29C13.6382 145.815 14.0811 146.025 14.5682 145.901C24.5361 143.352 35.5924 140.712 45.861 142.648C40.9947 144.29 36.3956 146.527 32.6488 150.151C25.9836 156.594 23.8139 166.075 23.3837 175.034C23.116 180.553 22.9325 186.687 25.2847 191.817C26.2623 193.938 27.7439 195.842 29.5952 197.197C30.0001 197.494 30.4154 197.762 30.8487 198.008C31.1178 197.599 31.3794 197.185 31.6334 196.764C31.9129 196.327 32.1849 195.884 32.4502 195.441C32.4899 195.368 32.5228 195.295 32.5421 195.224C35.1768 191.365 36.7856 186.942 38.6812 182.686C40.8559 177.807 43.4146 173.104 46.4188 168.694C50.7584 162.331 56.0698 156.598 62.2826 152.081C52.6221 163.793 50.3605 180.209 53.3419 194.972C54.3901 200.169 56.1697 205.097 57.9225 210.089C57.9431 210.149 57.9636 210.208 57.9841 210.267C58.1264 210.67 58.2611 211.067 58.4033 211.47C58.8735 211.258 59.343 211.039 59.8048 210.815C64.0338 208.764 67.875 206.085 70.5208 201.963C74.1515 196.306 75.1917 189.497 76.0708 182.959C77.0292 175.795 78.0484 168.802 80.9501 162.116C83.7208 155.727 87.7164 149.898 92.6084 144.941C95.205 142.308 98.0587 139.942 101.12 137.888C97.8921 143.285 95.2473 149.035 93.2518 155C90.7343 162.521 89.2018 170.369 88.8035 178.287C88.3576 187.048 89.8019 195.765 89.3891 204.515C89.2885 206.635 89.0703 208.749 88.6704 210.834C88.2876 212.829 87.2349 215.031 87.4566 217.087C87.8174 220.418 92.6686 221.223 95.3313 221.447C102.355 222.037 109.34 218.682 114.092 213.639C125.057 201.984 124.818 185.086 129.333 170.48C132.633 179.746 137.858 188.312 145.63 194.538C150.619 198.528 156.461 201.383 162.756 202.565C163.38 202.679 163.701 202.059 163.566 201.545C163.518 201.365 163.484 201.184 163.457 201.008C162.934 197.826 164.943 194.972 166.823 192.565C168.747 190.113 170.824 187.8 172.248 185.006C175.298 179.011 175.495 171.975 174.575 165.438C173.758 159.624 172.099 153.892 170.079 148.36C172.808 149.587 175.64 150.629 178.367 151.657C182.881 153.352 187.408 155.045 191.742 157.153C193.996 158.248 196.189 159.46 198.277 160.842C200.127 162.066 201.831 163.512 203.727 164.662C205.646 165.83 207.725 166.533 209.989 166.274C211.189 166.136 213.319 165.487 215.058 165.563C215.596 165.584 216.095 165.678 216.523 165.883C216.686 165.445 216.835 165.009 216.97 164.568C218.478 159.807 218.881 154.684 218.377 149.686C217.42 140.062 213.3 131.068 208.772 122.65C205.509 116.587 201.557 110.315 196.7 105.087C203.988 100.186 212.204 96.7243 220.821 94.9134C226.045 93.8207 231.405 93.3033 236.738 93.462C239.418 93.5398 242.039 93.8786 244.696 94.172C246.692 94.39 248.545 93.903 249.249 91.8304C249.327 91.6086 249.383 91.3823 249.432 91.15C249.829 89.2224 249.359 87.0368 249.003 85.065L249.02 85.0355ZM163.561 48.6042C163.976 47.9727 164.4 47.3541 164.83 46.7347C171.64 36.9976 180.875 28.0476 191.737 22.9917C197.768 20.1855 204.558 18.6663 211.075 20.2213C212.286 20.6047 213.493 21.0092 214.694 21.4212C213.392 22.2915 212.174 23.2828 211.069 24.371C206.088 29.2688 202.812 35.7437 199.269 41.6927C195.093 48.7034 190.962 55.7501 186.728 62.7331C186.515 63.0872 186.301 63.4414 186.081 63.7964C185.624 64.5425 185.166 65.2818 184.695 66.0295C181.553 71.0396 178.155 75.9073 174.08 80.2C170.845 83.6135 167.12 86.6502 163 88.9285C162.709 89.0855 162.418 89.2425 162.126 89.3994C161.953 89.0827 161.772 88.7668 161.586 88.4584C161.117 87.6603 160.604 86.8948 160.071 86.1452C158.553 84.0385 156.713 82.3602 154.653 81.0436C154.231 80.7759 153.803 80.5158 153.364 80.2844C152.734 79.9375 152.087 79.6269 151.422 79.3389C151.515 79.2459 151.589 79.1138 151.618 78.9457C153.273 69.05 156.852 59.5249 162.072 50.959C162.551 50.1623 163.052 49.3768 163.561 48.6042ZM162.265 93.0105C162.027 93.0308 161.789 93.0512 161.544 93.0724C161.662 92.7773 161.779 92.4822 161.889 92.1812C162.016 92.4551 162.144 92.729 162.265 93.0105ZM117.733 88.2929C117.908 88.74 118.604 88.4611 118.429 88.0141C118.262 87.573 117.677 86.0601 118.372 85.8362C119.067 85.6055 119.541 86.4511 119.81 86.9423C120.044 87.3621 120.74 87.0832 120.506 86.6634C120.064 85.8555 119.353 84.872 118.333 85.0782C122.749 82.1409 127.763 80.1106 132.993 79.1821C134.736 78.8726 136.56 78.6706 138.407 78.6035C139.44 78.5677 140.477 78.5725 141.513 78.6256C145.368 78.8231 149.195 79.6764 152.516 81.4531C152.955 81.6913 153.389 81.9438 153.811 82.2115C155.22 83.115 156.519 84.2095 157.664 85.5141C158.874 86.9005 159.908 88.4376 160.809 90.0655C160.868 90.1618 160.921 90.2656 160.973 90.3626C160.798 90.8704 160.615 91.3722 160.424 91.868C160.25 92.3275 160.069 92.7811 159.88 93.2286C159.665 93.7546 159.436 94.2754 159.2 94.7902C156.524 100.743 152.844 106.151 148.415 110.897C148.08 111.265 147.73 111.628 147.386 111.983C144.172 115.284 140.59 118.25 136.747 120.846C136.326 121.128 135.912 121.409 135.483 121.685C132.714 123.472 129.814 125.075 126.822 126.468C126.288 126.722 125.752 126.962 125.215 127.195C123.862 127.79 122.497 128.344 121.113 128.853C118.524 129.809 115.897 130.618 113.227 131.294C111.358 131.763 109.468 132.171 107.57 132.505C107.146 132.581 106.721 132.651 106.297 132.72C106.129 132.753 105.96 132.779 105.791 132.805C105.531 132.512 105.277 132.212 105.042 131.895C104.136 130.701 103.397 129.349 102.806 127.906C102.614 127.426 102.435 126.939 102.268 126.443C101.741 124.841 101.384 123.157 101.17 121.471C101.106 120.915 101.043 120.359 101.008 119.814C100.901 118.397 100.898 116.996 100.979 115.668C101.127 113.24 101.491 110.836 102.073 108.482C102.195 107.987 102.33 107.49 102.465 106.994C102.879 105.566 103.362 104.151 103.933 102.773C104.125 102.298 104.326 101.828 104.547 101.363C105.994 98.1684 107.861 95.1589 110.112 92.4489C110.148 92.4036 110.185 92.365 110.221 92.3197C110.505 91.9781 110.797 91.6493 111.089 91.3205C112.612 89.628 114.281 88.0768 116.087 86.6954C116.478 86.3896 116.883 86.0891 117.29 85.8021C117.354 85.7604 117.417 85.712 117.481 85.6703C117.084 86.4027 117.469 87.6088 117.735 88.3065L117.733 88.2929ZM131.529 33.6492C133.163 29.5673 135.266 25.6791 137.747 22.0978C139.215 19.979 140.824 17.9606 142.563 16.058C144.534 13.8952 146.836 10.9665 150.061 12.39C154.523 14.3521 156.895 19.1774 158.285 23.5794C159.921 28.75 160.766 34.2722 161.408 39.6391C161.754 42.4777 161.977 45.3303 162.05 48.1864C159.855 51.5632 157.911 55.0967 156.236 58.7642C153.337 65.1135 151.285 71.8398 150.136 78.7237C150.133 78.7584 150.124 78.8006 150.122 78.8353C146.574 77.5379 142.683 77.0285 138.833 77.1053C130.594 71.6053 127.242 61.1633 127.628 51.461C127.845 46.0303 128.963 40.6199 130.826 35.4814C131.045 34.8725 131.278 34.2688 131.517 33.6643L131.529 33.6492ZM105.374 47.1055C105.335 37.3488 107.945 27.0966 115.073 20.1945C118.534 23.487 122.88 25.7027 126.214 29.1539C127.593 30.576 128.816 32.1396 129.866 33.8122C128.125 38.3391 126.942 43.0699 126.407 47.8709C125.213 58.5586 127.937 70.467 136.455 77.2127C136.136 77.2424 135.816 77.2721 135.497 77.3018C128.699 78.0251 122.126 80.5362 116.553 84.4646C116.363 84.1223 116.179 83.7792 115.996 83.4361C112.949 77.7539 110.575 71.7816 107.874 65.9429C107.736 65.6359 107.584 65.3236 107.439 65.0174C106.105 59.1252 105.406 53.0848 105.388 47.1107L105.374 47.1055ZM75.9258 60.6502C74.8392 55.4785 74.7836 50.1338 76.2962 45.111C79.2203 44.1992 82.4608 44.1923 85.4659 44.9473C90.4708 46.1946 94.9299 49.3934 98.3197 53.2092C101.607 56.9063 104.009 61.2748 106.106 65.7332C106.46 66.4827 106.799 67.2269 107.139 67.978C108.392 70.7676 109.606 73.5754 110.865 76.3507C112.077 79.0146 113.335 81.6663 114.729 84.2475C114.93 84.6229 115.13 84.9915 115.337 85.3594C113.651 86.6447 112.062 88.063 110.598 89.6113C110.359 89.8653 110.127 90.1186 109.896 90.3786C105.12 86.694 100.022 83.431 94.6622 80.6444C90.3969 78.4194 85.9448 76.4219 81.3298 75.0406C78.8717 70.4861 76.9734 65.6615 75.9258 60.6502ZM50.3503 98.1852C44.051 96.4884 34.3828 93.3777 35.0016 85.1669C45.5906 80.0048 56.7908 74.6628 68.8058 74.5786C72.7101 74.5506 76.5857 75.1716 80.3679 76.2361C81.0345 76.4208 81.6892 76.6206 82.3454 76.8339C89.0132 78.9899 95.3689 82.4387 101.112 86.0538C103.805 87.7444 106.411 89.5686 108.926 91.5062C106.682 94.2155 104.794 97.2205 103.313 100.419C103.091 100.884 102.885 101.361 102.685 101.831C101.988 103.484 101.4 105.186 100.924 106.909C100.191 106.863 99.4698 106.801 98.7598 106.718C89.4902 105.649 80.8705 101.56 71.6112 100.401C67.8348 99.927 64.0717 100.049 60.356 100.584C56.9985 99.8694 53.6655 99.0695 50.3563 98.1776L50.3503 98.1852ZM14.8973 144.277C13.7219 135.99 16.8728 127.702 22.161 121.347C27.8957 114.453 35.9914 109.947 44.2264 106.717C49.4906 104.651 54.8984 102.94 60.4237 102.136C62.201 101.884 63.9952 101.72 65.7958 101.672C68.3355 101.601 70.8947 101.761 73.4723 102.201C82.3048 103.711 90.6599 107.528 99.6294 108.315C99.9346 108.342 100.232 108.362 100.537 108.383C100.078 110.31 99.7595 112.27 99.5792 114.235C99.3845 116.373 99.3407 118.569 99.5198 120.733C96.0424 122.931 92.5227 125.058 88.9196 127.057C79.2332 132.425 69.1088 136.607 58.3434 139.268C55.1777 140.049 51.9133 140.808 48.703 141.739C37.7447 138.817 25.74 141.51 14.8889 144.264L14.8973 144.277ZM38.8976 178.698C36.0959 184.397 34.2615 190.748 30.2724 195.793C30.2604 195.808 30.2484 195.824 30.2431 195.838C28.1867 194.191 26.676 191.733 25.9013 189.225C24.4078 184.458 24.6058 179.049 24.9267 174.115C25.4981 165.25 27.902 155.956 34.9992 150.046C38.9739 146.734 43.7216 144.775 48.6555 143.303C49.5324 143.045 50.4176 142.799 51.2969 142.561C54.3291 141.754 57.3828 141.075 60.3391 140.324C70.3153 137.787 79.7547 133.801 88.769 128.86C92.4849 126.828 96.116 124.653 99.6964 122.396C99.9381 124.147 100.335 125.874 100.936 127.522C90.6474 135.611 76.8246 138.739 66.8374 147.418C54.6723 154.409 45.1252 166.032 38.8924 178.712L38.8976 178.698ZM81.9139 156.799C78.5245 162.943 76.4959 169.578 75.4546 176.497C74.4153 183.376 74.0432 190.562 71.3821 197.07C69.7888 200.968 67.3092 204.323 63.8757 206.783C62.4416 207.813 60.9127 208.675 59.3383 209.439C58.2437 206.357 57.043 203.307 56.183 200.294C53.5222 191.03 52.6449 181.087 54.6842 171.608C56.4461 163.424 60.4009 155.56 66.5001 149.751C66.9335 149.337 67.3812 148.929 67.838 148.54C69.8874 146.766 72.0936 145.222 74.4058 143.824C78.3225 141.446 82.5126 139.475 86.625 137.486C91.7786 134.994 96.9807 132.385 101.529 128.925C101.769 129.46 102.035 129.986 102.321 130.503C102.829 131.407 103.415 132.26 104.075 133.05C104.107 133.087 104.139 133.125 104.17 133.163C104.385 133.413 104.605 133.662 104.839 133.903C104.4 134.146 103.967 134.388 103.536 134.637C103.343 134.755 103.15 134.866 102.95 134.978C94.1823 140.214 86.8753 147.83 81.9215 156.805L81.9139 156.799ZM128.555 168.124C128.249 168.99 127.958 169.868 127.696 170.757C126.535 174.647 125.698 178.617 124.89 182.598C123.347 190.172 121.859 197.871 118.344 204.834C114.969 211.526 109.553 217.181 102.183 219.268C98.7043 220.257 94.9011 220.329 91.4746 219.072C90.758 218.811 89.7888 218.503 89.3029 217.858C88.5248 216.82 89.1291 215.261 89.4291 214.162C89.9835 212.106 90.3984 210.032 90.6369 207.917C91.5091 200 90.353 192.061 90.2088 184.143C90.0721 176.651 90.9705 169.143 92.7966 161.88C94.8167 153.852 98.0101 146.116 102.213 138.978C102.788 137.999 103.391 137.03 104.009 136.073C104.659 135.689 105.318 135.326 105.978 134.975C106.431 134.731 106.891 134.493 107.36 134.267C107.594 134.151 107.828 134.035 108.062 133.926C113.874 132.862 119.586 131.171 125.022 128.866C125.553 128.64 126.083 128.414 126.612 128.175C129.89 126.701 133.061 125.005 136.082 123.079C137.793 127.342 138.721 131.913 138.832 136.537C138.923 140.456 138.408 144.417 137.266 148.174C136.083 152.06 134.19 155.677 132.38 159.299C131.29 161.477 130.277 163.668 129.387 165.906C129.093 166.64 128.814 167.38 128.555 168.124ZM172.961 164.654C174.026 171.38 173.956 178.629 170.684 184.773C167.924 189.946 161.26 194.48 161.97 200.856C151.037 198.453 141.972 190.836 136.157 181.438C133.596 177.301 131.616 172.843 130.102 168.201C130.391 167.364 130.709 166.538 131.04 165.717C132.942 161.096 135.533 156.788 137.42 152.161C139.131 147.968 140.133 143.525 140.302 139C140.523 133.259 139.51 127.53 137.36 122.246C141.336 119.6 145.04 116.565 148.378 113.154C155.915 122.299 162.089 132.563 166.62 143.522C166.866 144.112 167.105 144.696 167.338 145.295C167.618 145.998 167.898 146.707 168.165 147.419C170.287 153.001 172.04 158.776 172.967 164.653L172.961 164.654ZM206.119 120.831C210.524 128.597 214.608 136.922 216.319 145.745C217.493 151.8 217.427 158.244 215.578 164.102C213.458 163.761 211.416 164.702 209.292 164.801C206.826 164.919 204.692 163.556 202.769 162.168C200.912 160.829 199.082 159.479 197.107 158.304C188.733 153.3 179.271 150.853 170.454 146.841C170.084 146.67 169.715 146.499 169.343 146.315C169.098 145.67 168.845 145.019 168.586 144.382C165.773 137.327 162.284 130.541 158.213 124.138C155.534 119.932 152.593 115.9 149.414 112.067C152.498 108.767 155.248 105.134 157.589 101.171C158.843 99.0487 159.952 96.861 160.917 94.6074C161.569 94.5464 162.222 94.4923 162.875 94.4381C163.399 94.3919 163.916 94.3533 164.441 94.3206C167.044 94.1462 169.665 94.066 172.25 94.2096C179.991 94.6422 186.851 97.8753 192.57 103.025C193.206 103.598 193.83 104.186 194.428 104.797C194.792 105.154 195.143 105.519 195.488 105.892C199.678 110.344 203.114 115.522 206.117 120.818L206.119 120.831ZM248.043 90.2374C247.91 91.9562 246.993 92.8169 245.197 92.6721C243.867 92.5702 242.548 92.3229 241.222 92.1999C238.841 91.9779 236.441 91.8886 234.048 91.9154C224.083 92.0327 214.135 94.3394 205.121 98.5655C201.83 100.11 198.671 101.907 195.67 103.948C190.115 98.3122 183.415 94.0785 175.257 92.9999C171.484 92.4976 167.651 92.6068 163.844 92.8846C163.526 92.1449 163.189 91.421 162.826 90.707C171.963 85.9446 178.988 77.6048 184.599 68.9668C185.48 67.6088 186.347 66.2388 187.199 64.8636C194.383 61.8154 202.675 60.8248 210.133 60.8846C221.811 60.9763 234.26 64.5037 241.646 74.1267C244.325 77.6118 246.186 81.5751 247.681 85.6971C247.953 87.2254 248.164 88.7742 248.045 90.251L248.043 90.2374Z" fill="#CCB181"/>
</g>
<defs>
<clipPath id="clip0_754_4406">
<rect width="241" height="204" fill="white" transform="translate(0 27.4141) rotate(-6.53139)"/>
</clipPath>
</defs>
</svg>
