<svg width="192" height="32" viewBox="0 0 192 32" fill="none" xmlns="http://www.w3.org/2000/svg">
<rect width="32" height="32" fill="#E6D9C9"/>
<path d="M15.1418 6.60713C15.4524 5.79762 16.5476 5.79762 16.8582 6.60713L18.893 11.9095C19.0252 12.2543 19.3344 12.4893 19.6886 12.5145L25.1364 12.901C25.9681 12.96 26.3065 14.0499 25.6668 14.6092L21.4765 18.2728C21.2041 18.511 21.086 18.8914 21.1726 19.2516L22.5048 24.7929C22.7082 25.6389 21.8222 26.3125 21.1162 25.8487L16.4917 22.8105C16.1911 22.613 15.8089 22.613 15.5083 22.8105L10.8838 25.8487C10.1778 26.3125 9.29183 25.6389 9.49521 24.7929L10.8274 19.2516C10.914 18.8914 10.7959 18.511 10.5235 18.2728L6.33322 14.6092C5.69351 14.0499 6.03191 12.96 6.86362 12.901L12.3114 12.5145C12.6656 12.4893 12.9748 12.2543 13.107 11.9095L15.1418 6.60713Z" fill="#94774A" stroke="#94774A" stroke-width="2"/>
<rect width="32" height="32" transform="translate(40)" fill="#E6D9C9"/>
<path d="M55.1418 6.60713C55.4524 5.79762 56.5476 5.79762 56.8582 6.60713L58.893 11.9095C59.0252 12.2543 59.3344 12.4893 59.6886 12.5145L65.1364 12.901C65.9681 12.96 66.3065 14.0499 65.6668 14.6092L61.4765 18.2728C61.2041 18.511 61.086 18.8914 61.1726 19.2516L62.5048 24.7929C62.7082 25.6389 61.8222 26.3125 61.1162 25.8487L56.4917 22.8105C56.1911 22.613 55.8089 22.613 55.5083 22.8105L50.8838 25.8487C50.1778 26.3125 49.2918 25.6389 49.4952 24.7929L50.8274 19.2516C50.914 18.8914 50.7959 18.511 50.5235 18.2728L46.3332 14.6092C45.6935 14.0499 46.0319 12.96 46.8636 12.901L52.3114 12.5145C52.6656 12.4893 52.9748 12.2543 53.107 11.9095L55.1418 6.60713Z" fill="#94774A" stroke="#94774A" stroke-width="2"/>
<rect width="32" height="32" transform="translate(80)" fill="#E6D9C9"/>
<path d="M95.1418 6.60713C95.4524 5.79762 96.5476 5.79762 96.8582 6.60713L98.893 11.9095C99.0252 12.2543 99.3344 12.4893 99.6886 12.5145L105.136 12.901C105.968 12.96 106.306 14.0499 105.667 14.6092L101.477 18.2728C101.204 18.511 101.086 18.8914 101.173 19.2516L102.505 24.7929C102.708 25.6389 101.822 26.3125 101.116 25.8487L96.4917 22.8105C96.1911 22.613 95.8089 22.613 95.5083 22.8105L90.8838 25.8487C90.1778 26.3125 89.2918 25.6389 89.4952 24.7929L90.8274 19.2516C90.914 18.8914 90.7959 18.511 90.5235 18.2728L86.3332 14.6092C85.6935 14.0499 86.0319 12.96 86.8636 12.901L92.3114 12.5145C92.6656 12.4893 92.9748 12.2543 93.107 11.9095L95.1418 6.60713Z" fill="#94774A" stroke="#94774A" stroke-width="2"/>
<rect width="32" height="32" transform="translate(120)" fill="#E6D9C9"/>
<path d="M135.142 6.60713C135.452 5.79762 136.548 5.79762 136.858 6.60713L138.893 11.9095C139.025 12.2543 139.334 12.4893 139.689 12.5145L145.136 12.901C145.968 12.96 146.306 14.0499 145.667 14.6092L141.477 18.2728C141.204 18.511 141.086 18.8914 141.173 19.2516L142.505 24.7929C142.708 25.6389 141.822 26.3125 141.116 25.8487L136.492 22.8105C136.191 22.613 135.809 22.613 135.508 22.8105L130.884 25.8487C130.178 26.3125 129.292 25.6389 129.495 24.7929L130.827 19.2516C130.914 18.8914 130.796 18.511 130.523 18.2728L126.333 14.6092C125.694 14.0499 126.032 12.96 126.864 12.901L132.311 12.5145C132.666 12.4893 132.975 12.2543 133.107 11.9095L135.142 6.60713Z" fill="#94774A" stroke="#94774A" stroke-width="2"/>
<rect width="32" height="32" transform="translate(160)" fill="#E6D9C9"/>
<path d="M175.142 6.60713C175.452 5.79762 176.548 5.79762 176.858 6.60713L178.893 11.9095C179.025 12.2543 179.334 12.4893 179.689 12.5145L185.136 12.901C185.968 12.96 186.306 14.0499 185.667 14.6092L181.477 18.2728C181.204 18.511 181.086 18.8914 181.173 19.2516L182.505 24.7929C182.708 25.6389 181.822 26.3125 181.116 25.8487L176.492 22.8105C176.191 22.613 175.809 22.613 175.508 22.8105L170.884 25.8487C170.178 26.3125 169.292 25.6389 169.495 24.7929L170.827 19.2516C170.914 18.8914 170.796 18.511 170.523 18.2728L166.333 14.6092C165.694 14.0499 166.032 12.96 166.864 12.901L172.311 12.5145C172.666 12.4893 172.975 12.2543 173.107 11.9095L175.142 6.60713Z" fill="#94774A" stroke="#94774A" stroke-width="2"/>
</svg>
